<?xml version="1.0" encoding="utf-8"?>
<!-- Generator: Adobe Illustrator 25.2.0, SVG Export Plug-In . SVG Version: 6.00 Build 0)  -->
<svg version="1.1" id="Layer_1" xmlns="http://www.w3.org/2000/svg" xmlns:xlink="http://www.w3.org/1999/xlink" x="0px" y="0px"
	 width="635.7px" height="225.1px" viewBox="0 0 635.7 225.1" enable-background="new 0 0 635.7 225.1" xml:space="preserve">
<g>
	<path fill="#FFFFFF" d="M218.6,112.6c-0.1,55.2-45.3,98.6-98.8,98.4c-54.1-0.2-98.2-44.3-98.1-98.6c0.2-55.7,45.9-98.6,99.1-98.3
		C174.6,14.5,218.6,58.6,218.6,112.6z M197.8,161.3c-0.3-0.6-0.4-0.9-0.5-1.1c-0.4-0.6-0.8-1.2-1.2-1.8c-6.2-9.1-14-16.6-23.2-22.6
		c-21.2-13.9-44.2-20.1-69.3-15.1c-24.7,4.8-44.4,17.8-59.4,37.9c-0.6,0.8-1,1.6-1.6,2.7c18.2,26.7,43.1,41.9,75.6,42.5
		C152.3,204.6,178.6,189.3,197.8,161.3z M38.8,154c24.6-44.3,49.1-88.2,73.6-132.3c-7.7-0.1-21.8,3.3-32.8,8.9
		c-15.6,7.9-28,19.2-37.2,34C24,93.9,25.5,129.2,38.8,154z M201.8,153.3c12.3-22.4,15.1-57.6-3-87.6C189.2,50,176.2,38,159.6,30
		c-9.5-4.6-19.6-7.5-30.7-8.5C153.3,65.7,177.5,109.4,201.8,153.3z M120.7,21c-11,19.8-21.8,39.2-32.3,58.7
		c10.5-3.8,21.2-5.8,32.2-5.8c11.1,0,21.8,2,32.2,6c0.1-0.1,0.2-0.3,0.2-0.4C142.3,60.1,131.6,40.8,120.7,21z M57.6,134.7
		c18.8-14.3,39.6-22.8,63.3-22.4c23.5,0.3,44.4,8.2,62.7,23.1c0-0.5-0.1-0.8-0.2-1c-3.4-6.1-6.7-12.2-10.1-18.2
		c-0.4-0.8-1.2-1.5-2-1.9c-17.6-9.9-36.4-15.1-56.7-13.7c-15.9,1.1-30.7,5.9-44.6,13.6c-1.1,0.6-1.9,1.4-2.5,2.5
		c-3,5.5-6.1,11-9.2,16.6C58.1,133.6,57.8,134.2,57.6,134.7z M74.6,103.8c0.1,0.1,0.2,0.3,0.3,0.4c0.6-0.2,1.1-0.5,1.7-0.7
		c5.1-2,10.2-4.3,15.4-6c12.3-3.8,25-5.4,37.9-3.9c12.2,1.4,24,4.7,35.1,10c0.4,0.2,0.8,0.2,1.6,0.5c-2.9-5.3-5.6-10.1-8.2-14.8
		c-25.4-10.6-50.5-11.3-75.7,0C80,94,77.3,98.9,74.6,103.8z"/>
	<path fill="#FFFFFF" d="M527.4,135.9c0,3.3,0,6.2,0,9.4c-0.7,0.1-1.3,0.2-1.9,0.2c-12.2,0-24.3,0.1-36.5,0
		c-5.7-0.1-11.3-1-16.6-3.2c-9.7-3.9-16.4-10.8-19.6-20.7c-4-12.3-3.3-24.4,4-35.4c8.4-12.7,20.6-18.6,35.7-17
		c15.5,1.7,26.4,10.2,31.5,25.1c3.6,10.4,2.5,20.8-2.5,30.7c-1.9,3.7-4.4,6.8-7.6,9.4c-0.3,0.2-0.6,0.5-0.9,0.8c0,0,0,0.2-0.1,0.6
		c1.6,0,3.1,0.1,4.7,0.1c1.6,0,3.2,0,4.8,0C523.9,135.9,525.5,135.9,527.4,135.9z M488.4,79.2c-1.5,0.1-3,0.2-4.5,0.5
		c-11.1,2.1-19.6,10.7-22,22.1c-2.3,10.8,2.4,22.3,11.7,28.7c13,9,30.9,4.6,38.3-9.4c6.1-11.6,3.7-25.8-5.9-34.7
		C501,81.8,495.2,79.3,488.4,79.2z"/>
	<path fill="#FFFFFF" d="M424.5,70.5c3.6,0,6.9,0,10.3,0c0.5,1.8,0.7,69.4,0.2,74.8c-0.8,0-1.6,0.1-2.4,0.1
		c-8.4-8.7-16.6-17.2-24.9-25.8c-8.3-8.6-16.5-17.1-24.9-25.8c-0.8,1-0.5,2-0.5,2.9c0,15.2,0,30.4,0,45.6c0,0.9,0,1.9,0,3
		c-3.7,0-7.1,0-10.6,0c0-25,0-49.8,0-74.8c1,0,1.8,0,2.9,0c16.4,16.9,32.9,33.9,49.8,51.4c0.3-2.9,0.1-5.3,0.2-7.6c0-2.5,0-5,0-7.4
		c0-2.4,0-4.8,0-7.2c0-2.4,0-4.8,0-7.2c0-2.4,0-4.8,0-7.2c0-2.5,0-5,0-7.4C424.5,75.4,424.5,73,424.5,70.5z"/>
	<path fill="#FFFFFF" d="M614,145.3c-4.2,0-8,0-12.2,0c-2.1-4.5-4.4-9.2-6.6-13.8c-13.1,0-26,0-39.2,0c-2.1,4.5-4.3,9.1-6.5,13.9
		c-3.9,0-7.8,0-12.1,0c12.3-25.1,24.5-49.9,36.8-74.8c0.5-0.1,1-0.1,1.5-0.1c0.4,0,0.8,0,1.4,0C589.4,95.2,601.6,120,614,145.3z
		 M560.8,122c10.2,0,19.9,0,29.9,0c-5-10.6-9.8-21-14.6-31.3c-0.2,0-0.4,0-0.6,0C570.7,101.1,565.8,111.4,560.8,122z"/>
	<path fill="#FFFFFF" d="M326.1,145.3c-4.3,0-8.1,0-12.2,0c-2.2-4.6-4.3-9.2-6.5-13.8c-13.1,0-26,0-39.2,0
		c-2.1,4.5-4.3,9.1-6.5,13.8c-3.9,0-7.8,0-12.1,0c12.3-25.1,24.5-49.9,36.8-74.8c1,0,1.9,0,3,0C301.5,95.3,313.7,120.2,326.1,145.3z
		 M288,90.3c-0.5,1-0.8,1.4-1,1.9c-4.6,9.8-9.2,19.6-13.8,29.5c0,0.1,0,0.1,0.1,0.2c0,0.1,0.1,0.1,0.1,0.2
		c4.6,0.4,27.3,0.2,29.3-0.3C297.8,111.4,293,101.1,288,90.3z"/>
	<path fill="#FFFFFF" d="M351.1,145.3c-3.4,0-6.8,0-10.2,0c0-25,0-49.8,0-74.8c3.4,0,6.8,0,10.1,0
		C351.5,72.2,351.7,142.4,351.1,145.3z"/>
</g>
</svg>
