<?xml version="1.0" encoding="utf-8"?>
<!-- Generator: Adobe Illustrator 25.0.0, SVG Export Plug-In . SVG Version: 6.00 Build 0)  -->
<svg version="1.1" id="Layer_1" xmlns="http://www.w3.org/2000/svg" xmlns:xlink="http://www.w3.org/1999/xlink" x="0px" y="0px"
	 width="158px" height="57.7px" viewBox="0 0 158 57.7" enable-background="new 0 0 158 57.7" xml:space="preserve">
<g id="AINQA_Logo-01" transform="translate(-21.7 -14.098)">
	<path id="Path_2769" fill="#00205C" d="M50.8,18c-0.1,0-0.1,0-0.2,0c-13.8,0-24.9,11.1-24.9,24.9c0,13.8,11.2,24.9,25,24.9
		s24.9-11.1,24.9-24.9C75.5,29.3,64.5,18.1,50.8,18z M50.8,19.8c2.7,4.9,5.5,9.9,8.1,14.8l-0.1,0.1c-2.6-1-5.3-1.5-8.1-1.5
		c-2.7,0-5.5,0.5-8.1,1.5C45.3,29.7,47.9,24.8,50.8,19.8z M62.1,40.7c-2.8-1.3-5.8-2.2-8.9-2.6c-3.3-0.4-6.5,0-9.6,1
		c-1.3,0.4-2.6,1-3.9,1.5c-0.2,0.1-0.3,0.1-0.4,0.2l-0.1-0.1c0.7-1.2,1.3-2.5,2.2-3.6c6.4-2.8,12.7-2.7,19.2,0
		c0.6,1.1,1.3,2.4,2,3.7C62.3,40.8,62.2,40.8,62.1,40.7z M63.5,43.4c0.3,0.1,0.4,0.3,0.5,0.4c0.9,1.5,1.7,3.1,2.6,4.6
		c0.1,0.1,0.1,0.2,0.1,0.3c-4.5-3.7-10.1-5.7-15.9-5.8c-6-0.1-11.2,2-16,5.7c0.1-0.1,0.1-0.2,0.3-0.3c0.8-1.4,1.5-2.8,2.3-4.2
		c0.1-0.3,0.4-0.4,0.6-0.6c3.4-1.9,7.3-3.2,11.3-3.4C54.2,39.6,59.2,40.8,63.5,43.4z M30.9,30.8c2.3-3.6,5.6-6.6,9.5-8.6
		c2.6-1.3,5.4-2.1,8.3-2.3C42.5,31.1,36.3,42.2,30,53.5C26.3,46.3,26.7,37.6,30.9,30.8z M50.2,66.2c-8.2-0.2-14.6-4-19.2-10.8
		c0.2-0.3,0.3-0.5,0.4-0.7c3.5-5,8.9-8.5,15-9.6c6.4-1.3,12.2,0.3,17.6,3.8c2.3,1.5,4.2,3.4,5.8,5.7l0.3,0.4c0,0,0,0.1,0.1,0.3
		C65.4,62.4,58.8,66.3,50.2,66.2z M52.8,20c2.7,0.2,5.3,1,7.8,2.1c4.1,1.9,7.5,5.1,9.9,9c4.1,6.8,4.4,15.1,0.8,22.2
		C65.2,42.2,59,31.1,52.8,20z"/>
	<path id="Path_2770" fill="#00205C" d="M151.1,49H150c0-0.1,0-0.1,0-0.2c0.1-0.1,0.2-0.1,0.3-0.2c0.8-0.6,1.5-1.5,1.9-2.4
		c1.2-2.4,1.5-5.2,0.6-7.8c-1.1-3.6-4.2-6.1-8-6.4c-3.5-0.4-7.2,1.2-9,4.3c-1.7,2.7-2.1,5.9-1,8.9c0.7,2.4,2.6,4.3,4.9,5.2
		c1.4,0.5,2.8,0.8,4.2,0.8h9.3c0.1,0,0.3-0.1,0.4-0.1v-2.4L151.1,49z M149.4,45.7c-2.1,3-6.3,3.8-9.3,1.7c-2.4-1.6-3.5-4.4-3-7.2
		c0.5-2.8,2.7-5,5.6-5.6c0.4,0,0.8-0.1,1.1-0.1c1.7,0.1,3.3,0.7,4.5,1.8c2.5,2.2,3.1,5.8,1.5,8.7C149.7,45.2,149.6,45.4,149.4,45.7z
		"/>
	<path fill="#00205C" d="M130.4,51.2h-0.6c-2.1-2.2-4.2-4.3-6.3-6.5s-4.2-4.3-6.3-6.5c-0.2,0.2-0.2,0.4-0.1,0.7v12.3h-2.7V32.3h0.7
		c4.2,4.2,8.3,8.6,12.6,13c0.1-0.7,0-1.3,0.1-1.9v-11h2.4C130.4,32.7,130.5,49.8,130.4,51.2z"/>
	<path id="Path_2772" fill="#00205C" d="M166.2,32.3h-0.7c-3.1,6.3-6.2,12.5-9.3,18.9h3.1c0.6-1.2,1.1-2.4,1.7-3.5h9.9
		c0.5,1.2,1.1,2.4,1.7,3.5h3.1C172.5,44.8,169.4,38.5,166.2,32.3z M162.2,45.3c1.3-2.7,2.6-5.3,3.7-8h0.2c1.2,2.7,2.5,5.3,3.7,8
		H162.2z"/>
	<path id="Path_2773" fill="#00205C" d="M93.4,32.3h-0.8c-3.1,6.3-6.2,12.5-9.3,18.9h3.1c0.6-1.2,1.1-2.4,1.7-3.5H98
		c0.6,1.2,1.1,2.4,1.7,3.5h3.1C99.6,44.9,96.5,38.6,93.4,32.3z M89.4,45.4C89.4,45.3,89.4,45.3,89.4,45.4c0-0.2,0-0.2,0-0.2
		c1.2-2.6,2.4-5,3.5-7.5c0.1-0.1,0.2-0.2,0.3-0.4c1.2,2.7,2.5,5.4,3.6,8C96.3,45.5,90.5,45.5,89.4,45.4z"/>
	<path id="Path_2774" fill="#00205C" d="M109.1,51.3h-2.6v-19h2.6C109.2,32.7,109.2,50.5,109.1,51.3z"/>
</g>
</svg>
