<svg xmlns="http://www.w3.org/2000/svg"  viewBox="0 0 100 100" width="500px" height="500px"><path fill="#c7ede6" d="M87.215,56.71C88.35,54.555,89,52.105,89,49.5c0-6.621-4.159-12.257-10.001-14.478 C78.999,35.015,79,35.008,79,35c0-11.598-9.402-21-21-21c-9.784,0-17.981,6.701-20.313,15.757C36.211,29.272,34.638,29,33,29 c-7.692,0-14.023,5.793-14.89,13.252C12.906,43.353,9,47.969,9,53.5C9,59.851,14.149,65,20.5,65c0.177,0,0.352-0.012,0.526-0.022 C21.022,65.153,21,65.324,21,65.5C21,76.822,30.178,86,41.5,86c6.437,0,12.175-2.972,15.934-7.614C59.612,80.611,62.64,82,66,82 c4.65,0,8.674-2.65,10.666-6.518C77.718,75.817,78.837,76,80,76c6.075,0,11-4.925,11-11C91,61.689,89.53,58.727,87.215,56.71z"/><path fill="#fdfcef" d="M67.5,35.5V36h-3v-0.5c0,0-4.242,0-5.5,0c-2.485,0-4.5-2.015-4.5-4.5 c0-2.333,1.782-4.229,4.055-4.455C58.533,26.364,58.5,26.187,58.5,26c0-2.485,2.015-4.5,4.5-4.5c1.438,0,2.703,0.686,3.527,1.736 C66.667,20.6,68.829,18.5,71.5,18.5c2.761,0,5,2.239,5,5c0,0.446-0.077,0.87-0.187,1.282c0.642-0.777,1.6-1.282,2.687-1.282 c1.781,0,3.234,1.335,3.455,3.055C82.636,26.533,82.813,26.5,83,26.5c2.485,0,4.5,2.015,4.5,4.5s-2.015,4.5-4.5,4.5s-9.5,0-9.5,0 H67.5z"/><path fill="#472b29" d="M71.5,18c3.033,0,5.5,2.467,5.5,5.5c0,0.016,0,0.031,0,0.047C77.602,23.192,78.29,23,79,23 c1.831,0,3.411,1.261,3.858,3.005C82.905,26.002,82.952,26,83,26c2.757,0,5,2.243,5,5s-2.243,5-5,5H67.5 c-0.276,0-0.5-0.224-0.5-0.5s0.224-0.5,0.5-0.5H83c2.206,0,4-1.794,4-4s-1.794-4-4-4c-0.117,0-0.23,0.017-0.343,0.032 l-0.141,0.019c-0.021,0.003-0.041,0.004-0.062,0.004c-0.246,0-0.462-0.185-0.495-0.437C81.768,25.125,80.496,24,79,24 c-0.885,0-1.723,0.401-2.301,1.1c-0.098,0.118-0.241,0.182-0.386,0.182c-0.078,0-0.156-0.018-0.228-0.056 c-0.209-0.107-0.314-0.346-0.254-0.573C75.946,24.218,76,23.852,76,23.5c0-2.481-2.019-4.5-4.5-4.5 c-2.381,0-4.347,1.872-4.474,4.263c-0.011,0.208-0.15,0.387-0.349,0.45c-0.05,0.016-0.101,0.024-0.152,0.024 c-0.15,0-0.296-0.069-0.392-0.192C65.362,22.563,64.221,22,63,22c-2.206,0-4,1.794-4,4c0,0.117,0.017,0.23,0.032,0.343 l0.019,0.141c0.016,0.134-0.022,0.268-0.106,0.373c-0.084,0.105-0.207,0.172-0.34,0.185C56.549,27.247,55,28.949,55,31 c0,2.206,1.794,4,4,4h5.5c0.276,0,0.5,0.224,0.5,0.5S64.776,36,64.5,36H59c-2.757,0-5-2.243-5-5c0-2.397,1.689-4.413,4.003-4.877 C58.001,26.082,58,26.041,58,26c0-2.757,2.243-5,5-5c1.176,0,2.293,0.416,3.183,1.164C66.781,19.76,68.945,18,71.5,18L71.5,18z"/><path fill="#472b29" d="M73 25c1.403 0 2.609.999 2.913 2.341C76.28 27.119 76.699 27 77.125 27c1.202 0 2.198.897 2.353 2.068C79.681 29.022 79.874 29 80.063 29c1.529 0 2.811 1.2 2.918 2.732C82.99 31.87 82.886 31.99 82.749 32c-.006 0-.012 0-.018 0-.13 0-.24-.101-.249-.232-.089-1.271-1.151-2.268-2.419-2.268-.229 0-.47.042-.738.127-.022.007-.045.01-.067.01-.055 0-.11-.02-.156-.054C79.038 29.537 79 29.455 79 29.375c0-1.034-.841-1.875-1.875-1.875-.447 0-.885.168-1.231.473-.047.041-.106.063-.165.063-.032 0-.063-.006-.093-.019-.088-.035-.148-.117-.155-.212C75.377 26.512 74.288 25.5 73 25.5c-.208 0-.425.034-.682.107-.023.007-.047.01-.07.01-.109 0-.207-.073-.239-.182-.038-.133.039-.271.172-.309C72.483 25.04 72.744 25 73 25L73 25zM59.117 26.5c1.326 0 2.508.897 2.874 2.182.038.133-.039.271-.172.309C61.795 28.997 61.772 29 61.75 29c-.109 0-.209-.072-.24-.182C61.205 27.748 60.221 27 59.117 27c-.117 0-.23.014-.342.029-.012.002-.023.003-.035.003-.121 0-.229-.092-.246-.217-.019-.137.077-.263.214-.281C58.842 26.516 58.978 26.5 59.117 26.5L59.117 26.5z"/><path fill="#fff" d="M16.5 48h-10C6.224 48 6 47.776 6 47.5S6.224 47 6.5 47h10c.276 0 .5.224.5.5S16.777 48 16.5 48zM19.5 48h-1c-.276 0-.5-.224-.5-.5s.224-.5.5-.5h1c.276 0 .5.224.5.5S19.777 48 19.5 48zM24.491 50H15.5c-.276 0-.5-.224-.5-.5s.224-.5.5-.5h8.991c.276 0 .5.224.5.5S24.767 50 24.491 50zM13.5 50h-1c-.276 0-.5-.224-.5-.5s.224-.5.5-.5h1c.276 0 .5.224.5.5S13.777 50 13.5 50zM10.5 50h-2C8.224 50 8 49.776 8 49.5S8.224 49 8.5 49h2c.276 0 .5.224.5.5S10.777 50 10.5 50zM16.5 52h-2c-.276 0-.5-.224-.5-.5s.224-.5.5-.5h2c.276 0 .5.224.5.5S16.776 52 16.5 52zM19.5 43c-.177 0-.823 0-1 0-.276 0-.5.224-.5.5 0 .276.224.5.5.5.177 0 .823 0 1 0 .276 0 .5-.224.5-.5C20 43.224 19.776 43 19.5 43zM19.5 45c-.177 0-4.823 0-5 0-.276 0-.5.224-.5.5 0 .276.224.5.5.5.177 0 4.823 0 5 0 .276 0 .5-.224.5-.5C20 45.224 19.776 45 19.5 45zM24.5 47c-.177 0-2.823 0-3 0-.276 0-.5.224-.5.5 0 .276.224.5.5.5.177 0 2.823 0 3 0 .276 0 .5-.224.5-.5C25 47.224 24.776 47 24.5 47z"/><g><path fill="#fff" d="M86.5 70h-10c-.276 0-.5-.224-.5-.5s.224-.5.5-.5h10c.276 0 .5.224.5.5S86.776 70 86.5 70zM90.5 70h-2c-.276 0-.5-.224-.5-.5s.224-.5.5-.5h2c.276 0 .5.224.5.5S90.776 70 90.5 70zM95.5 72h-10c-.276 0-.5-.224-.5-.5s.224-.5.5-.5h10c.276 0 .5.224.5.5S95.777 72 95.5 72zM83.5 72h-1c-.276 0-.5-.224-.5-.5s.224-.5.5-.5h1c.276 0 .5.224.5.5S83.776 72 83.5 72zM80.47 72H78.5c-.276 0-.5-.224-.5-.5s.224-.5.5-.5h1.97c.276 0 .5.224.5.5S80.746 72 80.47 72zM89.5 68h-5c-.276 0-.5-.224-.5-.5s.224-.5.5-.5h5c.276 0 .5.224.5.5S89.777 68 89.5 68zM86.5 74h-2c-.276 0-.5-.224-.5-.5s.224-.5.5-.5h2c.276 0 .5.224.5.5S86.776 74 86.5 74z"/></g><g><path fill="#fed5b3" d="M40.443,73.821v-6.415c0-2.177-0.658-6.541-3.666-10.081c-2.967-3.492-5.499-9.164-4.582-13.747 s3.666-16.496,15.58-17.413c11.914-0.916,20.162,1.833,23.828,11.914c0.881,2.637-0.038,3.704-0.535,4.62l4.85,7.637 c0.611,0.802,0.993,3.093-0.535,3.513c-1.841,0.506-3.78,0.726-3.78,0.726l0.764,8.363c0.191,2.711-0.573,5.231-3.513,5.384 c-2.746,0.143-7.332,0-7.332,0v9.164"/><path fill="#472b29" d="M61.521,78.187c-0.387,0-0.7-0.313-0.7-0.7v-9.164c0-0.189,0.077-0.371,0.213-0.503 c0.136-0.131,0.318-0.236,0.509-0.196c0.046,0.001,4.586,0.141,7.273,0c0.875-0.046,1.528-0.325,1.998-0.856 c0.856-0.969,0.938-2.59,0.854-3.78l-0.763-8.348c-0.034-0.379,0.24-0.716,0.618-0.759c0.02-0.002,1.91-0.221,3.674-0.705 c0.242-0.066,0.39-0.213,0.478-0.474c0.215-0.637-0.047-1.589-0.314-1.939l-4.884-7.688c-0.137-0.214-0.146-0.485-0.024-0.709 c0.058-0.106,0.121-0.215,0.187-0.327c0.461-0.792,0.984-1.689,0.3-3.737c-3.231-8.885-10.354-12.42-23.11-11.438 c-7.913,0.608-12.802,6.121-14.947,16.852c-0.884,4.419,1.676,9.917,4.429,13.156c2.826,3.325,3.833,7.622,3.833,10.534v6.415 c0,0.387-0.313,0.7-0.7,0.7s-0.7-0.313-0.7-0.7v-6.415c0-0.92-0.168-5.708-3.499-9.628c-3.063-3.604-5.716-9.435-4.735-14.337 c2.253-11.271,7.708-17.318,16.212-17.974c13.483-1.036,21.05,2.78,24.54,12.373c0.87,2.604,0.142,3.949-0.376,4.841l4.623,7.281 c0.506,0.659,0.861,2.098,0.493,3.187c-0.235,0.698-0.744,1.187-1.433,1.376c-1.22,0.335-2.465,0.547-3.208,0.655l0.703,7.694 c0.147,2.104-0.268,3.766-1.201,4.82c-0.721,0.815-1.722,1.262-2.974,1.327c-2.117,0.11-5.261,0.055-6.667,0.02v8.445 C62.222,77.873,61.908,78.187,61.521,78.187z"/><path fill="#afabd4" d="M49.655,55.53c-0.79-0.224-1.552-0.535-2.278-0.928c0.406-1.37,0.087-2.605-0.938-3.603 c-0.704-0.684-1.518-1.03-2.42-1.03c-0.372,0-0.756,0.061-1.15,0.181c-0.401-0.718-0.72-1.472-0.954-2.253 c1.292-0.69,1.953-1.809,1.918-3.265c-0.033-1.395-0.708-2.455-1.962-3.1c0.223-0.785,0.53-1.543,0.919-2.265 c0.409,0.13,0.809,0.195,1.193,0.195c0.928,0,1.761-0.368,2.474-1.093c1.007-1.024,1.292-2.275,0.838-3.647 c0.707-0.392,1.461-0.707,2.255-0.943c0.667,1.297,1.753,1.979,3.173,1.979c0.109,0,0.222-0.005,0.336-0.013 c1.318-0.097,2.314-0.777,2.911-1.981c0.781,0.227,1.537,0.539,2.258,0.934c-0.447,1.395-0.147,2.654,0.884,3.671 c0.708,0.7,1.528,1.056,2.438,1.056c0.394,0,0.8-0.068,1.214-0.204c0.313,0.58,0.733,1.582,0.93,2.256 c-1.31,0.687-1.981,1.809-1.951,3.274c0.029,1.377,0.692,2.436,1.929,3.093c-0.229,0.782-0.546,1.539-0.943,2.26 c-0.393-0.115-0.775-0.173-1.143-0.173c-1.027,0-1.924,0.437-2.663,1.298c-0.822,0.96-1.053,2.106-0.679,3.347 c-0.721,0.396-1.481,0.711-2.272,0.941c-0.646-1.196-1.808-1.896-3.188-1.896C51.455,53.637,50.291,54.37,49.655,55.53z M52.778,41.887c-1.518,0-2.758,1.23-2.766,2.742c-0.003,0.738,0.282,1.433,0.802,1.956c0.52,0.523,1.213,0.813,1.953,0.816 c1.512-0.008,2.723-1.184,2.766-2.678c0.021-0.747-0.252-1.455-0.771-1.993c-0.517-0.537-1.212-0.837-1.957-0.844 C52.803,41.887,52.781,41.887,52.778,41.887z"/><path fill="#472b29" d="M56.294,34.603c0.381,0.132,0.754,0.286,1.119,0.462c-0.278,1.423,0.133,2.742,1.206,3.802 c0.833,0.823,1.847,1.258,2.932,1.258c0.277,0,0.558-0.028,0.842-0.084c0.161,0.351,0.329,0.761,0.462,1.126 c-1.209,0.829-1.843,2.072-1.811,3.599c0.03,1.43,0.657,2.598,1.794,3.387c-0.137,0.39-0.296,0.773-0.479,1.146 c-0.261-0.045-0.519-0.068-0.772-0.068c-1.223,0-2.328,0.533-3.194,1.542c-0.848,0.987-1.171,2.175-0.953,3.431 c-0.379,0.184-0.768,0.345-1.166,0.482c-0.807-1.11-2.069-1.767-3.491-1.767c-0.006,0-0.053,0-0.059,0 c-1.348,0.017-2.581,0.69-3.373,1.784c-0.399-0.134-0.788-0.292-1.169-0.475c0.239-1.399-0.188-2.693-1.255-3.731 c-0.826-0.803-1.832-1.228-2.908-1.228c-0.258,0-0.521,0.024-0.786,0.073c-0.184-0.371-0.345-0.749-0.482-1.137 c1.194-0.831,1.819-2.071,1.783-3.589c-0.034-1.448-0.674-2.622-1.83-3.402c0.131-0.385,0.283-0.762,0.458-1.13 c0.278,0.053,0.552,0.08,0.822,0.08c1.107,0,2.135-0.451,2.973-1.302c1.048-1.065,1.441-2.374,1.159-3.776 c0.361-0.176,0.735-0.332,1.12-0.467c0.804,1.196,2.009,1.84,3.49,1.84c0.126,0,0.255-0.005,0.387-0.015 C54.47,36.344,55.566,35.702,56.294,34.603 M52.771,48.101c0.002,0,0.005,0,0.007,0c1.884-0.01,3.401-1.485,3.455-3.357 c0.027-0.937-0.316-1.825-0.965-2.499c-0.648-0.674-1.52-1.049-2.489-1.058c-1.902,0-3.456,1.542-3.465,3.438 c-0.009,1.907,1.539,3.467,3.451,3.476C52.766,48.101,52.768,48.101,52.771,48.101 M55.558,32.935 c-0.426,1.24-1.253,2.018-2.55,2.113c-0.097,0.007-0.192,0.011-0.284,0.011c-1.376,0-2.282-0.781-2.776-2.112 c-1.261,0.309-2.436,0.796-3.526,1.479c0.6,1.267,0.522,2.452-0.464,3.454c-0.596,0.606-1.262,0.884-1.975,0.884 c-0.481,0-0.984-0.127-1.501-0.365c-0.668,1.1-1.148,2.276-1.436,3.537c1.282,0.47,2.055,1.35,2.088,2.713 c0.034,1.419-0.731,2.347-2.048,2.859c0.303,1.25,0.798,2.413,1.48,3.502c0.5-0.223,0.987-0.341,1.454-0.341 c0.695,0,1.346,0.262,1.932,0.832c0.999,0.972,1.12,2.146,0.568,3.414c1.1,0.669,2.271,1.147,3.523,1.437 c0.019-0.037,0.033-0.06,0.042-0.083c0.453-1.18,1.481-1.935,2.657-1.949c0.014,0,0.027,0,0.041,0 c1.239,0,2.264,0.699,2.74,1.884c0.035,0.088,0.074,0.115,0.13,0.115c0.027,0,0.058-0.006,0.095-0.016 c1.133-0.287,2.202-0.728,3.206-1.326c0.055-0.033,0.107-0.07,0.15-0.099c-0.51-1.151-0.464-2.243,0.352-3.193 c0.619-0.722,1.34-1.055,2.132-1.055c0.462,0,0.948,0.113,1.453,0.328c0.676-1.094,1.164-2.26,1.461-3.507 c-1.263-0.484-2.028-1.35-2.057-2.715c-0.03-1.439,0.749-2.35,2.053-2.855c-0.08-0.787-0.995-2.995-1.458-3.521 c-0.509,0.238-1.008,0.365-1.487,0.365c-0.699,0-1.356-0.269-1.948-0.854c-1.014-1-1.094-2.198-0.505-3.477 C57.998,33.717,56.819,33.228,55.558,32.935L55.558,32.935z M52.77,46.701c-1.142-0.005-2.063-0.931-2.057-2.069 c0.005-1.134,0.924-2.045,2.065-2.045c0.007,0,0.014,0,0.021,0c1.15,0.011,2.067,0.964,2.034,2.117 C54.803,45.777,53.93,46.695,52.77,46.701L52.77,46.701z"/><path fill="#7777ab" d="M59.992,42.806c-1.015-3.987-5.07-6.396-9.056-5.381c-3.987,1.015-6.396,5.07-5.381,9.056 c1.015,3.987,5.07,6.396,9.056,5.381S61.007,46.793,59.992,42.806z M54.241,50.408c-3.184,0.811-6.422-1.113-7.232-4.297 c-0.811-3.184,1.113-6.422,4.297-7.232c3.184-0.811,6.422,1.113,7.232,4.297S57.425,49.598,54.241,50.408z"/><path fill="#472b29" d="M46.743 44.894c-.138 0-.25-.112-.25-.25 0-3.463 2.817-6.28 6.28-6.28.931 0 1.829.2 2.669.594.125.059.179.208.12.333-.06.125-.211.177-.333.12-.772-.363-1.6-.547-2.456-.547-3.187 0-5.78 2.593-5.78 5.78C46.993 44.781 46.881 44.894 46.743 44.894zM52.772 50.924c-2.759 0-5.167-1.768-5.993-4.397-.041-.132.032-.272.164-.313.132-.04.272.033.313.163.759 2.421 2.976 4.048 5.515 4.048 1.306 0 2.537-.425 3.563-1.229.108-.086.266-.066.352.043.085.108.065.266-.043.352C55.529 50.462 54.19 50.924 52.772 50.924zM57.485 48.656c-.055 0-.11-.018-.156-.055-.107-.086-.125-.244-.039-.352.826-1.032 1.263-2.279 1.263-3.606 0-.728-.133-1.437-.395-2.105-.051-.128.013-.273.142-.323.127-.051.273.013.323.142.285.727.43 1.497.43 2.287 0 1.442-.475 2.797-1.372 3.919C57.631 48.624 57.559 48.656 57.485 48.656z"/><g><path fill="#472b29" d="M57.741,41.475c-0.079,0-0.157-0.038-0.206-0.108c-0.313-0.452-0.688-0.858-1.116-1.208 c-0.106-0.087-0.123-0.244-0.035-0.352c0.086-0.108,0.244-0.122,0.352-0.035c0.465,0.379,0.872,0.819,1.212,1.312 c0.078,0.113,0.05,0.269-0.064,0.348C57.84,41.46,57.79,41.475,57.741,41.475z"/></g><g><path fill="#fed5b3" d="M54.878,66.058c1.126,0.604,2.609,1.197,4.429,1.5"/><path fill="#472b29" d="M59.308,68.059c-0.027,0-0.056-0.002-0.083-0.007c-1.625-0.271-3.167-0.793-4.583-1.553 c-0.243-0.13-0.335-0.434-0.204-0.677c0.13-0.244,0.435-0.336,0.677-0.204c1.319,0.707,2.758,1.194,4.274,1.447 c0.272,0.046,0.457,0.303,0.411,0.575C59.759,67.886,59.547,68.059,59.308,68.059z"/></g><g><path fill="#fed5b3" d="M52.281,64.198c0,0,0.344,0.365,1.015,0.862"/><path fill="#472b29" d="M53.296,65.56c-0.104,0-0.208-0.032-0.298-0.098c-0.699-0.518-1.066-0.904-1.081-0.921 c-0.189-0.2-0.181-0.516,0.02-0.705c0.2-0.191,0.517-0.181,0.707,0.019c0.003,0.003,0.328,0.344,0.95,0.803 c0.222,0.165,0.269,0.478,0.104,0.7C53.6,65.489,53.448,65.56,53.296,65.56z"/></g><g><path fill="#fed5b3" d="M45.388,29.871c-1.449,0.535-3.079,1.407-4.43,2.824"/><path fill="#472b29" d="M40.958,32.945c-0.062,0-0.124-0.022-0.172-0.069c-0.1-0.095-0.104-0.253-0.009-0.354 c1.186-1.244,2.708-2.215,4.524-2.886c0.127-0.048,0.273,0.019,0.321,0.147c0.048,0.13-0.018,0.273-0.148,0.321 c-1.744,0.645-3.203,1.574-4.335,2.763C41.09,32.919,41.024,32.945,40.958,32.945z"/></g><g><path fill="#fed5b3" d="M49.149,29.029c0,0-0.705,0.033-1.76,0.261c-0.29,0.063-0.607,0.14-0.943,0.236"/><path fill="#472b29" d="M46.446,29.775c-0.109,0-0.209-0.071-0.24-0.182c-0.038-0.133,0.039-0.271,0.172-0.309 c0.342-0.098,0.664-0.176,0.959-0.239c1.062-0.229,1.771-0.265,1.8-0.267c0.136-0.009,0.255,0.101,0.261,0.238 c0.007,0.138-0.1,0.255-0.238,0.262c-0.007,0-0.7,0.035-1.718,0.255c-0.286,0.062-0.597,0.138-0.928,0.231 C46.491,29.772,46.468,29.775,46.446,29.775z"/></g></g><g><path fill="#fdfcef" d="M29.5,77.5c0,0-1.567,0-3.5,0s-3.5-1.567-3.5-3.5c0-1.781,1.335-3.234,3.055-3.455 C25.527,70.366,25.5,70.187,25.5,70c0-1.933,1.567-3.5,3.5-3.5c1.032,0,1.95,0.455,2.59,1.165c0.384-1.808,1.987-3.165,3.91-3.165 c2.209,0,4,1.791,4,4c0,0.191-0.03,0.374-0.056,0.558C39.872,68.714,40.408,68.5,41,68.5c1.228,0,2.245,0.887,2.455,2.055 C43.634,70.527,43.813,70.5,44,70.5c1.933,0,3.5,1.567,3.5,3.5s-1.567,3.5-3.5,3.5s-7.5,0-7.5,0V78h-7V77.5z"/><path fill="#472b29" d="M27.75 73c.138 0 .25-.112.25-.25 0-1.223-.995-2.218-2.218-2.218-.034.009-.737-.001-1.244.136-.133.036-.212.173-.176.306.036.134.173.213.306.176.444-.12 1.1-.12 1.113-.118.948 0 1.719.771 1.719 1.718C27.5 72.888 27.612 73 27.75 73zM34.5 77A.5.5 0 1 0 34.5 78 .5.5 0 1 0 34.5 77z"/><path fill="#472b29" d="M26,78h3.5c0.276,0,0.5-0.224,0.5-0.5S29.776,77,29.5,77H26c-1.654,0-3-1.346-3-3 c0-1.496,1.125-2.768,2.618-2.959c0.134-0.018,0.255-0.088,0.336-0.196s0.115-0.244,0.094-0.377C26.025,70.314,26,70.16,26,70 c0-1.654,1.346-3,3-3c0.85,0,1.638,0.355,2.219,1c0.125,0.139,0.321,0.198,0.5,0.148c0.182-0.049,0.321-0.195,0.36-0.379 C32.42,66.165,33.859,65,35.5,65c1.93,0,3.5,1.57,3.5,3.5c0,0.143-0.021,0.28-0.041,0.418c-0.029,0.203,0.063,0.438,0.242,0.54 c0.179,0.102,0.396,0.118,0.556-0.01C40.122,69.155,40.551,69,41,69c0.966,0,1.792,0.691,1.963,1.644 c0.048,0.267,0.296,0.446,0.569,0.405C43.686,71.025,43.84,71,44,71c1.654,0,3,1.346,3,3s-1.346,3-3,3h-7.5 c-0.276,0-0.5,0.224-0.5,0.5s0.224,0.5,0.5,0.5H44c2.206,0,4-1.794,4-4s-1.794-4-4-4c-0.059,0-0.116,0.002-0.174,0.006 C43.412,68.82,42.289,68,41,68c-0.349,0-0.689,0.061-1.011,0.18C39.824,65.847,37.874,64,35.5,64 c-1.831,0-3.466,1.127-4.153,2.774C30.667,66.276,29.845,66,29,66c-2.206,0-4,1.794-4,4c0,0.048,0.001,0.095,0.004,0.142 C23.261,70.59,22,72.169,22,74C22,76.206,23.794,78,26,78z"/><path fill="#472b29" d="M31.5,77c0.159,0,0.841,0,1,0c0.276,0,0.5,0.224,0.5,0.5c0,0.276-0.224,0.5-0.5,0.5 c-0.159,0-0.841,0-1,0c-0.276,0-0.5-0.224-0.5-0.5C31,77.224,31.224,77,31.5,77z"/></g></svg>