<svg xmlns="http://www.w3.org/2000/svg"  viewBox="0 0 100 100" width="500px" height="500px"><path fill="#c7ede6" d="M87.215,56.711C88.352,54.555,89,52.105,89,49.5c0-6.621-4.16-12.258-10-14.477 c0-0.008,0-0.016,0-0.023c0-11.598-9.402-21-21-21c-9.785,0-17.98,6.699-20.313,15.758C36.211,29.273,34.637,29,33,29 c-7.691,0-14.023,5.793-14.891,13.254C12.906,43.352,9,47.969,9,53.5C9,59.852,14.148,65,20.5,65c0.176,0,0.352-0.012,0.527-0.023 C21.023,65.152,21,65.324,21,65.5C21,76.82,30.18,86,41.5,86c6.437,0,12.176-2.973,15.934-7.613C59.613,80.609,62.641,82,66,82 c4.648,0,8.676-2.648,10.664-6.52C77.719,75.816,78.836,76,80,76c6.074,0,11-4.926,11-11C91,61.687,89.531,58.727,87.215,56.711z"/><path fill="#fdfcef" d="M71.125,54.5c0,0-3.641,0-6.125,0s-4.5-2.016-4.5-4.5c0-2.332,1.781-4.23,4.055-4.453 C64.531,45.363,64.5,45.187,64.5,45c0-2.484,2.016-4.5,4.5-4.5c1.437,0,2.703,0.688,3.527,1.734 c0.141-2.633,2.301-4.734,4.973-4.734c2.762,0,5,2.238,5,5c0,0.445-0.078,0.871-0.188,1.281C82.953,43.004,83.914,42.5,85,42.5 c1.781,0,3.234,1.336,3.453,3.055C88.637,45.531,88.812,45.5,89,45.5c2.484,0,4.5,2.016,4.5,4.5s-2.016,4.5-4.5,4.5s-9.5,0-9.5,0 h-5.375V55h-3V54.5z"/><path fill="#472b29" d="M77.5,37c3.031,0,5.5,2.469,5.5,5.5c0,0.016,0,0.031,0,0.047C83.602,42.191,84.289,42,85,42 c1.832,0,3.41,1.262,3.859,3.004C88.906,45.004,88.953,45,89,45c2.758,0,5,2.242,5,5s-2.242,5-5,5H74.125 c-0.277,0-0.5-0.223-0.5-0.5s0.223-0.5,0.5-0.5H89c2.207,0,4-1.793,4-4s-1.793-4-4-4c-0.117,0-0.23,0.016-0.344,0.031l-0.141,0.02 c-0.02,0.004-0.039,0.004-0.063,0.004c-0.246,0-0.461-0.184-0.492-0.438C87.77,44.125,86.496,43,85,43 c-0.887,0-1.723,0.402-2.301,1.102c-0.098,0.117-0.242,0.18-0.387,0.18c-0.078,0-0.156-0.016-0.227-0.055 c-0.211-0.109-0.316-0.348-0.254-0.574C81.945,43.219,82,42.852,82,42.5c0-2.48-2.02-4.5-4.5-4.5 c-2.383,0-4.348,1.871-4.473,4.262c-0.012,0.211-0.152,0.387-0.352,0.453c-0.047,0.016-0.102,0.023-0.152,0.023 c-0.148,0-0.293-0.07-0.391-0.191C71.363,41.562,70.223,41,69,41c-2.207,0-4,1.793-4,4c0,0.117,0.016,0.23,0.031,0.344l0.02,0.141 c0.016,0.133-0.023,0.27-0.105,0.371c-0.086,0.105-0.207,0.172-0.34,0.188C62.551,46.246,61,47.949,61,50c0,2.207,1.793,4,4,4 h6.125c0.277,0,0.5,0.223,0.5,0.5s-0.223,0.5-0.5,0.5H65c-2.758,0-5-2.242-5-5c0-2.398,1.687-4.414,4.004-4.879 C64,45.082,64,45.039,64,45c0-2.758,2.242-5,5-5c1.176,0,2.293,0.414,3.184,1.164C72.781,38.762,74.945,37,77.5,37z"/><path fill="#472b29" d="M79,44c1.402,0,2.609,1,2.914,2.34c0.367-0.223,0.785-0.34,1.211-0.34 c1.203,0,2.199,0.898,2.352,2.066C85.68,48.023,85.875,48,86.062,48c1.531,0,2.813,1.199,2.918,2.73 c0.008,0.141-0.094,0.258-0.23,0.27c-0.008,0-0.012,0-0.02,0c-0.129,0-0.238-0.102-0.25-0.23c-0.086-1.273-1.148-2.27-2.418-2.27 c-0.227,0-0.469,0.043-0.738,0.129c-0.02,0.004-0.043,0.008-0.066,0.008c-0.055,0-0.109-0.02-0.156-0.055 C85.039,48.535,85,48.453,85,48.375c0-1.035-0.84-1.875-1.875-1.875c-0.445,0-0.887,0.168-1.23,0.473 c-0.047,0.043-0.105,0.063-0.164,0.063c-0.035,0-0.066-0.004-0.094-0.02c-0.09-0.035-0.148-0.117-0.156-0.211 C81.379,45.512,80.289,44.5,79,44.5c-0.207,0-0.426,0.035-0.684,0.105c-0.02,0.008-0.047,0.012-0.07,0.012 c-0.105,0-0.207-0.074-0.238-0.184c-0.035-0.133,0.039-0.27,0.172-0.309C78.484,44.039,78.742,44,79,44z M65.117,45.5 c1.324,0,2.508,0.898,2.875,2.184c0.035,0.133-0.039,0.27-0.172,0.309C67.797,47.996,67.773,48,67.75,48 c-0.109,0-0.211-0.07-0.238-0.184C67.203,46.746,66.223,46,65.117,46c-0.117,0-0.23,0.016-0.344,0.027 c-0.012,0.004-0.02,0.004-0.035,0.004c-0.121,0-0.227-0.09-0.246-0.215c-0.016-0.137,0.078-0.266,0.215-0.281 C64.844,45.516,64.977,45.5,65.117,45.5z"/><path fill="#fff" d="M17.406,49H7.5C7.223,49,7,48.777,7,48.5S7.223,48,7.5,48h9.906c0.273,0,0.5,0.223,0.5,0.5 S17.684,49,17.406,49z M20.5,49h-1c-0.277,0-0.5-0.223-0.5-0.5s0.223-0.5,0.5-0.5h1c0.277,0,0.5,0.223,0.5,0.5S20.777,49,20.5,49z M25.492,51H16.5c-0.277,0-0.5-0.223-0.5-0.5s0.223-0.5,0.5-0.5h8.992c0.273,0,0.5,0.223,0.5,0.5S25.766,51,25.492,51z M14.5,51h-1 c-0.277,0-0.5-0.223-0.5-0.5s0.223-0.5,0.5-0.5h1c0.277,0,0.5,0.223,0.5,0.5S14.777,51,14.5,51z M11.5,51h-2 C9.223,51,9,50.777,9,50.5S9.223,50,9.5,50h2c0.277,0,0.5,0.223,0.5,0.5S11.777,51,11.5,51z M17.5,53h-2 c-0.277,0-0.5-0.223-0.5-0.5s0.223-0.5,0.5-0.5h2c0.277,0,0.5,0.223,0.5,0.5S17.777,53,17.5,53z M20.5,44c-0.176,0-0.824,0-1,0 c-0.277,0-0.5,0.223-0.5,0.5s0.223,0.5,0.5,0.5c0.176,0,0.824,0,1,0c0.277,0,0.5-0.223,0.5-0.5S20.777,44,20.5,44z M20.5,46 c-0.176,0-4.824,0-5,0c-0.277,0-0.5,0.223-0.5,0.5s0.223,0.5,0.5,0.5c0.176,0,4.824,0,5,0c0.277,0,0.5-0.223,0.5-0.5 S20.777,46,20.5,46z M25.5,48c-0.176,0-2.824,0-3,0c-0.277,0-0.5,0.223-0.5,0.5s0.223,0.5,0.5,0.5c0.176,0,2.824,0,3,0 c0.277,0,0.5-0.223,0.5-0.5S25.777,48,25.5,48z M70.5,20h-10c-0.277,0-0.5-0.223-0.5-0.5s0.223-0.5,0.5-0.5h10 c0.277,0,0.5,0.223,0.5,0.5S70.777,20,70.5,20z M74.5,20h-2c-0.277,0-0.5-0.223-0.5-0.5s0.223-0.5,0.5-0.5h2 c0.277,0,0.5,0.223,0.5,0.5S74.777,20,74.5,20z M79.5,22h-10c-0.277,0-0.5-0.223-0.5-0.5s0.223-0.5,0.5-0.5h10 c0.277,0,0.5,0.223,0.5,0.5S79.777,22,79.5,22z M67.5,22h-1c-0.277,0-0.5-0.223-0.5-0.5s0.223-0.5,0.5-0.5h1 c0.277,0,0.5,0.223,0.5,0.5S67.777,22,67.5,22z M64.375,22H62.5c-0.277,0-0.5-0.223-0.5-0.5s0.223-0.5,0.5-0.5h1.875 c0.277,0,0.5,0.223,0.5,0.5S64.652,22,64.375,22z M73.5,18h-5c-0.277,0-0.5-0.223-0.5-0.5s0.223-0.5,0.5-0.5h5 c0.277,0,0.5,0.223,0.5,0.5S73.777,18,73.5,18z M70.5,24h-2c-0.277,0-0.5-0.223-0.5-0.5s0.223-0.5,0.5-0.5h2 c0.277,0,0.5,0.223,0.5,0.5S70.777,24,70.5,24z"/><path fill="#fbcd59" d="M51,76.82c-1.035,0-2.02-0.379-2.77-1.066l-0.215-0.199c-0.625-0.586-1.406-1.316-2.352-1.316 H31.687c-0.559,0-0.996-0.383-0.996-0.871l0.008-25.465c0-0.516,0.441-0.938,0.98-0.938H70.32c0.539,0,0.98,0.422,0.98,0.938 l-0.008,25.461c0,0.52-0.441,0.938-0.98,0.938h-13.98c-0.98,0-1.797,0.746-2.453,1.348l-0.109,0.105 C53.016,76.441,52.031,76.82,51,76.82z"/><path fill="#472b29" d="M70.32,47.668c0.152,0,0.281,0.105,0.281,0.234l-0.008,25.465c0,0.125-0.129,0.234-0.281,0.234 h-13.98c-1.258,0-2.219,0.883-2.926,1.531l-0.113,0.102c-0.621,0.574-1.438,0.887-2.293,0.887c-0.859,0-1.676-0.313-2.301-0.887 l-0.203-0.188c-0.68-0.637-1.609-1.508-2.832-1.508H31.687c-0.141,0-0.293-0.07-0.293-0.172l0.004-25.465 c0-0.129,0.129-0.234,0.281-0.234H70.32 M70.32,46.266H31.68C30.754,46.266,30,47,30,47.902l-0.008,25.465 c0,0.902,0.77,1.57,1.695,1.57h13.977c0.762,0,1.496,0.789,2.094,1.332c0.883,0.809,2.031,1.254,3.242,1.254 c1.207,0,2.359-0.445,3.242-1.254c0.594-0.547,1.332-1.27,2.09-1.27h13.98c0.926,0,1.68-0.734,1.68-1.633L72,47.902 C72,47,71.246,46.266,70.32,46.266z"/><path fill="#472b29" d="M51.134,69.762c-1.178,0-2.134,0.953-2.134,2.132c0,1.178,0.956,2.134,2.134,2.134 s2.131-0.956,2.131-2.134C53.266,70.715,52.312,69.762,51.134,69.762z"/><path fill="#fffef4" d="M33.699,71.301V47.945l1.398-3.477c0.164-0.41,0.574-0.672,1.039-0.672 c6.211,0.012,10.676,1.094,13.984,2.965l0.309,0.176h1.105l0.285-0.145c3.563-1.797,8.156-2.914,13.961-2.984 c0.523,0,0.969,0.285,1.156,0.746l1.359,3.391v23.355H33.699z"/><path fill="#472b29" d="M36.137,44.496c6.098,0.012,10.434,1.063,13.645,2.879l0.145,0.082l0.32,0.18h1.457L52,47.488 l0.137-0.07c3.473-1.75,7.953-2.84,13.637-2.91c0.242,0,0.438,0.113,0.512,0.309l1.313,3.266v22.52H34.398v-22.52l1.348-3.352 C35.805,44.586,35.953,44.496,36.137,44.496 M36.137,43.098c-0.754,0-1.418,0.434-1.688,1.113L33,47.812V72h36V47.812 l-1.414-3.516c-0.289-0.723-0.992-1.188-1.813-1.188c-5.906,0.074-10.613,1.215-14.27,3.063l-0.137,0.066h-0.754l-0.145-0.082 C47.055,44.223,42.469,43.109,36.137,43.098z"/><path fill="#bebacb" d="M66.047,67.793l-14.996,0.801l-15.047-0.801l-1.68,2.957h33.398L66.047,67.793z"/><path fill="#472b29" d="M53.668,49.285c-0.09,0-0.172-0.051-0.207-0.137c-0.051-0.113,0.008-0.246,0.121-0.293 c3.504-1.453,6.164-2.082,9.902-1.887c0.125,0.004,0.219,0.109,0.211,0.234c-0.004,0.125-0.086,0.227-0.234,0.211 c-3.672-0.191-6.27,0.43-9.707,1.855C53.727,49.281,53.699,49.285,53.668,49.285z"/><path fill="#472b29" d="M63.473,51.18c-0.004,0-0.008,0-0.012,0c-0.789-0.043-1.59-0.051-2.371-0.016 c-0.004,0-0.008,0-0.012,0c-0.117,0-0.219-0.094-0.223-0.215c-0.008-0.125,0.09-0.23,0.215-0.234 c0.801-0.035,1.609-0.027,2.414,0.016c0.125,0.004,0.219,0.113,0.211,0.234C63.691,51.086,63.594,51.18,63.473,51.18z"/><path fill="#472b29" d="M58.117,51.66c-0.102,0-0.195-0.07-0.219-0.176c-0.027-0.121,0.051-0.242,0.172-0.266 c0.59-0.125,1.195-0.23,1.797-0.313c0.133-0.008,0.238,0.07,0.254,0.195c0.016,0.121-0.07,0.234-0.191,0.254 c-0.594,0.078-1.188,0.18-1.766,0.301C58.148,51.66,58.133,51.66,58.117,51.66z"/><path fill="#472b29" d="M53.668,53.047c-0.09,0-0.172-0.051-0.207-0.137c-0.051-0.113,0.008-0.246,0.121-0.293 c1.027-0.426,2.078-0.785,3.125-1.07c0.121-0.031,0.242,0.039,0.277,0.156c0.031,0.121-0.039,0.246-0.16,0.277 c-1.027,0.281-2.063,0.633-3.07,1.051C53.727,53.043,53.699,53.047,53.668,53.047z"/><path fill="#472b29" d="M53.668,56.934c-0.09,0-0.172-0.051-0.207-0.137c-0.051-0.113,0.008-0.246,0.121-0.293 c3.5-1.453,6.172-2.086,9.902-1.891c0.125,0.008,0.219,0.113,0.211,0.238c-0.004,0.125-0.086,0.227-0.234,0.211 c-3.664-0.199-6.27,0.43-9.707,1.855C53.727,56.93,53.699,56.934,53.668,56.934z"/><path fill="#472b29" d="M57.523,59.445c-0.102,0-0.195-0.07-0.219-0.176c-0.027-0.121,0.047-0.242,0.168-0.27 c2.281-0.539,3.641-0.746,6.016-0.621c0.121,0.004,0.215,0.109,0.211,0.234c-0.008,0.125-0.086,0.227-0.238,0.211 c-2.332-0.125-3.648,0.082-5.883,0.613C57.559,59.441,57.539,59.445,57.523,59.445z"/><path fill="#472b29" d="M53.668,60.695c-0.09,0-0.172-0.051-0.207-0.137c-0.051-0.117,0.008-0.246,0.121-0.293 c0.656-0.273,1.328-0.52,1.992-0.734c0.121-0.035,0.242,0.027,0.281,0.145c0.039,0.121-0.027,0.246-0.145,0.285 c-0.652,0.207-1.313,0.449-1.957,0.719C53.727,60.691,53.699,60.695,53.668,60.695z"/><path fill="#472b29" d="M53.668,64.582c-0.09,0-0.172-0.051-0.207-0.137c-0.051-0.117,0.008-0.246,0.121-0.293 c3.184-1.32,5.766-1.855,9.957-1.629c0.121,0.008,0.219,0.113,0.211,0.238c-0.008,0.121-0.105,0.211-0.227,0.211 c-0.004,0-0.008,0-0.012,0c-4.117-0.227-6.641,0.301-9.758,1.594C53.727,64.578,53.699,64.582,53.668,64.582z"/><path fill="#472b29" d="M42.352,47.562c-0.008,0-0.02-0.004-0.027-0.004c-1.402-0.172-1.844-0.223-3.277-0.145 c-0.141,0.012-0.23-0.086-0.238-0.211c-0.004-0.121,0.09-0.23,0.211-0.234c1.465-0.078,1.934-0.031,3.359,0.145 c0.125,0.016,0.211,0.129,0.195,0.25C42.562,47.477,42.465,47.562,42.352,47.562z"/><path fill="#472b29" d="M45.508,48.164c-0.02,0-0.039-0.004-0.059-0.008c-0.52-0.133-1.047-0.254-1.57-0.355 c-0.121-0.023-0.203-0.141-0.18-0.262c0.023-0.125,0.141-0.207,0.262-0.18c0.535,0.102,1.074,0.223,1.602,0.359 c0.121,0.031,0.195,0.156,0.164,0.277C45.699,48.098,45.609,48.164,45.508,48.164z"/><path fill="#472b29" d="M48.84,49.285c-0.031,0-0.059-0.004-0.086-0.016c-0.652-0.27-1.313-0.512-1.965-0.723 c-0.117-0.039-0.184-0.164-0.145-0.281c0.039-0.121,0.168-0.18,0.281-0.148c0.664,0.215,1.336,0.461,2,0.734 c0.113,0.051,0.168,0.18,0.121,0.293C49.008,49.234,48.926,49.285,48.84,49.285z"/><path fill="#472b29" d="M48.84,53.234c-0.031,0-0.059-0.004-0.086-0.016c-3.441-1.426-6.039-2.047-9.707-1.855 c-0.125,0.016-0.23-0.09-0.238-0.211c-0.004-0.125,0.09-0.23,0.211-0.238c3.738-0.199,6.402,0.438,9.906,1.891 c0.113,0.047,0.168,0.18,0.121,0.293C49.008,53.184,48.926,53.234,48.84,53.234z"/><path fill="#472b29" d="M40.996,55.082c-0.004,0-0.008,0-0.016,0c-0.965-0.066-0.953-0.07-1.934-0.02 c-0.125-0.004-0.23-0.086-0.238-0.211c-0.008-0.121,0.09-0.23,0.211-0.238c1.004-0.051,1.008-0.047,1.992,0.02 c0.125,0.008,0.219,0.117,0.207,0.238C41.211,54.992,41.113,55.082,40.996,55.082z"/><path fill="#472b29" d="M48.84,56.934c-0.031,0-0.059-0.004-0.086-0.016c-1.777-0.738-3.609-1.266-5.445-1.57 c-0.125-0.02-0.207-0.133-0.188-0.258c0.02-0.121,0.133-0.203,0.262-0.184c1.871,0.309,3.734,0.848,5.543,1.598 c0.113,0.047,0.168,0.18,0.121,0.293C49.008,56.883,48.926,56.934,48.84,56.934z"/><path fill="#472b29" d="M48.84,60.383c-0.031,0-0.059-0.004-0.086-0.016c-3.441-1.426-6.043-2.051-9.707-1.855 c-0.125,0.004-0.23-0.086-0.238-0.211c-0.008-0.121,0.09-0.23,0.211-0.238c3.727-0.195,6.402,0.434,9.906,1.891 c0.113,0.047,0.168,0.176,0.121,0.293C49.008,60.332,48.926,60.383,48.84,60.383z"/><path fill="#472b29" d="M45.008,63.418c-0.016,0-0.031,0-0.043-0.004c-2.129-0.434-3.41-0.578-5.973-0.441 c-0.113,0-0.227-0.086-0.234-0.211s0.086-0.23,0.211-0.238c2.598-0.137,3.918,0.008,6.086,0.449 c0.121,0.023,0.199,0.145,0.172,0.266C45.207,63.344,45.113,63.418,45.008,63.418z"/><path fill="#472b29" d="M48.84,64.582c-0.031,0-0.059-0.004-0.086-0.016c-0.598-0.25-1.223-0.473-1.852-0.664 c-0.121-0.035-0.188-0.16-0.152-0.281c0.039-0.117,0.16-0.18,0.281-0.148c0.645,0.195,1.281,0.426,1.891,0.68 c0.113,0.047,0.172,0.176,0.121,0.293C49.008,64.531,48.926,64.582,48.84,64.582z"/><path fill="#472b29" d="M51.023,69.77c-0.039,0-0.082-0.004-0.125-0.016c-4.652-1.223-9.004-1.816-14.895-1.781 c-0.137-0.043-0.262-0.051-0.355-0.148c-0.098-0.094-0.148-0.219-0.148-0.352V44.098h1v22.871c0.012,0,0.027,0,0.039,0 c5.508,0,9.543,0.559,13.984,1.656V46.797h1V69.27c0,0.156-0.07,0.301-0.191,0.395C51.242,69.734,51.137,69.77,51.023,69.77z"/><path fill="#472b29" d="M51.023,69.77c-0.109,0-0.215-0.035-0.305-0.105c-0.121-0.094-0.195-0.238-0.195-0.395V46.793h1 v21.832c4.43-1.098,8.449-1.656,13.938-1.656c0.016,0,0.027,0,0.039,0V44.098h1v23.375c0,0.133-0.055,0.262-0.148,0.352 c-0.094,0.098-0.219,0.148-0.352,0.148h-0.004c-5.871-0.02-10.207,0.559-14.844,1.781C51.109,69.766,51.066,69.77,51.023,69.77z"/><g><path fill="#472b29" d="M53.501,42c-0.021,0-0.042-0.001-0.063-0.004c-0.273-0.034-0.468-0.284-0.434-0.559l2-16 c0.033-0.275,0.284-0.474,0.559-0.434c0.273,0.034,0.468,0.284,0.434,0.559l-2,16C53.965,41.815,53.749,42,53.501,42z"/><path fill="#472b29" d="M46.803,28.431c-0.248,0-0.464-0.185-0.495-0.438l-0.304-2.431 c-0.034-0.273,0.16-0.523,0.435-0.558c0.256-0.04,0.523,0.158,0.558,0.435l0.304,2.431c0.034,0.273-0.16,0.523-0.435,0.558 C46.845,28.43,46.824,28.431,46.803,28.431z"/><path fill="#472b29" d="M48.499,42c-0.248,0-0.464-0.185-0.495-0.438l-0.413-3.308c-0.034-0.273,0.16-0.523,0.435-0.558 c0.255-0.04,0.523,0.158,0.558,0.435l0.413,3.308c0.034,0.273-0.16,0.523-0.435,0.558C48.541,41.999,48.521,42,48.499,42z"/><path fill="#472b29" d="M43.5,41c-0.195,0-0.382-0.115-0.462-0.308l-5-12c-0.105-0.255,0.015-0.548,0.27-0.654 c0.253-0.102,0.549,0.015,0.654,0.27l5,12c0.105,0.255-0.015,0.548-0.27,0.654C43.63,40.987,43.564,41,43.5,41z"/><path fill="#472b29" d="M38.5,40c-0.128,0-0.256-0.049-0.354-0.146l-4.781-4.781c-0.195-0.195-0.195-0.512,0-0.707 s0.512-0.195,0.707,0l4.781,4.781c0.195,0.195,0.195,0.512,0,0.707C38.756,39.951,38.628,40,38.5,40z"/><path fill="#472b29" d="M63.5,40c-0.128,0-0.256-0.049-0.354-0.146c-0.195-0.195-0.195-0.512,0-0.707l4.094-4.094 c0.195-0.195,0.512-0.195,0.707,0s0.195,0.512,0,0.707l-4.094,4.094C63.756,39.951,63.628,40,63.5,40z"/><path fill="#472b29" d="M58.5,41c-0.064,0-0.13-0.013-0.192-0.038c-0.255-0.106-0.375-0.399-0.27-0.654l3.103-7.446 c0.105-0.257,0.402-0.373,0.654-0.27c0.255,0.106,0.375,0.399,0.27,0.654l-3.103,7.446C58.882,40.885,58.695,41,58.5,41z"/><polygon fill="#fbcd59" points="31.895,31.75 34.68,32.5 31.895,33.25 31.145,36.036 30.395,33.25 27.609,32.5 30.395,31.75 31.145,28.964"/><path fill="#472b29" d="M31.145,36.285c-0.113,0-0.212-0.076-0.241-0.185l-0.713-2.646l-2.646-0.713 c-0.108-0.029-0.185-0.128-0.185-0.241s0.076-0.212,0.185-0.241l2.646-0.713l0.713-2.646c0.059-0.217,0.424-0.217,0.482,0 l0.713,2.646l2.647,0.713c0.108,0.029,0.185,0.128,0.185,0.241s-0.076,0.212-0.185,0.241l-2.647,0.713l-0.713,2.646 C31.356,36.209,31.258,36.285,31.145,36.285z M28.571,32.5l1.889,0.509c0.086,0.023,0.152,0.09,0.176,0.176l0.509,1.889 l0.509-1.889c0.023-0.086,0.09-0.152,0.176-0.176l1.89-0.509l-1.89-0.509c-0.086-0.023-0.152-0.09-0.176-0.176l-0.509-1.889 l-0.509,1.889c-0.023,0.086-0.09,0.152-0.176,0.176L28.571,32.5z"/><polygon fill="#fbcd59" points="47.895,32.75 50.68,33.5 47.895,34.25 47.145,37.036 46.395,34.25 43.609,33.5 46.395,32.75 47.145,29.964"/><path fill="#472b29" d="M47.145,37.285c-0.113,0-0.212-0.076-0.241-0.185l-0.713-2.646l-2.646-0.713 c-0.108-0.029-0.185-0.128-0.185-0.241s0.076-0.212,0.185-0.241l2.646-0.713l0.713-2.646c0.059-0.217,0.424-0.217,0.482,0 l0.713,2.646l2.647,0.713c0.108,0.029,0.185,0.128,0.185,0.241s-0.076,0.212-0.185,0.241l-2.647,0.713l-0.713,2.646 C47.356,37.209,47.258,37.285,47.145,37.285z M44.571,33.5l1.889,0.509c0.086,0.023,0.152,0.09,0.176,0.176l0.509,1.889 l0.509-1.889c0.023-0.086,0.09-0.152,0.176-0.176l1.89-0.509l-1.89-0.509c-0.086-0.023-0.152-0.09-0.176-0.176l-0.509-1.889 l-0.509,1.889c-0.023,0.086-0.09,0.152-0.176,0.176L44.571,33.5z"/><g><polygon fill="#fbcd59" points="63.895,27.75 66.68,28.5 63.895,29.25 63.145,32.036 62.395,29.25 59.609,28.5 62.395,27.75 63.145,24.964"/><path fill="#472b29" d="M63.145,32.285c-0.113,0-0.212-0.076-0.241-0.185l-0.713-2.646l-2.646-0.713 c-0.108-0.029-0.185-0.128-0.185-0.241s0.076-0.212,0.185-0.241l2.646-0.713l0.713-2.646c0.059-0.217,0.424-0.217,0.482,0 l0.713,2.646l2.647,0.713c0.108,0.029,0.185,0.128,0.185,0.241s-0.076,0.212-0.185,0.241l-2.647,0.713l-0.713,2.646 C63.356,32.209,63.258,32.285,63.145,32.285z M60.571,28.5l1.889,0.509c0.086,0.023,0.152,0.09,0.176,0.176l0.509,1.889 l0.509-1.889c0.023-0.086,0.09-0.152,0.176-0.176l1.89-0.509l-1.89-0.509c-0.086-0.023-0.152-0.09-0.176-0.176l-0.509-1.889 l-0.509,1.889c-0.023,0.086-0.09,0.152-0.176,0.176L60.571,28.5z"/></g><g><polygon fill="#fbcd59" points="70.895,31.75 73.68,32.5 70.895,33.25 70.145,36.036 69.395,33.25 66.609,32.5 69.395,31.75 70.145,28.964"/><path fill="#472b29" d="M70.145,36.285c-0.113,0-0.212-0.076-0.241-0.185l-0.713-2.646l-2.646-0.713 c-0.108-0.029-0.185-0.128-0.185-0.241s0.076-0.212,0.185-0.241l2.646-0.713l0.713-2.646c0.059-0.217,0.424-0.217,0.482,0 l0.713,2.646l2.647,0.713c0.108,0.029,0.185,0.128,0.185,0.241s-0.076,0.212-0.185,0.241l-2.647,0.713l-0.713,2.646 C70.356,36.209,70.258,36.285,70.145,36.285z M67.571,32.5l1.889,0.509c0.086,0.023,0.152,0.09,0.176,0.176l0.509,1.889 l0.509-1.889c0.023-0.086,0.09-0.152,0.176-0.176l1.89-0.509l-1.89-0.509c-0.086-0.023-0.152-0.09-0.176-0.176l-0.509-1.889 l-0.509,1.889c-0.023,0.086-0.09,0.152-0.176,0.176L67.571,32.5z"/></g></g><g><path fill="#fdfcef" d="M36.5,80.5c0,0,1.566,0,3.5,0s3.5-1.566,3.5-3.5c0-1.781-1.336-3.234-3.055-3.453 C40.473,73.367,40.5,73.187,40.5,73c0-1.934-1.566-3.5-3.5-3.5c-1.031,0-1.949,0.453-2.59,1.164 c-0.383-1.809-1.988-3.164-3.91-3.164c-2.211,0-4,1.789-4,4c0,0.191,0.031,0.375,0.055,0.559C26.129,71.715,25.594,71.5,25,71.5 c-1.227,0-2.246,0.887-2.453,2.055C22.367,73.527,22.187,73.5,22,73.5c-1.934,0-3.5,1.566-3.5,3.5s1.566,3.5,3.5,3.5s7.5,0,7.5,0 V81h7V80.5z"/><path fill="#472b29" d="M38.25,76C38.113,76,38,75.887,38,75.75c0-1.223,0.996-2.219,2.219-2.219 c0.035,0.008,0.734,0,1.242,0.137c0.133,0.035,0.215,0.172,0.176,0.305c-0.035,0.137-0.172,0.215-0.305,0.176 c-0.445-0.117-1.102-0.117-1.113-0.117c-0.949,0-1.719,0.773-1.719,1.719C38.5,75.887,38.387,76,38.25,76z M31.5,80 c-0.277,0-0.5,0.223-0.5,0.5s0.223,0.5,0.5,0.5s0.5-0.223,0.5-0.5S31.777,80,31.5,80z"/><path fill="#472b29" d="M40,81h-3.5c-0.277,0-0.5-0.223-0.5-0.5s0.223-0.5,0.5-0.5H40c1.652,0,3-1.348,3-3 c0-1.496-1.125-2.77-2.617-2.961c-0.137-0.016-0.254-0.086-0.336-0.195c-0.082-0.105-0.117-0.242-0.094-0.375 C39.977,73.312,40,73.16,40,73c0-1.652-1.348-3-3-3c-0.852,0-1.637,0.355-2.219,1c-0.125,0.141-0.32,0.199-0.5,0.148 c-0.184-0.051-0.32-0.195-0.359-0.379C33.578,69.164,32.141,68,30.5,68c-1.93,0-3.5,1.57-3.5,3.5c0,0.145,0.02,0.281,0.039,0.418 c0.031,0.203-0.063,0.438-0.238,0.539c-0.18,0.102-0.398,0.117-0.559-0.008C25.879,72.156,25.449,72,25,72 c-0.965,0-1.793,0.691-1.965,1.645c-0.047,0.266-0.293,0.445-0.566,0.406C22.312,74.023,22.16,74,22,74c-1.652,0-3,1.348-3,3 s1.348,3,3,3h7.5c0.277,0,0.5,0.223,0.5,0.5S29.777,81,29.5,81H22c-2.207,0-4-1.793-4-4s1.793-4,4-4 c0.059,0,0.117,0.004,0.176,0.008C22.59,71.82,23.711,71,25,71c0.348,0,0.687,0.063,1.012,0.18C26.176,68.848,28.125,67,30.5,67 c1.832,0,3.465,1.129,4.152,2.773C35.332,69.277,36.156,69,37,69c2.207,0,4,1.793,4,4c0,0.047,0,0.094-0.004,0.141 C42.738,73.59,44,75.168,44,77C44,79.207,42.207,81,40,81z"/><path fill="#472b29" d="M34.5,80c-0.16,0-0.84,0-1,0c-0.277,0-0.5,0.223-0.5,0.5s0.223,0.5,0.5,0.5c0.16,0,0.84,0,1,0 c0.277,0,0.5-0.223,0.5-0.5S34.777,80,34.5,80z"/></g></svg>