<svg xmlns="http://www.w3.org/2000/svg"  viewBox="0 0 100 100" width="500px" height="500px"><path fill="#c7ede6" d="M88.704,55.674c0.3-0.616,0.566-1.264,0.796-1.943c2.633-7.77-1.349-17.078-9.733-19.325 C78.86,23.023,70.86,15.214,61.826,13.881c-10.341-1.525-19.814,5.044-22.966,15.485c-3.799-1.346-7.501-1.182-10.99,0.857 c-1.583,0.732-3.031,1.812-4.33,3.233c-1.907,2.086-3.147,4.719-3.652,7.495c-0.748,0.118-1.483,0.236-2.176,0.484 c-4.04,1.449-6.589,4.431-7.288,8.923c-0.435,2.797,0.443,5.587,0.933,6.714c1.935,4.455,6.422,6.98,10.981,6.312 c0.227-0.033,0.557,0.069,0.752,0.233c0.241,7.12,3.698,13.417,8.884,17.014c8.321,5.772,19.027,3.994,25.781-3.921 c2.894,2.96,6.338,4.398,10.384,3.876c4.023-0.519,7.147-2.739,9.426-6.349c1.053,0.283,2.051,0.691,3.083,0.804 c4.042,0.442,7.324-1.165,9.732-4.8c0.922-1.391,1.793-3.194,1.793-6.354C92.174,60.631,90.881,57.664,88.704,55.674z"/><path fill="#fff" d="M18.5 46h-10C8.224 46 8 45.776 8 45.5S8.224 45 8.5 45h10c.276 0 .5.224.5.5S18.777 46 18.5 46zM21.5 46h-1c-.276 0-.5-.224-.5-.5s.224-.5.5-.5h1c.276 0 .5.224.5.5S21.777 46 21.5 46zM26.491 48H17.5c-.276 0-.5-.224-.5-.5s.224-.5.5-.5h8.991c.276 0 .5.224.5.5S26.767 48 26.491 48zM15.5 48h-1c-.276 0-.5-.224-.5-.5s.224-.5.5-.5h1c.276 0 .5.224.5.5S15.777 48 15.5 48zM12.5 48h-2c-.276 0-.5-.224-.5-.5s.224-.5.5-.5h2c.276 0 .5.224.5.5S12.777 48 12.5 48zM18.5 50h-2c-.276 0-.5-.224-.5-.5s.224-.5.5-.5h2c.276 0 .5.224.5.5S18.776 50 18.5 50zM21.5 41c-.177 0-.823 0-1 0-.276 0-.5.224-.5.5 0 .276.224.5.5.5.177 0 .823 0 1 0 .276 0 .5-.224.5-.5C22 41.224 21.776 41 21.5 41zM21.5 43c-.177 0-4.823 0-5 0-.276 0-.5.224-.5.5 0 .276.224.5.5.5.177 0 4.823 0 5 0 .276 0 .5-.224.5-.5C22 43.224 21.776 43 21.5 43zM26.5 45c-.177 0-2.823 0-3 0-.276 0-.5.224-.5.5 0 .276.224.5.5.5.177 0 2.823 0 3 0 .276 0 .5-.224.5-.5C27 45.224 26.776 45 26.5 45z"/><g><path fill="#fff" d="M83.5 49h-10c-.276 0-.5-.224-.5-.5s.224-.5.5-.5h10c.276 0 .5.224.5.5S83.776 49 83.5 49zM87.5 49h-2c-.276 0-.5-.224-.5-.5s.224-.5.5-.5h2c.276 0 .5.224.5.5S87.776 49 87.5 49zM92.5 51h-10c-.276 0-.5-.224-.5-.5s.224-.5.5-.5h10c.276 0 .5.224.5.5S92.777 51 92.5 51zM80.5 51h-1c-.276 0-.5-.224-.5-.5s.224-.5.5-.5h1c.276 0 .5.224.5.5S80.776 51 80.5 51zM77.47 51H75.5c-.276 0-.5-.224-.5-.5s.224-.5.5-.5h1.97c.276 0 .5.224.5.5S77.746 51 77.47 51zM86.5 47h-5c-.276 0-.5-.224-.5-.5s.224-.5.5-.5h5c.276 0 .5.224.5.5S86.777 47 86.5 47zM83.5 53h-2c-.276 0-.5-.224-.5-.5s.224-.5.5-.5h2c.276 0 .5.224.5.5S83.776 53 83.5 53z"/></g><g><path fill="#fdfcef" d="M68.65,37.291c0,0-10.616,0-10.681,0c-2.452,0-4.439-1.987-4.439-4.439 c0-2.139,1.513-3.924,3.527-4.344c-0.023-0.187-0.039-0.377-0.039-0.57c0-2.539,2.058-4.598,4.597-4.598 c1.499,0,2.827,0.721,3.666,1.831c0.215-2.826,2.739-5.007,5.693-4.646c2.16,0.264,3.947,1.934,4.344,4.073 c0.127,0.686,0.114,1.352-0.013,1.977c0.579-0.624,1.403-1.016,2.322-1.016c1.68,0,3.052,1.308,3.16,2.961 c0.763-0.169,1.593-0.158,2.467,0.17c1.671,0.627,2.861,2.2,2.93,3.983c0.099,2.533-1.925,4.617-4.435,4.617 c-0.191,0-0.861,0-1.015,0h-9.218"/><path fill="#472b29" d="M57.969,37.791H68.65c0.276,0,0.5-0.224,0.5-0.5s-0.224-0.5-0.5-0.5H57.969 c-2.172,0-3.938-1.767-3.938-3.938c0-1.855,1.315-3.477,3.129-3.855c0.255-0.053,0.426-0.293,0.394-0.552 c-0.021-0.167-0.035-0.336-0.035-0.508c0-2.26,1.838-4.098,4.098-4.098c1.292,0,2.482,0.595,3.268,1.633 c0.125,0.165,0.342,0.235,0.539,0.178c0.2-0.059,0.342-0.234,0.358-0.441c0.093-1.238,0.699-2.4,1.662-3.19 c0.973-0.798,2.211-1.151,3.472-0.997c1.946,0.238,3.556,1.746,3.913,3.669c0.111,0.601,0.107,1.201-0.012,1.785 c-0.044,0.22,0.062,0.441,0.262,0.544c0.197,0.104,0.442,0.06,0.595-0.104c0.513-0.553,1.207-0.856,1.955-0.856 c1.4,0,2.569,1.096,2.661,2.493c0.01,0.146,0.082,0.28,0.199,0.368c0.116,0.087,0.265,0.117,0.408,0.088 c0.755-0.168,1.469-0.117,2.183,0.149c1.498,0.563,2.546,1.984,2.606,3.535c0.043,1.084-0.347,2.109-1.097,2.889 c-0.749,0.779-1.758,1.209-2.839,1.209H71.517c-0.276,0-0.5,0.224-0.5,0.5s0.224,0.5,0.5,0.5H81.75 c1.355,0,2.62-0.538,3.56-1.516c0.94-0.977,1.429-2.263,1.376-3.621c-0.077-1.948-1.385-3.729-3.255-4.432 c-0.721-0.271-1.464-0.362-2.221-0.279c-0.362-1.654-1.842-2.884-3.582-2.884c-0.603,0-1.193,0.151-1.72,0.432 c-0.004-0.327-0.036-0.655-0.098-0.983c-0.436-2.347-2.399-4.188-4.774-4.479c-1.539-0.19-3.041,0.243-4.227,1.217 c-0.899,0.737-1.543,1.741-1.847,2.85c-0.919-0.808-2.095-1.256-3.347-1.256c-2.811,0-5.098,2.287-5.098,5.098 c0,0.064,0.002,0.128,0.004,0.192c-2.047,0.628-3.491,2.547-3.491,4.723C53.031,35.575,55.247,37.791,57.969,37.791z"/><path fill="#fdfcef" d="M71.223,27.512c1.642-0.108,3.055,1.026,3.157,2.533c0.013,0.187,0.004,0.371-0.023,0.55 c0.317-0.358,0.786-0.6,1.324-0.636c0.985-0.065,1.836,0.586,1.959,1.471c0.179-0.049,0.366-0.082,0.56-0.095 c1.437-0.094,2.674,0.898,2.762,2.216"/><path fill="#472b29" d="M80.962,33.802c0.006,0,0.011,0,0.017-0.001c0.138-0.009,0.242-0.128,0.232-0.266 c-0.098-1.454-1.448-2.562-3.028-2.449c-0.116,0.007-0.234,0.022-0.353,0.044c-0.26-0.878-1.168-1.504-2.166-1.42 c-0.376,0.024-0.729,0.138-1.034,0.329c0-0.004,0-0.008-0.001-0.011c-0.11-1.643-1.643-2.91-3.423-2.766 c-0.138,0.009-0.242,0.128-0.232,0.266c0.008,0.132,0.118,0.233,0.249,0.233c0.005,0,0.011,0,0.017-0.001 c1.478-0.086,2.798,0.933,2.892,2.301c0.011,0.164,0.004,0.331-0.021,0.495c-0.017,0.109,0.04,0.218,0.141,0.265 c0.1,0.046,0.22,0.022,0.293-0.061c0.29-0.326,0.7-0.522,1.154-0.553c0.855-0.036,1.589,0.498,1.694,1.256 c0.011,0.071,0.051,0.135,0.11,0.175s0.132,0.052,0.203,0.032c0.171-0.046,0.343-0.075,0.511-0.087 c1.306-0.073,2.418,0.807,2.497,1.984C80.721,33.701,80.831,33.802,80.962,33.802z"/><g><path fill="#fdfcef" d="M56.172,29.027c1.543-0.727,3.327-0.213,3.985,1.15c0.082,0.169,0.142,0.344,0.182,0.521"/><path fill="#472b29" d="M60.34,30.949c0.018,0,0.036-0.002,0.055-0.006c0.135-0.03,0.22-0.164,0.189-0.299 c-0.044-0.195-0.111-0.389-0.2-0.574c-0.717-1.484-2.654-2.054-4.317-1.269c-0.125,0.06-0.179,0.208-0.12,0.333 c0.06,0.126,0.209,0.176,0.333,0.12c1.418-0.67,3.056-0.205,3.653,1.031c0.072,0.151,0.128,0.31,0.163,0.468 C60.122,30.87,60.225,30.949,60.34,30.949z"/></g></g><g><path fill="#78cdd4" d="M50,72.3c-9.029,0-16.3-3.79-16.3-6.928V32.7h32.6v32.672C66.3,68.51,59.029,72.3,50,72.3z"/><path fill="#472b29" d="M65.6,33.4v31.972c0,2.508-6.551,6.228-15.6,6.228s-15.6-3.72-15.6-6.228V33.4H65.6 M67,32H33 v33.372C33,69.059,40.611,73,50,73s17-3.941,17-7.628V32L67,32z"/></g><g><path fill="#78cdd4" d="M50 26.7A16.3 5.8 0 1 0 50 38.3A16.3 5.8 0 1 0 50 26.7Z"/><path fill="#472b29" d="M50,27.4c9.523,0,15.6,3.021,15.6,5.1s-6.077,5.1-15.6,5.1s-15.6-3.021-15.6-5.1 S40.477,27.4,50,27.4 M50,26c-9.389,0-17,2.91-17,6.5S40.611,39,50,39s17-2.91,17-6.5S59.389,26,50,26L50,26z"/></g><g><path fill="#472b29" d="M39.028 48.563c-.063 0-.128-.012-.19-.038C35.396 47.108 33.5 45.146 33.5 43c0-.276.224-.5.5-.5s.5.224.5.5c0 1.689 1.72 3.366 4.718 4.601.255.104.377.396.272.652C39.411 48.446 39.224 48.563 39.028 48.563zM44.999 50.126c-.024 0-.048-.002-.073-.005-1.474-.216-2.873-.523-4.157-.912-.264-.08-.414-.359-.333-.623.08-.265.357-.416.624-.334 1.237.375 2.587.671 4.012.879.273.04.462.294.422.567C45.457 49.947 45.243 50.126 44.999 50.126zM50.25 50.5c-.903 0-1.812-.032-2.7-.095-.275-.02-.482-.259-.463-.534.019-.276.251-.488.534-.464.864.062 1.749.093 2.628.093C58.787 49.5 66 46.523 66 43c0-.276.224-.5.5-.5S67 42.724 67 43C67 47.206 59.643 50.5 50.25 50.5z"/></g><g><path fill="#472b29" d="M37.684 59.938c-.078 0-.158-.019-.232-.058C34.867 58.524 33.5 56.837 33.5 55c0-.276.224-.5.5-.5s.5.224.5.5c0 1.421 1.213 2.84 3.417 3.996.245.128.339.431.21.675C38.038 59.841 37.864 59.938 37.684 59.938zM50.25 62.5c-3.308 0-6.501-.421-9.233-1.218-.265-.078-.417-.355-.34-.62.077-.266.351-.417.62-.341 2.643.771 5.738 1.179 8.953 1.179C58.787 61.5 66 58.523 66 55c0-.276.224-.5.5-.5S67 54.724 67 55C67 59.206 59.643 62.5 50.25 62.5z"/></g><g><path fill="#afabd4" d="M60.531,76.117c-0.779-0.222-1.531-0.528-2.248-0.915c0.4-1.358,0.083-2.584-0.933-3.573 c-0.698-0.679-1.507-1.022-2.403-1.022c-0.367,0-0.748,0.06-1.137,0.178c-0.396-0.709-0.711-1.453-0.941-2.223 c1.28-0.687,1.934-1.796,1.9-3.24c-0.033-1.383-0.702-2.436-1.944-3.075c0.22-0.775,0.523-1.523,0.907-2.234 c0.403,0.128,0.798,0.192,1.18,0.192c0.922,0,1.748-0.365,2.456-1.085c0.999-1.016,1.282-2.257,0.834-3.618 c0.697-0.386,1.441-0.697,2.226-0.931c0.662,1.286,1.74,1.961,3.148,1.961c0.109,0,0.22-0.005,0.334-0.013 c1.309-0.097,2.296-0.771,2.888-1.963c0.771,0.224,1.518,0.531,2.229,0.92c-0.443,1.382-0.146,2.631,0.877,3.641 c0.704,0.695,1.52,1.049,2.424,1.049c0.389,0,0.791-0.068,1.2-0.201c0.309,0.573,0.723,1.561,0.917,2.226 c-1.298,0.683-1.963,1.796-1.934,3.249c0.029,1.366,0.687,2.417,1.911,3.068c-0.227,0.772-0.538,1.52-0.931,2.23 c-0.389-0.113-0.767-0.17-1.129-0.17c-1.021,0-1.91,0.434-2.645,1.289c-0.816,0.95-1.046,2.088-0.677,3.318 c-0.713,0.391-1.464,0.701-2.242,0.928c-0.641-1.184-1.794-1.878-3.162-1.878C62.318,74.241,61.162,74.968,60.531,76.117z M63.631,62.593c-1.509,0-2.741,1.223-2.748,2.726c-0.003,0.732,0.28,1.423,0.797,1.943c0.517,0.52,1.205,0.808,1.939,0.811 c1.501-0.008,2.705-1.176,2.748-2.66c0.021-0.742-0.25-1.446-0.765-1.98c-0.514-0.534-1.204-0.832-1.944-0.839 C63.656,62.593,63.634,62.593,63.631,62.593z"/><path fill="#472b29" d="M67.12,55.393c0.371,0.129,0.735,0.279,1.09,0.451c-0.272,1.411,0.136,2.719,1.201,3.771 c0.828,0.818,1.836,1.25,2.915,1.25c0.272,0,0.548-0.027,0.827-0.082c0.157,0.343,0.32,0.742,0.45,1.097 c-1.196,0.824-1.825,2.059-1.793,3.573c0.03,1.418,0.651,2.578,1.776,3.362c-0.133,0.38-0.289,0.753-0.467,1.118 c-0.257-0.044-0.51-0.066-0.759-0.066c-1.216,0-2.314,0.53-3.175,1.533c-0.841,0.979-1.163,2.157-0.95,3.402 c-0.37,0.179-0.75,0.336-1.138,0.471c-0.802-1.1-2.054-1.749-3.465-1.749c-0.006,0-0.053,0-0.059,0 c-1.338,0.017-2.561,0.684-3.348,1.767c-0.389-0.132-0.768-0.286-1.14-0.464c0.235-1.388-0.19-2.67-1.249-3.699 c-0.821-0.799-1.821-1.222-2.891-1.222c-0.254,0-0.512,0.023-0.773,0.071c-0.179-0.362-0.336-0.73-0.47-1.109 c1.182-0.826,1.8-2.057,1.765-3.563c-0.034-1.437-0.667-2.602-1.812-3.377c0.128-0.375,0.277-0.743,0.447-1.101 c0.273,0.051,0.542,0.077,0.808,0.077c1.101,0,2.123-0.448,2.956-1.294c1.039-1.057,1.431-2.355,1.153-3.745 c0.353-0.171,0.717-0.323,1.091-0.456c0.8,1.184,1.995,1.822,3.465,1.822c0.125,0,0.254-0.005,0.385-0.015 C65.309,57.117,66.397,56.481,67.12,55.393 M63.623,68.772c0.002,0,0.005,0,0.007,0c1.874-0.01,3.383-1.477,3.437-3.339 c0.027-0.932-0.314-1.815-0.96-2.486c-0.645-0.67-1.512-1.044-2.477-1.053c-1.892,0-3.438,1.535-3.447,3.421 c-0.009,1.897,1.531,3.449,3.433,3.458C63.618,68.772,63.621,68.772,63.623,68.772 M66.386,53.726 c-0.423,1.229-1.243,2-2.528,2.095c-0.096,0.007-0.19,0.011-0.282,0.011c-1.364,0-2.262-0.775-2.751-2.093 c-1.25,0.306-2.415,0.789-3.496,1.465c0.595,1.256,0.518,2.43-0.46,3.424c-0.591,0.601-1.251,0.876-1.958,0.876 c-0.477,0-0.975-0.125-1.488-0.361c-0.663,1.09-1.138,2.256-1.424,3.506c1.271,0.466,2.037,1.337,2.069,2.69 c0.033,1.406-0.725,2.327-2.031,2.834c0.301,1.239,0.791,2.392,1.467,3.472c0.496-0.221,0.978-0.338,1.441-0.338 c0.689,0,1.334,0.26,1.915,0.825c0.991,0.963,1.11,2.126,0.563,3.384c1.09,0.663,2.251,1.137,3.492,1.424 c0.019-0.037,0.033-0.059,0.042-0.083c0.449-1.169,1.468-1.918,2.634-1.933c0.014,0,0.027,0,0.041,0 c1.228,0,2.244,0.693,2.716,1.868c0.035,0.087,0.073,0.114,0.128,0.114c0.027,0,0.058-0.006,0.094-0.016 c1.123-0.284,2.183-0.722,3.178-1.315c0.054-0.032,0.106-0.069,0.149-0.098c-0.506-1.141-0.46-2.223,0.349-3.165 c0.614-0.715,1.328-1.045,2.113-1.045c0.458,0,0.94,0.112,1.44,0.325c0.671-1.084,1.154-2.24,1.448-3.477 c-1.252-0.479-2.011-1.338-2.039-2.691c-0.03-1.426,0.742-2.33,2.035-2.831c-0.079-0.779-0.986-2.969-1.445-3.491 c-0.505,0.236-0.999,0.362-1.474,0.362c-0.692,0-1.345-0.267-1.931-0.846c-1.005-0.993-1.084-2.18-0.5-3.447 C68.805,54.5,67.636,54.016,66.386,53.726L66.386,53.726z M63.622,67.372c-1.132-0.005-2.045-0.923-2.039-2.051 c0.005-1.124,0.916-2.027,2.047-2.027c0.007,0,0.014,0,0.021,0c1.14,0.011,2.049,0.956,2.016,2.099 C65.637,66.456,64.772,67.366,63.622,67.372L63.622,67.372z"/><path fill="#7777ab" d="M70.781,63.511c-1.006-3.952-5.026-6.34-8.978-5.334c-3.952,1.006-6.34,5.026-5.334,8.978 c1.006,3.952,5.026,6.34,8.978,5.334S71.788,67.463,70.781,63.511z M65.08,71.047c-3.156,0.803-6.366-1.104-7.169-4.26 c-0.803-3.156,1.104-6.366,4.26-7.169c3.156-0.803,6.366,1.104,7.169,4.26C70.143,67.034,68.236,70.244,65.08,71.047z"/><path fill="#472b29" d="M57.647 65.582c-.138 0-.25-.112-.25-.25 0-3.434 2.794-6.228 6.228-6.228.923 0 1.813.198 2.646.588.125.059.179.208.12.333-.059.127-.21.177-.333.12-.765-.359-1.583-.541-2.433-.541-3.158 0-5.728 2.569-5.728 5.728C57.897 65.47 57.785 65.582 57.647 65.582zM63.625 71.561c-2.736 0-5.125-1.753-5.942-4.361-.042-.132.032-.272.163-.313.139-.041.272.033.313.163.752 2.399 2.949 4.012 5.466 4.012 1.293 0 2.514-.421 3.53-1.217.108-.086.266-.066.351.042.086.108.066.266-.042.352C66.358 71.103 65.031 71.561 63.625 71.561zM68.297 69.313c-.055 0-.11-.018-.156-.055-.107-.086-.125-.243-.039-.352.818-1.023 1.251-2.26 1.251-3.574 0-.721-.132-1.423-.392-2.086-.051-.128.013-.273.142-.323.125-.052.274.013.323.142.283.721.427 1.484.427 2.268 0 1.43-.471 2.773-1.36 3.887C68.442 69.28 68.37 69.313 68.297 69.313z"/><g><path fill="#472b29" d="M68.55,62.193c-0.079,0-0.157-0.038-0.206-0.108c-0.312-0.451-0.684-0.854-1.105-1.196 c-0.107-0.087-0.124-0.245-0.037-0.352c0.088-0.109,0.246-0.123,0.352-0.037c0.46,0.373,0.864,0.812,1.203,1.302 c0.078,0.113,0.05,0.269-0.064,0.348C68.648,62.179,68.599,62.193,68.55,62.193z"/></g></g><g><path fill="#fdfcef" d="M36.126,63.331c1.71,0,3.194,0,3.215,0c1.916,0,3.469-1.52,3.469-3.396 c0-1.636-1.182-3.001-2.756-3.323c0.018-0.143,0.031-0.288,0.031-0.436c0-1.942-1.609-3.517-3.593-3.517 c-1.172,0-2.209,0.551-2.865,1.401c-0.168-2.162-2.141-3.83-4.45-3.554c-1.688,0.202-3.084,1.479-3.395,3.116 c-0.1,0.525-0.089,1.034,0.01,1.512c-0.453-0.477-1.097-0.777-1.814-0.777c-1.313,0-2.385,1.001-2.47,2.265 c-0.596-0.129-1.245-0.121-1.928,0.13c-1.306,0.48-2.236,1.683-2.29,3.047c-0.077,1.937,1.504,3.532,3.467,3.532 c0.149,0,0.673,0,0.794,0h7.204 M30.245,63.331h0.327"/><path fill="#472b29" d="M39.341,63.831h-3.215c-0.276,0-0.5-0.224-0.5-0.5s0.224-0.5,0.5-0.5h3.215 c1.637,0,2.969-1.299,2.969-2.896c0-1.362-0.991-2.554-2.355-2.832c-0.256-0.053-0.429-0.292-0.396-0.551 c0.015-0.124,0.026-0.249,0.026-0.376c0-1.663-1.388-3.017-3.093-3.017c-0.978,0-1.878,0.439-2.47,1.206 c-0.126,0.164-0.342,0.231-0.538,0.174c-0.198-0.06-0.34-0.234-0.355-0.44c-0.071-0.913-0.507-1.741-1.228-2.332 c-0.743-0.61-1.688-0.879-2.665-0.765c-1.475,0.177-2.693,1.292-2.963,2.712c-0.084,0.445-0.082,0.889,0.008,1.317 c0.046,0.22-0.06,0.441-0.257,0.546c-0.2,0.103-0.441,0.063-0.595-0.1c-0.381-0.4-0.896-0.621-1.452-0.621 c-1.037,0-1.903,0.79-1.971,1.799c-0.01,0.146-0.082,0.279-0.198,0.366c-0.117,0.088-0.264,0.12-0.407,0.089 c-0.571-0.124-1.11-0.087-1.648,0.111c-1.13,0.414-1.918,1.458-1.963,2.597c-0.032,0.782,0.252,1.526,0.798,2.096 c0.568,0.591,1.338,0.916,2.168,0.916h7.998c0.276,0,0.5,0.224,0.5,0.5s-0.224,0.5-0.5,0.5h-7.998 c-1.089,0-2.142-0.446-2.889-1.224c-0.737-0.768-1.119-1.771-1.077-2.828c0.061-1.538,1.112-2.943,2.617-3.496 c0.549-0.201,1.113-0.277,1.688-0.228c0.332-1.269,1.507-2.198,2.882-2.198c0.431,0,0.854,0.094,1.241,0.269 c0.01-0.198,0.034-0.397,0.072-0.597c0.35-1.844,1.924-3.291,3.826-3.519c1.254-0.154,2.463,0.2,3.418,0.983 c0.668,0.548,1.147,1.255,1.399,2.048c0.718-0.568,1.61-0.882,2.558-0.882c2.257,0,4.093,1.802,4.093,4.017 c0,0.02,0,0.04-0.001,0.06c1.604,0.519,2.727,2.011,2.727,3.699C43.31,62.084,41.53,63.831,39.341,63.831z M30.571,63.831 h-0.326c-0.276,0-0.5-0.224-0.5-0.5s0.224-0.5,0.5-0.5h0.326c0.276,0,0.5,0.224,0.5,0.5S30.847,63.831,30.571,63.831z"/><g><path fill="#472b29" d="M37.791,58.539c-0.018,0-0.036-0.002-0.055-0.006c-0.135-0.03-0.22-0.164-0.189-0.299 c0.034-0.152,0.087-0.3,0.155-0.44c0.557-1.123,2.088-1.537,3.41-0.924c0.126,0.058,0.181,0.206,0.122,0.331 c-0.058,0.125-0.208,0.18-0.331,0.122c-1.084-0.501-2.316-0.189-2.753,0.692c-0.051,0.104-0.09,0.215-0.115,0.328 C38.008,58.46,37.905,58.539,37.791,58.539z"/></g><g><path fill="#472b29" d="M33.106,63.831h-1.005c-0.276,0-0.5-0.224-0.5-0.5s0.224-0.5,0.5-0.5h1.005 c0.276,0,0.5,0.224,0.5,0.5S33.382,63.831,33.106,63.831z"/></g></g></svg>