<svg xmlns="http://www.w3.org/2000/svg"  viewBox="0 0 100 100" width="500px" height="500px"><path fill="#c7ede6" d="M87.215,56.71C88.35,54.555,89,52.105,89,49.5c0-6.621-4.159-12.257-10.001-14.478 C78.999,35.015,79,35.008,79,35c0-11.598-9.402-21-21-21c-9.784,0-17.981,6.701-20.313,15.757C36.211,29.272,34.638,29,33,29 c-7.692,0-14.023,5.793-14.89,13.252C12.906,43.353,9,47.969,9,53.5C9,59.851,14.149,65,20.5,65c0.177,0,0.352-0.012,0.526-0.022 C21.022,65.153,21,65.324,21,65.5C21,76.822,30.178,86,41.5,86c6.437,0,12.175-2.972,15.934-7.614C59.612,80.611,62.64,82,66,82 c4.65,0,8.674-2.65,10.666-6.518C77.718,75.817,78.837,76,80,76c6.075,0,11-4.925,11-11C91,61.689,89.53,58.727,87.215,56.71z"/><path fill="#fdfcef" d="M79.875,60.5c0,0,3.64,0,6.125,0s4.5-2.015,4.5-4.5c0-2.333-1.782-4.229-4.055-4.455 C86.467,51.364,86.5,51.187,86.5,51c0-2.485-2.015-4.5-4.5-4.5c-1.438,0-2.703,0.686-3.527,1.736 C78.333,45.6,76.171,43.5,73.5,43.5c-2.761,0-5,2.239-5,5c0,0.446,0.077,0.87,0.187,1.282C68.045,49.005,67.086,48.5,66,48.5 c-1.781,0-3.234,1.335-3.455,3.055C62.364,51.533,62.187,51.5,62,51.5c-2.485,0-4.5,2.015-4.5,4.5s2.015,4.5,4.5,4.5s9.5,0,9.5,0 h5.375V61h3V60.5z"/><path fill="#472b29" d="M73.5,43c-3.033,0-5.5,2.467-5.5,5.5c0,0.016,0,0.031,0,0.047C67.398,48.192,66.71,48,66,48 c-1.831,0-3.411,1.261-3.858,3.005C62.095,51.002,62.048,51,62,51c-2.757,0-5,2.243-5,5s2.243,5,5,5h14.875 c0.276,0,0.5-0.224,0.5-0.5s-0.224-0.5-0.5-0.5H62c-2.206,0-4-1.794-4-4s1.794-4,4-4c0.117,0,0.23,0.017,0.343,0.032l0.141,0.019 c0.021,0.003,0.041,0.004,0.062,0.004c0.246,0,0.462-0.185,0.495-0.437C63.232,50.125,64.504,49,66,49 c0.885,0,1.723,0.401,2.301,1.1c0.098,0.118,0.241,0.182,0.386,0.182c0.078,0,0.156-0.018,0.228-0.056 c0.209-0.107,0.314-0.346,0.254-0.573C69.054,49.218,69,48.852,69,48.5c0-2.481,2.019-4.5,4.5-4.5 c2.381,0,4.347,1.872,4.474,4.263c0.011,0.208,0.15,0.387,0.349,0.45c0.05,0.016,0.101,0.024,0.152,0.024 c0.15,0,0.296-0.069,0.392-0.192C79.638,47.563,80.779,47,82,47c2.206,0,4,1.794,4,4c0,0.117-0.017,0.23-0.032,0.343l-0.019,0.141 c-0.016,0.134,0.022,0.268,0.106,0.373c0.084,0.105,0.207,0.172,0.34,0.185C88.451,52.247,90,53.949,90,56c0,2.206-1.794,4-4,4 h-6.125c-0.276,0-0.5,0.224-0.5,0.5s0.224,0.5,0.5,0.5H86c2.757,0,5-2.243,5-5c0-2.397-1.689-4.413-4.003-4.877 C86.999,51.082,87,51.041,87,51c0-2.757-2.243-5-5-5c-1.176,0-2.293,0.416-3.183,1.164C78.219,44.76,76.055,43,73.5,43L73.5,43z"/><path fill="#472b29" d="M72 50c-1.403 0-2.609.999-2.913 2.341C68.72 52.119 68.301 52 67.875 52c-1.202 0-2.198.897-2.353 2.068C65.319 54.022 65.126 54 64.938 54c-1.529 0-2.811 1.2-2.918 2.732C62.01 56.87 62.114 56.99 62.251 57c.006 0 .012 0 .018 0 .13 0 .24-.101.249-.232.089-1.271 1.151-2.268 2.419-2.268.229 0 .47.042.738.127.022.007.045.01.067.01.055 0 .11-.02.156-.054C65.962 54.537 66 54.455 66 54.375c0-1.034.841-1.875 1.875-1.875.447 0 .885.168 1.231.473.047.041.106.063.165.063.032 0 .063-.006.093-.019.088-.035.148-.117.155-.212C69.623 51.512 70.712 50.5 72 50.5c.208 0 .425.034.682.107.023.007.047.01.07.01.109 0 .207-.073.239-.182.038-.133-.039-.271-.172-.309C72.517 50.04 72.256 50 72 50L72 50zM85.883 51.5c-1.326 0-2.508.897-2.874 2.182-.038.133.039.271.172.309C83.205 53.997 83.228 54 83.25 54c.109 0 .209-.072.24-.182C83.795 52.748 84.779 52 85.883 52c.117 0 .23.014.342.029.012.002.023.003.035.003.121 0 .229-.092.246-.217.019-.137-.077-.263-.214-.281C86.158 51.516 86.022 51.5 85.883 51.5L85.883 51.5z"/><path fill="#fff" d="M15.405 51H5.5C5.224 51 5 50.776 5 50.5S5.224 50 5.5 50h9.905c.276 0 .5.224.5.5S15.682 51 15.405 51zM18.5 51h-1c-.276 0-.5-.224-.5-.5s.224-.5.5-.5h1c.276 0 .5.224.5.5S18.777 51 18.5 51zM23.491 53H14.5c-.276 0-.5-.224-.5-.5s.224-.5.5-.5h8.991c.276 0 .5.224.5.5S23.767 53 23.491 53zM12.5 53h-1c-.276 0-.5-.224-.5-.5s.224-.5.5-.5h1c.276 0 .5.224.5.5S12.777 53 12.5 53zM9.5 53h-2C7.224 53 7 52.776 7 52.5S7.224 52 7.5 52h2c.276 0 .5.224.5.5S9.777 53 9.5 53zM15.5 55h-2c-.276 0-.5-.224-.5-.5s.224-.5.5-.5h2c.276 0 .5.224.5.5S15.776 55 15.5 55zM18.5 46c-.177 0-.823 0-1 0-.276 0-.5.224-.5.5 0 .276.224.5.5.5.177 0 .823 0 1 0 .276 0 .5-.224.5-.5C19 46.224 18.776 46 18.5 46zM18.5 48c-.177 0-4.823 0-5 0-.276 0-.5.224-.5.5 0 .276.224.5.5.5.177 0 4.823 0 5 0 .276 0 .5-.224.5-.5C19 48.224 18.776 48 18.5 48zM23.5 50c-.177 0-2.823 0-3 0-.276 0-.5.224-.5.5 0 .276.224.5.5.5.177 0 2.823 0 3 0 .276 0 .5-.224.5-.5C24 50.224 23.776 50 23.5 50zM72.5 24h-10c-.276 0-.5-.224-.5-.5s.224-.5.5-.5h10c.276 0 .5.224.5.5S72.776 24 72.5 24zM76.5 24h-2c-.276 0-.5-.224-.5-.5s.224-.5.5-.5h2c.276 0 .5.224.5.5S76.776 24 76.5 24zM81.5 26h-10c-.276 0-.5-.224-.5-.5s.224-.5.5-.5h10c.276 0 .5.224.5.5S81.777 26 81.5 26zM69.5 26h-1c-.276 0-.5-.224-.5-.5s.224-.5.5-.5h1c.276 0 .5.224.5.5S69.776 26 69.5 26zM66.375 26H64.5c-.276 0-.5-.224-.5-.5s.224-.5.5-.5h1.875c.276 0 .5.224.5.5S66.651 26 66.375 26zM75.5 22h-5c-.276 0-.5-.224-.5-.5s.224-.5.5-.5h5c.276 0 .5.224.5.5S75.777 22 75.5 22zM72.5 28h-2c-.276 0-.5-.224-.5-.5s.224-.5.5-.5h2c.276 0 .5.224.5.5S72.776 28 72.5 28z"/><path fill="#fefdef" d="M37,71.3c-4.025,0-7.3-3.274-7.3-7.3V36c0-4.025,3.274-7.3,7.3-7.3h28c4.025,0,7.3,3.274,7.3,7.3 v28c0,4.025-3.274,7.3-7.3,7.3H37z"/><path fill="#472b29" d="M65,29.4c3.639,0,6.6,2.961,6.6,6.6v28c0,3.639-2.961,6.6-6.6,6.6H37c-3.639,0-6.6-2.961-6.6-6.6 V36c0-3.639,2.961-6.6,6.6-6.6H65 M65,28H37c-4.418,0-8,3.582-8,8v28c0,4.418,3.582,8,8,8h28c4.418,0,8-3.582,8-8V36 C73,31.582,69.418,28,65,28L65,28z"/><path fill="#472b29" d="M66.938,35.938h-3.875c-0.276,0-0.5-0.224-0.5-0.5s0.224-0.5,0.5-0.5h3.875 c0.276,0,0.5,0.224,0.5,0.5S67.214,35.938,66.938,35.938z"/><g><path fill="#472b29" d="M37.001,65.938h-6.938c-0.276,0-0.5-0.224-0.5-0.5s0.224-0.5,0.5-0.5h6.938 c0.276,0,0.5,0.224,0.5,0.5S37.278,65.938,37.001,65.938z"/></g><g><path fill="#472b29" d="M72,65.938H40.071c-0.276,0-0.5-0.224-0.5-0.5s0.224-0.5,0.5-0.5H72c0.276,0,0.5,0.224,0.5,0.5 S72.276,65.938,72,65.938z"/></g><g><path fill="#472b29" d="M59.95,35.938H30.013c-0.276,0-0.5-0.224-0.5-0.5s0.224-0.5,0.5-0.5H59.95 c0.276,0,0.5,0.224,0.5,0.5S60.227,35.938,59.95,35.938z"/></g><g><path fill="#472b29" d="M43,40.938h-9.989c-0.276,0-0.5-0.224-0.5-0.5s0.224-0.5,0.5-0.5H43c0.276,0,0.5,0.224,0.5,0.5 S43.276,40.938,43,40.938z"/></g><g><path fill="#472b29" d="M46.5,63.5c-0.276,0-0.5-0.224-0.5-0.5V37.944c0-0.276,0.224-0.5,0.5-0.5s0.5,0.224,0.5,0.5V63 C47,63.276,46.776,63.5,46.5,63.5z"/></g><g><path fill="#472b29" d="M43,45.938h-9.989c-0.276,0-0.5-0.224-0.5-0.5s0.224-0.5,0.5-0.5H43c0.276,0,0.5,0.224,0.5,0.5 S43.276,45.938,43,45.938z"/></g><g><path fill="#472b29" d="M43,50.938h-9.989c-0.276,0-0.5-0.224-0.5-0.5s0.224-0.5,0.5-0.5H43c0.276,0,0.5,0.224,0.5,0.5 S43.276,50.938,43,50.938z"/></g><g><path fill="#472b29" d="M43,55.938h-9.989c-0.276,0-0.5-0.224-0.5-0.5s0.224-0.5,0.5-0.5H43c0.276,0,0.5,0.224,0.5,0.5 S43.276,55.938,43,55.938z"/></g><g><path fill="#472b29" d="M43,60.938h-9.989c-0.276,0-0.5-0.224-0.5-0.5s0.224-0.5,0.5-0.5H43c0.276,0,0.5,0.224,0.5,0.5 S43.276,60.938,43,60.938z"/></g><g><path fill="#472b29" d="M56,55.938H50.01c-0.276,0-0.5-0.224-0.5-0.5s0.224-0.5,0.5-0.5H56c0.276,0,0.5,0.224,0.5,0.5 S56.276,55.938,56,55.938z"/></g><g><path fill="#472b29" d="M56,60.938H50.01c-0.276,0-0.5-0.224-0.5-0.5s0.224-0.5,0.5-0.5H56c0.276,0,0.5,0.224,0.5,0.5 S56.276,60.938,56,60.938z"/></g><g><path fill="#472b29" d="M71.938,35.938h-2c-0.276,0-0.5-0.224-0.5-0.5s0.224-0.5,0.5-0.5h2c0.276,0,0.5,0.224,0.5,0.5 S72.214,35.938,71.938,35.938z"/></g><g><path fill="#ee3e54" d="M37.313 31.064A1.265 1.265 0 1 0 37.313 33.594A1.265 1.265 0 1 0 37.313 31.064Z"/><path fill="#472b29" d="M37.313,33.893c-0.862,0-1.564-0.702-1.564-1.564c0-0.863,0.702-1.564,1.564-1.564 s1.564,0.702,1.564,1.564S38.175,33.893,37.313,33.893z M37.313,31.364c-0.532,0-0.965,0.433-0.965,0.965 c0,0.532,0.433,0.965,0.965,0.965s0.965-0.433,0.965-0.965C38.278,31.797,37.845,31.364,37.313,31.364z"/><path fill="#f1bc19" d="M41.739 31.064A1.265 1.265 0 1 0 41.739 33.594A1.265 1.265 0 1 0 41.739 31.064Z"/><path fill="#472b29" d="M41.739,33.893c-0.862,0-1.563-0.702-1.563-1.564c0-0.863,0.701-1.564,1.563-1.564 s1.564,0.702,1.564,1.564C43.303,33.191,42.601,33.893,41.739,33.893z M41.739,31.364c-0.531,0-0.964,0.433-0.964,0.965 c0,0.532,0.433,0.965,0.964,0.965c0.532,0,0.965-0.433,0.965-0.965C42.704,31.797,42.271,31.364,41.739,31.364z"/><g><path fill="#88ae45" d="M46.165 31.064A1.265 1.265 0 1 0 46.165 33.594A1.265 1.265 0 1 0 46.165 31.064Z"/><path fill="#472b29" d="M46.166,33.893c-0.862,0-1.564-0.702-1.564-1.564c0-0.863,0.702-1.564,1.564-1.564 s1.563,0.702,1.563,1.564S47.028,33.893,46.166,33.893z M46.166,31.364c-0.532,0-0.965,0.433-0.965,0.965 c0,0.532,0.433,0.965,0.965,0.965c0.531,0,0.964-0.433,0.964-0.965C47.129,31.797,46.697,31.364,46.166,31.364z"/></g></g><g><path fill="#fef6aa" d="M50.5 39.5H68.5V49.5H50.5z"/></g><g><path fill="#fef6aa" d="M51.667 49.5L50.5 49.5 50.5 39.5 68.5 39.5 68.5 49.5 56.833 49.5"/><path fill="#472b29" d="M68.5,50H56.833c-0.276,0-0.5-0.224-0.5-0.5s0.224-0.5,0.5-0.5H68v-9H51v9h0.667 c0.276,0,0.5,0.224,0.5,0.5s-0.224,0.5-0.5,0.5H50.5c-0.276,0-0.5-0.224-0.5-0.5v-10c0-0.276,0.224-0.5,0.5-0.5h18 c0.276,0,0.5,0.224,0.5,0.5v10C69,49.776,68.776,50,68.5,50z"/></g><g><path fill="#472b29" d="M55.063,50H53.5c-0.276,0-0.5-0.224-0.5-0.5s0.224-0.5,0.5-0.5h1.563c0.276,0,0.5,0.224,0.5,0.5 S55.339,50,55.063,50z"/></g><g><path fill="#fef6aa" d="M59.5 52.5H68.5V62.5H59.5z"/><path fill="#472b29" d="M68.5,63h-9c-0.276,0-0.5-0.224-0.5-0.5v-10c0-0.276,0.224-0.5,0.5-0.5h9c0.276,0,0.5,0.224,0.5,0.5 v10C69,62.776,68.776,63,68.5,63z M60,62h8v-9h-8V62z"/></g><g><path fill="#fdfcef" d="M36.5,74.5c0,0,1.567,0,3.5,0s3.5-1.567,3.5-3.5c0-1.781-1.335-3.234-3.055-3.455 C40.473,67.366,40.5,67.187,40.5,67c0-1.933-1.567-3.5-3.5-3.5c-1.032,0-1.95,0.455-2.59,1.165 c-0.384-1.808-1.987-3.165-3.91-3.165c-2.209,0-4,1.791-4,4c0,0.191,0.03,0.374,0.056,0.558C26.128,65.714,25.592,65.5,25,65.5 c-1.228,0-2.245,0.887-2.455,2.055C22.366,67.527,22.187,67.5,22,67.5c-1.933,0-3.5,1.567-3.5,3.5s1.567,3.5,3.5,3.5s7.5,0,7.5,0 V75h7V74.5z"/><path fill="#472b29" d="M38.25 70C38.112 70 38 69.888 38 69.75c0-1.223.995-2.218 2.218-2.218.034.009.737-.001 1.244.136.133.036.212.173.176.306-.036.134-.173.213-.306.176-.444-.12-1.1-.12-1.113-.118-.948 0-1.719.771-1.719 1.718C38.5 69.888 38.388 70 38.25 70zM31.5 74A.5.5 0 1 0 31.5 75 .5.5 0 1 0 31.5 74z"/><path fill="#472b29" d="M40,75h-3.5c-0.276,0-0.5-0.224-0.5-0.5s0.224-0.5,0.5-0.5H40c1.654,0,3-1.346,3-3 c0-1.496-1.125-2.768-2.618-2.959c-0.134-0.018-0.255-0.088-0.336-0.196s-0.115-0.244-0.094-0.377C39.975,67.314,40,67.16,40,67 c0-1.654-1.346-3-3-3c-0.85,0-1.638,0.355-2.219,1c-0.125,0.139-0.321,0.198-0.5,0.148c-0.182-0.049-0.321-0.195-0.36-0.379 C33.58,63.165,32.141,62,30.5,62c-1.93,0-3.5,1.57-3.5,3.5c0,0.143,0.021,0.28,0.041,0.418c0.029,0.203-0.063,0.438-0.242,0.54 c-0.179,0.102-0.396,0.118-0.556-0.01C25.878,66.155,25.449,66,25,66c-0.966,0-1.792,0.691-1.963,1.644 c-0.048,0.267-0.296,0.446-0.569,0.405C22.314,68.025,22.16,68,22,68c-1.654,0-3,1.346-3,3s1.346,3,3,3h7.5 c0.276,0,0.5,0.224,0.5,0.5S29.776,75,29.5,75H22c-2.206,0-4-1.794-4-4s1.794-4,4-4c0.059,0,0.116,0.002,0.174,0.006 C22.588,65.82,23.711,65,25,65c0.349,0,0.689,0.061,1.011,0.18C26.176,62.847,28.126,61,30.5,61c1.831,0,3.466,1.127,4.153,2.774 C35.333,63.276,36.155,63,37,63c2.206,0,4,1.794,4,4c0,0.048-0.001,0.095-0.004,0.142C42.739,67.59,44,69.169,44,71 C44,73.206,42.206,75,40,75z"/><path fill="#472b29" d="M34.5,74c-0.159,0-0.841,0-1,0c-0.276,0-0.5,0.224-0.5,0.5c0,0.276,0.224,0.5,0.5,0.5 c0.159,0,0.841,0,1,0c0.276,0,0.5-0.224,0.5-0.5C35,74.224,34.776,74,34.5,74z"/></g></svg>