<svg xmlns="http://www.w3.org/2000/svg"  viewBox="0 0 100 100" width="500px" height="500px"><path fill="#c7ede6" d="M87.215,56.71C88.35,54.555,89,52.105,89,49.5c0-6.621-4.159-12.257-10.001-14.478 C78.999,35.015,79,35.008,79,35c0-11.598-9.402-21-21-21c-9.784,0-17.981,6.701-20.313,15.757C36.211,29.272,34.638,29,33,29 c-7.692,0-14.023,5.793-14.89,13.252C12.906,43.353,9,47.969,9,53.5C9,59.851,14.149,65,20.5,65c0.177,0,0.352-0.012,0.526-0.022 C21.022,65.153,21,65.324,21,65.5C21,76.822,30.178,86,41.5,86c6.437,0,12.175-2.972,15.934-7.614C59.612,80.611,62.64,82,66,82 c4.65,0,8.674-2.65,10.666-6.518C77.718,75.817,78.837,76,80,76c6.075,0,11-4.925,11-11C91,61.689,89.53,58.727,87.215,56.71z"/><path fill="#fdfcef" d="M69.125,36.5c0,0-3.64,0-6.125,0s-4.5-2.015-4.5-4.5c0-2.333,1.782-4.229,4.055-4.455 C62.533,27.364,62.5,27.187,62.5,27c0-2.485,2.015-4.5,4.5-4.5c1.438,0,2.703,0.686,3.527,1.736 C70.667,21.6,72.829,19.5,75.5,19.5c2.761,0,5,2.239,5,5c0,0.446-0.077,0.87-0.187,1.282c0.642-0.777,1.6-1.282,2.687-1.282 c1.781,0,3.234,1.335,3.455,3.055C86.636,27.533,86.813,27.5,87,27.5c2.485,0,4.5,2.015,4.5,4.5s-2.015,4.5-4.5,4.5s-9.5,0-9.5,0 h-5.375V37h-3V36.5z"/><path fill="#472b29" d="M75.5,19c3.033,0,5.5,2.467,5.5,5.5c0,0.016,0,0.031,0,0.047C81.602,24.192,82.29,24,83,24 c1.831,0,3.411,1.261,3.858,3.005C86.905,27.002,86.952,27,87,27c2.757,0,5,2.243,5,5s-2.243,5-5,5H72.125 c-0.276,0-0.5-0.224-0.5-0.5s0.224-0.5,0.5-0.5H87c2.206,0,4-1.794,4-4s-1.794-4-4-4c-0.117,0-0.23,0.017-0.343,0.032 l-0.141,0.019c-0.021,0.003-0.041,0.004-0.062,0.004c-0.246,0-0.462-0.185-0.495-0.437C85.768,26.125,84.496,25,83,25 c-0.885,0-1.723,0.401-2.301,1.1c-0.098,0.118-0.241,0.182-0.386,0.182c-0.078,0-0.156-0.018-0.228-0.056 c-0.209-0.107-0.314-0.346-0.254-0.573C79.946,25.218,80,24.852,80,24.5c0-2.481-2.019-4.5-4.5-4.5 c-2.381,0-4.347,1.872-4.474,4.263c-0.011,0.208-0.15,0.387-0.349,0.45c-0.05,0.016-0.101,0.024-0.152,0.024 c-0.15,0-0.296-0.069-0.392-0.192C69.362,23.563,68.221,23,67,23c-2.206,0-4,1.794-4,4c0,0.117,0.017,0.23,0.032,0.343 l0.019,0.141c0.016,0.134-0.022,0.268-0.106,0.373c-0.084,0.105-0.207,0.172-0.34,0.185C60.549,28.247,59,29.949,59,32 c0,2.206,1.794,4,4,4h6.125c0.276,0,0.5,0.224,0.5,0.5s-0.224,0.5-0.5,0.5H63c-2.757,0-5-2.243-5-5 c0-2.397,1.689-4.413,4.003-4.877C62.001,27.082,62,27.041,62,27c0-2.757,2.243-5,5-5c1.176,0,2.293,0.416,3.183,1.164 C70.781,20.76,72.945,19,75.5,19L75.5,19z"/><path fill="#472b29" d="M77,26c1.403,0,2.609,0.999,2.913,2.341C80.28,28.119,80.699,28,81.125,28 c1.202,0,2.198,0.897,2.353,2.068C83.681,30.022,83.874,30,84.063,30c1.529,0,2.811,1.2,2.918,2.732 C86.99,32.87,86.886,32.99,86.749,33c-0.006,0-0.012,0-0.018,0c-0.13,0-0.24-0.101-0.249-0.232 c-0.089-1.271-1.151-2.268-2.419-2.268c-0.229,0-0.47,0.042-0.738,0.127c-0.022,0.007-0.045,0.01-0.067,0.01 c-0.055,0-0.11-0.02-0.156-0.054C83.038,30.537,83,30.455,83,30.375c0-1.034-0.841-1.875-1.875-1.875 c-0.447,0-0.885,0.168-1.231,0.473c-0.047,0.041-0.106,0.063-0.165,0.063c-0.032,0-0.063-0.006-0.093-0.019 c-0.088-0.035-0.148-0.117-0.155-0.212C79.377,27.512,78.288,26.5,77,26.5c-0.208,0-0.425,0.034-0.682,0.107 c-0.023,0.007-0.047,0.01-0.07,0.01c-0.109,0-0.207-0.073-0.239-0.182c-0.038-0.133,0.039-0.271,0.172-0.309 C76.483,26.04,76.744,26,77,26L77,26z"/><path fill="#472b29" d="M63.117,27.5c1.326,0,2.508,0.897,2.874,2.182c0.038,0.133-0.039,0.271-0.172,0.309 C65.795,29.997,65.772,30,65.75,30c-0.109,0-0.209-0.072-0.24-0.182C65.205,28.748,64.221,28,63.117,28 c-0.117,0-0.23,0.014-0.342,0.029c-0.012,0.002-0.023,0.003-0.035,0.003c-0.121,0-0.229-0.092-0.246-0.217 c-0.019-0.137,0.077-0.263,0.214-0.281C62.842,27.516,62.978,27.5,63.117,27.5L63.117,27.5z"/><path fill="#fff" d="M20.405,42H10.5c-0.276,0-0.5-0.224-0.5-0.5s0.224-0.5,0.5-0.5h9.905c0.276,0,0.5,0.224,0.5,0.5 S20.682,42,20.405,42z"/><path fill="#fff" d="M23.5,42h-1c-0.276,0-0.5-0.224-0.5-0.5s0.224-0.5,0.5-0.5h1c0.276,0,0.5,0.224,0.5,0.5 S23.777,42,23.5,42z"/><path fill="#fff" d="M28.491,44H19.5c-0.276,0-0.5-0.224-0.5-0.5s0.224-0.5,0.5-0.5h8.991c0.276,0,0.5,0.224,0.5,0.5 S28.767,44,28.491,44z"/><path fill="#fff" d="M17.5,44h-1c-0.276,0-0.5-0.224-0.5-0.5s0.224-0.5,0.5-0.5h1c0.276,0,0.5,0.224,0.5,0.5 S17.777,44,17.5,44z"/><path fill="#fff" d="M14.5,44h-2c-0.276,0-0.5-0.224-0.5-0.5s0.224-0.5,0.5-0.5h2c0.276,0,0.5,0.224,0.5,0.5 S14.777,44,14.5,44z"/><path fill="#fff" d="M20.5,46h-2c-0.276,0-0.5-0.224-0.5-0.5s0.224-0.5,0.5-0.5h2c0.276,0,0.5,0.224,0.5,0.5 S20.776,46,20.5,46z"/><path fill="#fff" d="M23.5,37c-0.177,0-0.823,0-1,0c-0.276,0-0.5,0.224-0.5,0.5c0,0.276,0.224,0.5,0.5,0.5 c0.177,0,0.823,0,1,0c0.276,0,0.5-0.224,0.5-0.5C24,37.224,23.776,37,23.5,37z"/><path fill="#fff" d="M23.5,39c-0.177,0-4.823,0-5,0c-0.276,0-0.5,0.224-0.5,0.5c0,0.276,0.224,0.5,0.5,0.5 c0.177,0,4.823,0,5,0c0.276,0,0.5-0.224,0.5-0.5C24,39.224,23.776,39,23.5,39z"/><path fill="#fff" d="M28.5,41c-0.177,0-2.823,0-3,0c-0.276,0-0.5,0.224-0.5,0.5c0,0.276,0.224,0.5,0.5,0.5 c0.177,0,2.823,0,3,0c0.276,0,0.5-0.224,0.5-0.5C29,41.224,28.776,41,28.5,41z"/><path fill="#fff" d="M87.5,64h-10c-0.276,0-0.5-0.224-0.5-0.5s0.224-0.5,0.5-0.5h10c0.276,0,0.5,0.224,0.5,0.5 S87.776,64,87.5,64z"/><path fill="#fff" d="M91.5,64h-2c-0.276,0-0.5-0.224-0.5-0.5s0.224-0.5,0.5-0.5h2c0.276,0,0.5,0.224,0.5,0.5 S91.776,64,91.5,64z"/><path fill="#fff" d="M96.5,66h-10c-0.276,0-0.5-0.224-0.5-0.5s0.224-0.5,0.5-0.5h10c0.276,0,0.5,0.224,0.5,0.5 S96.777,66,96.5,66z"/><path fill="#fff" d="M84.5,66h-1c-0.276,0-0.5-0.224-0.5-0.5s0.224-0.5,0.5-0.5h1c0.276,0,0.5,0.224,0.5,0.5 S84.776,66,84.5,66z"/><path fill="#fff" d="M81.47,66H79.5c-0.276,0-0.5-0.224-0.5-0.5s0.224-0.5,0.5-0.5h1.97c0.276,0,0.5,0.224,0.5,0.5 S81.746,66,81.47,66z"/><path fill="#fff" d="M90.5,62h-5c-0.276,0-0.5-0.224-0.5-0.5s0.224-0.5,0.5-0.5h5c0.276,0,0.5,0.224,0.5,0.5 S90.777,62,90.5,62z"/><path fill="#fff" d="M87.5,68h-2c-0.276,0-0.5-0.224-0.5-0.5s0.224-0.5,0.5-0.5h2c0.276,0,0.5,0.224,0.5,0.5 S87.776,68,87.5,68z"/><g><path fill="#fdfcef" d="M23.5,69.5c0,0-1.567,0-3.5,0s-3.5-1.567-3.5-3.5c0-1.781,1.335-3.234,3.055-3.455 C19.527,62.366,19.5,62.187,19.5,62c0-1.933,1.567-3.5,3.5-3.5c1.032,0,1.95,0.455,2.59,1.165c0.384-1.808,1.987-3.165,3.91-3.165 c2.209,0,4,1.791,4,4c0,0.191-0.03,0.374-0.056,0.558C33.872,60.714,34.408,60.5,35,60.5c1.228,0,2.245,0.887,2.455,2.055 C37.634,62.527,37.813,62.5,38,62.5c1.933,0,3.5,1.567,3.5,3.5s-1.567,3.5-3.5,3.5s-7.5,0-7.5,0V70h-7V69.5z"/><path fill="#472b29" d="M21.75,65c0.138,0,0.25-0.112,0.25-0.25c0-1.223-0.995-2.218-2.218-2.218 c-0.034,0.009-0.737-0.001-1.244,0.136c-0.133,0.036-0.212,0.173-0.176,0.306c0.036,0.134,0.173,0.213,0.306,0.176 c0.444-0.12,1.1-0.12,1.113-0.118c0.948,0,1.719,0.771,1.719,1.718C21.5,64.888,21.612,65,21.75,65z"/><circle cx="28.5" cy="69.5" r=".5" fill="#472b29"/><path fill="#472b29" d="M20,70h3.5c0.276,0,0.5-0.224,0.5-0.5S23.776,69,23.5,69H20c-1.654,0-3-1.346-3-3 c0-1.496,1.125-2.768,2.618-2.959c0.134-0.018,0.255-0.088,0.336-0.196s0.115-0.244,0.094-0.377C20.025,62.314,20,62.16,20,62 c0-1.654,1.346-3,3-3c0.85,0,1.638,0.355,2.219,1c0.125,0.139,0.321,0.198,0.5,0.148c0.182-0.049,0.321-0.195,0.36-0.379 C26.42,58.165,27.859,57,29.5,57c1.93,0,3.5,1.57,3.5,3.5c0,0.143-0.021,0.28-0.041,0.418c-0.029,0.203,0.063,0.438,0.242,0.54 c0.179,0.102,0.396,0.118,0.556-0.01C34.122,61.155,34.551,61,35,61c0.966,0,1.792,0.691,1.963,1.644 c0.048,0.267,0.296,0.446,0.569,0.405C37.686,63.025,37.84,63,38,63c1.654,0,3,1.346,3,3s-1.346,3-3,3h-7.5 c-0.276,0-0.5,0.224-0.5,0.5s0.224,0.5,0.5,0.5H38c2.206,0,4-1.794,4-4s-1.794-4-4-4c-0.059,0-0.116,0.002-0.174,0.006 C37.412,60.82,36.289,60,35,60c-0.349,0-0.689,0.061-1.011,0.18C33.824,57.847,31.874,56,29.5,56 c-1.831,0-3.466,1.127-4.153,2.774C24.667,58.276,23.845,58,23,58c-2.206,0-4,1.794-4,4c0,0.048,0.001,0.095,0.004,0.142 C17.261,62.59,16,64.169,16,66C16,68.206,17.794,70,20,70z"/><path fill="#472b29" d="M25.5,69c0.159,0,0.841,0,1,0c0.276,0,0.5,0.224,0.5,0.5c0,0.276-0.224,0.5-0.5,0.5 c-0.159,0-0.841,0-1,0c-0.276,0-0.5-0.224-0.5-0.5C25,69.224,25.224,69,25.5,69z"/></g><g><path fill="#88ae45" d="M68.625,75h-31.25C33.854,75,31,72.146,31,68.625v-31.25C31,33.854,33.854,31,37.375,31h31.25 C72.146,31,75,33.854,75,37.375v31.25C75,72.146,72.146,75,68.625,75z"/></g><g><path fill="#472b29" d="M34.5,47.75c-0.138,0-0.25-0.112-0.25-0.25v-7.969c0-0.138,0.112-0.25,0.25-0.25 s0.25,0.112,0.25,0.25V47.5C34.75,47.638,34.638,47.75,34.5,47.75z"/></g><g><path fill="#472b29" d="M46.813,71.75h-9.281c-1.81,0-3.281-1.472-3.281-3.281V51.25c0-0.138,0.112-0.25,0.25-0.25 s0.25,0.112,0.25,0.25v17.219c0,1.534,1.248,2.781,2.781,2.781h9.281c0.138,0,0.25,0.112,0.25,0.25S46.95,71.75,46.813,71.75z"/></g><g><path fill="#472b29" d="M61.063,71.75h-11c-0.138,0-0.25-0.112-0.25-0.25s0.112-0.25,0.25-0.25h11 c0.138,0,0.25,0.112,0.25,0.25S61.2,71.75,61.063,71.75z"/></g><g><path fill="#472b29" d="M66.469,71.75h-3.156c-0.138,0-0.25-0.112-0.25-0.25s0.112-0.25,0.25-0.25h3.156 c0.138,0,0.25,0.112,0.25,0.25S66.606,71.75,66.469,71.75z"/></g><g><path fill="#472b29" d="M71.5,66.719c-0.138,0-0.25-0.112-0.25-0.25v-3.156c0-0.138,0.112-0.25,0.25-0.25 s0.25,0.112,0.25,0.25v3.156C71.75,66.607,71.638,66.719,71.5,66.719z"/></g><g><path fill="#472b29" d="M71.5,61c-0.138,0-0.25-0.112-0.25-0.25V37.531c0-1.534-1.248-2.781-2.781-2.781H56.313 c-0.138,0-0.25-0.112-0.25-0.25s0.112-0.25,0.25-0.25h12.156c1.81,0,3.281,1.472,3.281,3.281V60.75C71.75,60.888,71.638,61,71.5,61 z"/></g><g><path fill="#472b29" d="M53,34.75H39c-0.138,0-0.25-0.112-0.25-0.25s0.112-0.25,0.25-0.25h14c0.138,0,0.25,0.112,0.25,0.25 S53.138,34.75,53,34.75z"/></g><g><path fill="#fbcd59" d="M64.5,36.5c-2.761,0-5,2.239-5,5c0,0.833,0.223,1.605,0.583,2.296L43.796,60.083 c-0.69-0.36-1.463-0.583-2.296-0.583c-2.761,0-5,2.239-5,5s2.239,5,5,5s5-2.239,5-5c0-0.833-0.223-1.605-0.583-2.296l16.287-16.287 c0.69,0.36,1.463,0.583,2.296,0.583c2.761,0,5-2.239,5-5S67.261,36.5,64.5,36.5z M41.5,66.5c-1.105,0-2-0.896-2-2s0.895-2,2-2 s2,0.896,2,2S42.605,66.5,41.5,66.5z M64.5,43.5c-1.105,0-2-0.896-2-2s0.895-2,2-2s2,0.896,2,2S65.605,43.5,64.5,43.5z"/><path fill="#472b29" d="M41.5,70c-3.032,0-5.5-2.467-5.5-5.5s2.468-5.5,5.5-5.5c0.746,0,1.482,0.161,2.193,0.478 l15.785-15.785C59.161,42.982,59,42.246,59,41.5c0-3.033,2.468-5.5,5.5-5.5s5.5,2.467,5.5,5.5S67.532,47,64.5,47 c-0.746,0-1.482-0.161-2.193-0.478L46.521,62.306C46.839,63.018,47,63.754,47,64.5C47,67.533,44.532,70,41.5,70z M41.5,60 c-2.481,0-4.5,2.019-4.5,4.5s2.019,4.5,4.5,4.5s4.5-2.019,4.5-4.5c0-0.701-0.177-1.396-0.526-2.064 c-0.101-0.194-0.064-0.431,0.09-0.585l16.287-16.287c0.153-0.155,0.391-0.191,0.585-0.09C63.104,45.823,63.799,46,64.5,46 c2.481,0,4.5-2.019,4.5-4.5S66.981,37,64.5,37S60,39.019,60,41.5c0,0.701,0.177,1.396,0.526,2.064 c0.101,0.194,0.064,0.431-0.09,0.585L44.149,60.437c-0.155,0.155-0.393,0.19-0.585,0.09C42.896,60.177,42.201,60,41.5,60z M41.5,67 c-1.379,0-2.5-1.122-2.5-2.5s1.121-2.5,2.5-2.5s2.5,1.122,2.5,2.5S42.879,67,41.5,67z M41.5,63c-0.827,0-1.5,0.673-1.5,1.5 s0.673,1.5,1.5,1.5s1.5-0.673,1.5-1.5S42.327,63,41.5,63z M64.5,44c-1.379,0-2.5-1.122-2.5-2.5s1.121-2.5,2.5-2.5 s2.5,1.122,2.5,2.5S65.879,44,64.5,44z M64.5,40c-0.827,0-1.5,0.673-1.5,1.5s0.673,1.5,1.5,1.5s1.5-0.673,1.5-1.5 S65.327,40,64.5,40z"/></g><g><path fill="#472b29" d="M68.625,32.4c2.743,0,4.975,2.232,4.975,4.975v31.25c0,2.743-2.232,4.975-4.975,4.975h-31.25 c-2.743,0-4.975-2.232-4.975-4.975v-31.25c0-2.743,2.232-4.975,4.975-4.975H68.625 M68.625,31h-31.25 C33.854,31,31,33.854,31,37.375v31.25C31,72.146,33.854,75,37.375,75h31.25C72.146,75,75,72.146,75,68.625v-31.25 C75,33.854,72.146,31,68.625,31L68.625,31z"/></g><g><path fill="#fbcd59" d="M62.5,67.5c0.833,0,1.605-0.223,2.296-0.583l6.583,6.61c0.865-0.529,1.592-1.256,2.121-2.121 l-6.583-6.61c0.36-0.69,0.583-1.463,0.583-2.296c0-2.761-2.239-5-5-5s-5,2.239-5,5S59.739,67.5,62.5,67.5z M62.5,60.5 c1.104,0,2,0.896,2,2s-0.896,2-2,2s-2-0.896-2-2S61.396,60.5,62.5,60.5z"/><path fill="#472b29" d="M71.379,74.027c-0.13,0-0.258-0.05-0.354-0.147l-6.332-6.358C63.982,67.839,63.246,68,62.5,68 c-3.032,0-5.5-2.467-5.5-5.5s2.468-5.5,5.5-5.5s5.5,2.467,5.5,5.5c0,0.747-0.161,1.483-0.479,2.194l6.333,6.359 c0.162,0.163,0.192,0.417,0.072,0.614c-0.568,0.929-1.359,1.72-2.287,2.287C71.559,74.003,71.469,74.027,71.379,74.027z M64.796,66.417c0.13,0,0.258,0.051,0.354,0.147l6.295,6.321c0.546-0.386,1.026-0.867,1.414-1.414l-6.297-6.323 c-0.153-0.155-0.189-0.391-0.089-0.584C66.823,63.896,67,63.201,67,62.5c0-2.481-2.019-4.5-4.5-4.5S58,60.019,58,62.5 s2.019,4.5,4.5,4.5c0.701,0,1.396-0.177,2.064-0.526C64.638,66.436,64.717,66.417,64.796,66.417z M62.5,65 c-1.379,0-2.5-1.122-2.5-2.5s1.121-2.5,2.5-2.5s2.5,1.122,2.5,2.5S63.879,65,62.5,65z M62.5,61c-0.827,0-1.5,0.673-1.5,1.5 s0.673,1.5,1.5,1.5s1.5-0.673,1.5-1.5S63.327,61,62.5,61z"/></g><g><path fill="#fbcd59" d="M44.5,39.5c-0.833,0-1.605,0.223-2.296,0.583l-7.536-7.563c-0.865,0.529-1.592,1.256-2.121,2.121 l7.536,7.563c-0.36,0.69-0.583,1.463-0.583,2.296c0,2.761,2.239,5,5,5s5-2.239,5-5S47.261,39.5,44.5,39.5z M44.5,46.5 c-1.104,0-2-0.896-2-2s0.896-2,2-2s2,0.896,2,2S45.604,46.5,44.5,46.5z"/><path fill="#472b29" d="M44.5,50c-3.032,0-5.5-2.467-5.5-5.5c0-0.746,0.161-1.483,0.479-2.194l-7.286-7.312 C32.03,34.83,32,34.576,32.12,34.38c0.568-0.929,1.359-1.72,2.287-2.287c0.196-0.12,0.451-0.091,0.615,0.073l7.284,7.312 C43.018,39.161,43.754,39,44.5,39c3.032,0,5.5,2.467,5.5,5.5S47.532,50,44.5,50z M33.188,34.576l7.249,7.275 c0.153,0.155,0.189,0.391,0.089,0.584C40.177,43.104,40,43.799,40,44.5c0,2.481,2.019,4.5,4.5,4.5s4.5-2.019,4.5-4.5 S46.981,40,44.5,40c-0.701,0-1.396,0.177-2.064,0.526c-0.193,0.101-0.43,0.065-0.586-0.09l-7.248-7.275 C34.056,33.548,33.575,34.029,33.188,34.576z M44.5,47c-1.379,0-2.5-1.122-2.5-2.5s1.121-2.5,2.5-2.5s2.5,1.122,2.5,2.5 S45.879,47,44.5,47z M44.5,43c-0.827,0-1.5,0.673-1.5,1.5s0.673,1.5,1.5,1.5s1.5-0.673,1.5-1.5S45.327,43,44.5,43z"/></g></svg>