<svg xmlns="http://www.w3.org/2000/svg"  viewBox="0 0 100 100" width="500px" height="500px"><path fill="#c7ede6" d="M88.355,56.248c0.299-0.614,0.563-1.259,0.792-1.935c2.622-7.739-1.343-17.008-9.693-19.245c-0.903-11.338-8.87-19.115-17.867-20.442c-10.298-1.519-19.733,5.023-22.872,15.422c-3.784-1.34-7.471-1.177-10.945,0.853c-1.576,0.729-3.018,1.805-4.312,3.22c-1.9,2.077-3.134,4.7-3.637,7.465c-0.745,0.117-1.477,0.235-2.167,0.482c-4.023,1.443-6.562,4.413-7.258,8.886c-0.434,2.785,0.441,5.564,0.929,6.687c1.927,4.436,6.396,6.952,10.936,6.286c0.226-0.033,0.554,0.069,0.749,0.232c0.24,7.091,3.683,13.362,8.848,16.944c8.287,5.748,18.949,3.977,25.675-3.905c2.882,2.948,6.312,4.38,10.342,3.86c4.006-0.517,7.117-2.728,9.387-6.322c1.048,0.282,2.043,0.689,3.071,0.801c4.025,0.44,7.294-1.161,9.692-4.78c0.918-1.385,1.786-3.181,1.786-6.328C91.811,61.184,90.523,58.229,88.355,56.248z"/><path fill="#fdfcef" d="M76.509,49.646c0,0,11.643,0,11.714,0c2.689,0,4.868-2.18,4.868-4.869c0-2.346-1.659-4.303-3.868-4.765c0.025-0.205,0.043-0.413,0.043-0.625c0-2.785-2.257-5.042-5.042-5.042c-1.644,0-3.1,0.791-4.02,2.008c-0.235-3.1-3.004-5.491-6.244-5.095c-2.369,0.29-4.328,2.121-4.764,4.467c-0.14,0.752-0.125,1.483,0.014,2.168c-0.635-0.684-1.539-1.115-2.546-1.115c-1.843,0-3.347,1.435-3.466,3.248c-0.837-0.185-1.747-0.173-2.706,0.187c-1.832,0.688-3.137,2.413-3.214,4.369c-0.108,2.778,2.111,5.064,4.864,5.064c0.209,0,0.944,0,1.114,0h10.109"/><path fill="#472b29" d="M88.223,50.146H76.509c-0.276,0-0.5-0.224-0.5-0.5s0.224-0.5,0.5-0.5h11.714c2.409,0,4.369-1.96,4.369-4.369c0-2.057-1.459-3.855-3.47-4.275c-0.255-0.053-0.426-0.292-0.394-0.551c0.023-0.185,0.039-0.373,0.039-0.564c0-2.505-2.038-4.542-4.542-4.542c-1.432,0-2.752,0.66-3.621,1.81c-0.125,0.167-0.338,0.241-0.54,0.178c-0.199-0.059-0.342-0.234-0.357-0.441c-0.104-1.371-0.775-2.659-1.842-3.533c-1.078-0.883-2.44-1.275-3.843-1.104c-2.156,0.264-3.938,1.935-4.333,4.062c-0.124,0.665-0.119,1.331,0.012,1.978c0.045,0.219-0.062,0.442-0.261,0.544c-0.199,0.103-0.443,0.06-0.595-0.104c-0.572-0.616-1.346-0.955-2.18-0.955c-1.561,0-2.864,1.221-2.967,2.78c-0.01,0.146-0.083,0.28-0.199,0.367c-0.117,0.087-0.268,0.118-0.408,0.088c-0.837-0.186-1.63-0.131-2.422,0.167c-1.661,0.624-2.823,2.199-2.89,3.92c-0.047,1.202,0.385,2.34,1.216,3.204c0.832,0.864,1.95,1.34,3.148,1.34h11.223c0.276,0,0.5,0.224,0.5,0.5s-0.224,0.5-0.5,0.5H62.142c-1.474,0-2.848-0.585-3.869-1.647c-1.021-1.062-1.552-2.46-1.495-3.936c0.083-2.118,1.504-4.054,3.537-4.817c0.797-0.299,1.621-0.399,2.457-0.298c0.376-1.815,1.991-3.168,3.891-3.168c0.681,0,1.347,0.178,1.934,0.506c0-0.382,0.035-0.767,0.106-1.151c0.475-2.552,2.611-4.556,5.195-4.872c1.674-0.208,3.308,0.265,4.599,1.323c0.999,0.819,1.708,1.941,2.029,3.177c1.008-0.911,2.309-1.417,3.697-1.417c3.056,0,5.542,2.486,5.542,5.542c0,0.083-0.002,0.165-0.007,0.246c2.245,0.67,3.832,2.767,3.832,5.144C93.591,47.738,91.183,50.146,88.223,50.146z"/><path fill="#fdfcef" d="M73.687,38.922c-1.801-0.118-3.351,1.126-3.462,2.778c-0.014,0.205-0.005,0.407,0.025,0.604c-0.347-0.392-0.862-0.659-1.452-0.697c-1.08-0.071-2.013,0.643-2.149,1.613c-0.197-0.054-0.401-0.09-0.614-0.104c-1.576-0.103-2.932,0.985-3.029,2.431"/><path fill="#472b29" d="M63.007,45.795c-0.006,0-0.012,0-0.017,0c-0.138-0.009-0.242-0.128-0.233-0.266c0.106-1.581,1.59-2.779,3.295-2.664c0.135,0.009,0.271,0.027,0.406,0.053c0.273-0.963,1.26-1.632,2.356-1.562c0.423,0.028,0.82,0.159,1.158,0.38c0.001-0.018,0.002-0.036,0.003-0.053c0.12-1.788,1.787-3.128,3.728-3.011c0.138,0.009,0.242,0.128,0.233,0.266c-0.009,0.137-0.122,0.248-0.266,0.233c-1.666-0.115-3.095,1.033-3.196,2.545c-0.012,0.183-0.004,0.368,0.023,0.549c0.017,0.109-0.041,0.217-0.141,0.264c-0.098,0.047-0.22,0.022-0.293-0.061c-0.322-0.363-0.777-0.581-1.281-0.614c-0.939-0.064-1.768,0.552-1.885,1.397c-0.01,0.071-0.05,0.135-0.11,0.174c-0.06,0.04-0.135,0.051-0.203,0.033c-0.189-0.051-0.379-0.083-0.565-0.096c-1.443-0.107-2.676,0.892-2.763,2.198C63.247,45.694,63.138,45.795,63.007,45.795z"/><path fill="#fdfcef" d="M90.194,40.584c-1.692-0.798-3.649-0.233-4.371,1.262c-0.09,0.186-0.156,0.377-0.2,0.571"/><path fill="#472b29" d="M85.623,42.666c-0.018,0-0.037-0.002-0.056-0.006c-0.135-0.031-0.219-0.165-0.188-0.299c0.05-0.217,0.123-0.427,0.219-0.624c0.781-1.615,2.891-2.232,4.702-1.379c0.125,0.059,0.179,0.208,0.12,0.333c-0.059,0.126-0.21,0.177-0.333,0.12c-1.566-0.739-3.378-0.225-4.039,1.145c-0.079,0.164-0.14,0.338-0.182,0.518C85.84,42.588,85.737,42.666,85.623,42.666z"/><path fill="#fff" d="M18.308 48.318H8.319c-.276 0-.5-.224-.5-.5s.224-.5.5-.5h9.989c.276 0 .5.224.5.5S18.585 48.318 18.308 48.318zM21.178 48.318h-1.44c-.276 0-.5-.224-.5-.5s.224-.5.5-.5h1.44c.276 0 .5.224.5.5S21.454 48.318 21.178 48.318zM25.216 48.318H22.68c-.276 0-.5-.224-.5-.5s.224-.5.5-.5h2.536c.276 0 .5.224.5.5S25.492 48.318 25.216 48.318zM25.216 50.175h-9.577c-.276 0-.5-.224-.5-.5s.224-.5.5-.5h9.577c.276 0 .5.224.5.5S25.492 50.175 25.216 50.175zM13.914 50.175h-.578c-.276 0-.5-.224-.5-.5s.224-.5.5-.5h.578c.276 0 .5.224.5.5S14.191 50.175 13.914 50.175zM11.547 50.175h-1.45c-.276 0-.5-.224-.5-.5s.224-.5.5-.5h1.45c.276 0 .5.224.5.5S11.824 50.175 11.547 50.175zM20.645 46.461h-5.007c-.276 0-.5-.224-.5-.5s.224-.5.5-.5h5.007c.276 0 .5.224.5.5S20.922 46.461 20.645 46.461zM20.645 44.604h-1.252c-.276 0-.5-.224-.5-.5s.224-.5.5-.5h1.252c.276 0 .5.224.5.5S20.922 44.604 20.645 44.604zM17.39 52.033h-1.751c-.276 0-.5-.224-.5-.5s.224-.5.5-.5h1.751c.276 0 .5.224.5.5S17.666 52.033 17.39 52.033z"/><g><path fill="#fff" d="M71.268 22.149h-9.99c-.276 0-.5-.224-.5-.5s.224-.5.5-.5h9.99c.276 0 .5.224.5.5S71.545 22.149 71.268 22.149zM74.138 22.149h-1.44c-.276 0-.5-.224-.5-.5s.224-.5.5-.5h1.44c.276 0 .5.224.5.5S74.414 22.149 74.138 22.149zM78.176 22.149H75.64c-.276 0-.5-.224-.5-.5s.224-.5.5-.5h2.536c.276 0 .5.224.5.5S78.452 22.149 78.176 22.149zM76.158 18.435h-9.577c-.276 0-.5-.224-.5-.5s.224-.5.5-.5h9.577c.276 0 .5.224.5.5S76.434 18.435 76.158 18.435zM64.857 18.435h-.578c-.276 0-.5-.224-.5-.5s.224-.5.5-.5h.578c.276 0 .5.224.5.5S65.133 18.435 64.857 18.435zM62.49 18.435h-1.45c-.276 0-.5-.224-.5-.5s.224-.5.5-.5h1.45c.276 0 .5.224.5.5S62.766 18.435 62.49 18.435zM73.605 20.292h-5.007c-.276 0-.5-.224-.5-.5s.224-.5.5-.5h5.007c.276 0 .5.224.5.5S73.882 20.292 73.605 20.292z"/><path fill="#fff" d="M73.605 18.435h-1.252c-.276 0-.5-.224-.5-.5s.224-.5.5-.5h1.252c.276 0 .5.224.5.5S73.882 18.435 73.605 18.435zM67.149 20.292h-1.751c-.276 0-.5-.224-.5-.5s.224-.5.5-.5h1.751c.276 0 .5.224.5.5S67.426 20.292 67.149 20.292z"/></g><g><path fill="#00a5a5" d="M66.528,73.147H36.993c-3.766,0-6.847-3.081-6.847-6.847V36.765c0-3.766,3.081-6.847,6.847-6.847h29.535c3.766,0,6.847,3.081,6.847,6.847V66.3C73.375,70.066,70.294,73.147,66.528,73.147z"/><path fill="#472b29" d="M66.528,73.848H36.993c-4.162,0-7.547-3.386-7.547-7.547V36.765c0-4.162,3.386-7.547,7.547-7.547h29.535c4.162,0,7.547,3.386,7.547,7.547V66.3C74.075,70.462,70.689,73.848,66.528,73.848z M36.993,30.618c-3.39,0-6.147,2.757-6.147,6.147V66.3c0,3.39,2.757,6.147,6.147,6.147h29.535c3.39,0,6.147-2.757,6.147-6.147V36.765c0-3.39-2.757-6.147-6.147-6.147H36.993z"/><path fill="#fdfcee" d="M64.738,70.06H38.782c-3.052,0-5.549-2.497-5.549-5.549V38.555c0-3.052,2.497-5.549,5.549-5.549h25.956c3.052,0,5.549,2.497,5.549,5.549v25.956C70.287,67.563,67.79,70.06,64.738,70.06z"/><path fill="#472b29" d="M64.656 70.41H38.864c-3.298 0-5.981-2.683-5.981-5.981V38.637c0-3.298 2.683-5.981 5.981-5.981h24.561c.193 0 .35.157.35.35s-.157.35-.35.35H38.864c-2.912 0-5.281 2.369-5.281 5.281v25.792c0 2.912 2.369 5.281 5.281 5.281h25.792c2.912 0 5.281-2.369 5.281-5.281V50.16c0-.193.157-.35.35-.35s.35.157.35.35v14.269C70.637 67.726 67.954 70.41 64.656 70.41zM70.287 48.452c-.193 0-.35-.157-.35-.35v-2.745c0-.193.157-.35.35-.35s.35.157.35.35v2.745C70.637 48.295 70.48 48.452 70.287 48.452z"/><g><path fill="#472b29" d="M70.287,44.335c-0.193,0-0.35-0.157-0.35-0.35v-1.373c0-0.193,0.157-0.35,0.35-0.35s0.35,0.157,0.35,0.35v1.373C70.637,44.178,70.48,44.335,70.287,44.335z"/></g><g><path fill="#fdfcee" d="M63.861,41.155H40.403v1.955h1.173v12.238c0,2.085,1.706,3.791,3.791,3.791h13.139c2.085,0,3.791-1.706,3.791-3.791V43.11h1.564V41.155z"/><path fill="#472b29" d="M58.506,59.514H45.367c-2.297,0-4.167-1.869-4.167-4.166V43.485h-0.798c-0.207,0-0.375-0.168-0.375-0.375v-1.955c0-0.207,0.168-0.375,0.375-0.375h23.458c0.207,0,0.375,0.168,0.375,0.375v1.955c0,0.207-0.168,0.375-0.375,0.375h-1.189v11.863C62.672,57.645,60.803,59.514,58.506,59.514z M40.778,42.735h0.798c0.207,0,0.375,0.168,0.375,0.375v12.238c0,1.884,1.533,3.416,3.417,3.416h13.139c1.884,0,3.416-1.532,3.416-3.416V43.11c0-0.207,0.168-0.375,0.375-0.375h1.189V41.53H40.778V42.735z"/><path fill="#c0e5e4" d="M40.718 41.456H63.56400000000001V42.792H40.718z"/><path fill="#00a5a5" d="M58.615,63.831c0-0.988-2.951-1.788-6.59-1.788c-3.64,0-6.59,0.801-6.59,1.788H58.615z"/><path fill="#472b29" d="M58.616,64.081H45.435c-0.138,0-0.25-0.112-0.25-0.25c0-1.338,3.441-2.038,6.84-2.038s6.84,0.7,6.84,2.038C58.866,63.969,58.754,64.081,58.616,64.081z M45.796,63.581h12.459c-0.515-0.602-2.792-1.288-6.229-1.288S46.31,62.979,45.796,63.581z"/><path fill="#472b29" d="M51.936 62.322c-.138 0-.25-.112-.25-.25v-2.737c0-.138.112-.25.25-.25s.25.112.25.25v2.737C52.186 62.21 52.075 62.322 51.936 62.322zM58.427 43.287H41.615c-.138 0-.25-.112-.25-.25s.112-.25.25-.25h16.812c.138 0 .25.112.25.25S58.565 43.287 58.427 43.287zM59.991 43.287h-.391c-.138 0-.25-.112-.25-.25s.112-.25.25-.25h.391c.138 0 .25.112.25.25S60.129 43.287 59.991 43.287zM61.004 43.282c-.07 0-.13-.02-.18-.07-.04-.04-.07-.11-.07-.17 0-.07.03-.13.07-.18.09-.09.26-.09.36 0 .04.05.07.11.07.18 0 .06-.03.13-.07.17C61.134 43.262 61.064 43.282 61.004 43.282z"/><g><path fill="#e1e0d8" d="M43.973 45.2H59.96V56.040000000000006H43.973z"/><path fill="#472b29" d="M59.961,56.289H43.973c-0.138,0-0.25-0.112-0.25-0.25V45.2c0-0.138,0.112-0.25,0.25-0.25h15.987c0.138,0,0.25,0.112,0.25,0.25v10.84C60.211,56.178,60.099,56.289,59.961,56.289z M44.223,55.789h15.487V45.45H44.223V55.789z"/></g><path fill="#472b29" d="M44.806,53.66c-0.062,0-0.123-0.022-0.171-0.068c-0.101-0.094-0.106-0.252-0.011-0.353c3.971-4.23,4.07-4.221,4.254-4.175c0.047,0.01,0.09,0.034,0.124,0.069l3.745,3.824l5.702-5.492h-1.386c-0.138,0-0.25-0.112-0.25-0.25s0.112-0.25,0.25-0.25h2.006c0.102,0,0.194,0.062,0.232,0.156c0.038,0.095,0.015,0.203-0.059,0.274l-6.326,6.094c-0.098,0.095-0.256,0.094-0.352-0.005l-3.764-3.844c-0.568,0.52-2.56,2.608-3.811,3.94C44.939,53.633,44.872,53.66,44.806,53.66z"/><path fill="#472b29" d="M59.067 49.42c-.138 0-.25-.112-.25-.25v-1.955c0-.138.112-.25.25-.25s.25.112.25.25v1.955C59.317 49.308 59.205 49.42 59.067 49.42zM51.936 41.209c-.138 0-.25-.112-.25-.25v-1.173c0-.138.112-.25.25-.25s.25.112.25.25v1.173C52.186 41.098 52.075 41.209 51.936 41.209z"/></g></g><g><path fill="#fdfcef" d="M40.494,75.903c1.876,0,3.502,0,3.526,0c2.101,0,3.805-1.667,3.805-3.724c0-1.794-1.297-3.292-3.023-3.645c0.02-0.157,0.033-0.316,0.033-0.478c0-2.13-1.764-3.857-3.941-3.857c-1.285,0-2.423,0.605-3.142,1.536c-0.184-2.371-2.348-4.2-4.88-3.897c-1.851,0.222-3.383,1.622-3.723,3.417c-0.109,0.576-0.098,1.134,0.011,1.659c-0.496-0.523-1.203-0.853-1.99-0.853c-1.44,0-2.616,1.097-2.709,2.484c-0.654-0.142-1.365-0.132-2.115,0.143c-1.432,0.526-2.452,1.846-2.512,3.342c-0.085,2.125,1.65,3.873,3.802,3.873c0.163,0,0.738,0,0.87,0h7.901 M34.043,75.903h0.358"/><path fill="#472b29" d="M44.019,76.403h-3.526c-0.276,0-0.5-0.224-0.5-0.5s0.224-0.5,0.5-0.5h3.526c1.822,0,3.305-1.446,3.305-3.224c0-1.517-1.103-2.844-2.623-3.155c-0.256-0.052-0.429-0.293-0.396-0.553c0.018-0.137,0.03-0.274,0.03-0.416c0-1.851-1.543-3.357-3.441-3.357c-1.087,0-2.088,0.489-2.747,1.342c-0.126,0.164-0.341,0.232-0.539,0.173c-0.198-0.059-0.339-0.234-0.355-0.44c-0.079-1.014-0.563-1.934-1.363-2.591c-0.825-0.677-1.878-0.98-2.959-0.848c-1.639,0.196-2.992,1.436-3.292,3.014c-0.094,0.492-0.09,0.984,0.009,1.464c0.045,0.219-0.06,0.441-0.258,0.545c-0.197,0.102-0.44,0.063-0.594-0.1c-0.426-0.449-1.003-0.696-1.627-0.696c-1.164,0-2.134,0.886-2.21,2.017c-0.01,0.145-0.082,0.279-0.198,0.366c-0.116,0.088-0.264,0.121-0.407,0.089c-0.634-0.137-1.235-0.097-1.836,0.124c-1.256,0.461-2.134,1.624-2.185,2.893c-0.035,0.871,0.281,1.699,0.891,2.333c0.632,0.658,1.488,1.02,2.412,1.02h8.771c0.276,0,0.5,0.224,0.5,0.5s-0.224,0.5-0.5,0.5h-8.771c-1.181,0-2.323-0.484-3.133-1.327c-0.799-0.832-1.214-1.92-1.168-3.066c0.066-1.668,1.207-3.192,2.839-3.791c0.607-0.224,1.235-0.304,1.871-0.244c0.344-1.39,1.624-2.414,3.125-2.414c0.49,0,0.971,0.112,1.406,0.32c0.009-0.24,0.037-0.48,0.082-0.72c0.379-2.001,2.088-3.573,4.155-3.82c1.362-0.158,2.676,0.217,3.712,1.068c0.744,0.61,1.272,1.402,1.54,2.29c0.788-0.645,1.778-1.001,2.83-1.001c2.449,0,4.441,1.955,4.441,4.357c0,0.034,0,0.067-0.001,0.101c1.757,0.553,2.991,2.18,2.991,4.022C48.324,74.508,46.393,76.403,44.019,76.403z M34.401,76.403h-0.358c-0.276,0-0.5-0.224-0.5-0.5s0.224-0.5,0.5-0.5h0.358c0.276,0,0.5,0.224,0.5,0.5S34.677,76.403,34.401,76.403z"/><path fill="#472b29" d="M42.319,70.623c-0.018,0-0.036-0.002-0.055-0.006c-0.135-0.03-0.219-0.164-0.189-0.299c0.037-0.165,0.094-0.325,0.169-0.477c0.602-1.219,2.263-1.671,3.708-1.003c0.125,0.058,0.18,0.207,0.122,0.332c-0.059,0.125-0.206,0.18-0.332,0.122c-1.197-0.554-2.566-0.208-3.05,0.771c-0.057,0.116-0.101,0.239-0.129,0.365C42.536,70.544,42.433,70.623,42.319,70.623z"/><g><path fill="#472b29" d="M37.181,76.403h-1.103c-0.276,0-0.5-0.224-0.5-0.5s0.224-0.5,0.5-0.5h1.103c0.276,0,0.5,0.224,0.5,0.5S37.457,76.403,37.181,76.403z"/></g></g></svg>