<svg xmlns="http://www.w3.org/2000/svg"  viewBox="0 0 100 100" width="500px" height="500px"><path fill="#c7ede6" d="M88.834,56.022c0.3-0.616,0.566-1.264,0.796-1.943c2.633-7.77-1.349-17.078-9.733-19.325C78.99,23.371,70.99,15.562,61.955,14.229c-10.341-1.525-19.814,5.044-22.966,15.485c-3.799-1.346-7.501-1.182-10.99,0.857c-1.583,0.732-3.031,1.812-4.33,3.233c-1.907,2.086-3.147,4.719-3.652,7.495c-0.748,0.118-1.483,0.236-2.176,0.484c-4.04,1.449-6.589,4.431-7.288,8.923c-0.435,2.797,0.443,5.587,0.933,6.714c1.935,4.455,6.422,6.98,10.981,6.312c0.227-0.033,0.557,0.069,0.752,0.233c0.241,7.12,3.698,13.417,8.884,17.014c8.321,5.772,19.027,3.994,25.781-3.921c2.894,2.96,6.338,4.398,10.384,3.876c4.023-0.519,7.147-2.739,9.426-6.349c1.053,0.283,2.051,0.691,3.083,0.804c4.042,0.442,7.324-1.165,9.732-4.8c0.922-1.391,1.793-3.194,1.793-6.354C92.304,60.979,91.01,58.012,88.834,56.022z"/><path fill="#fdfcef" d="M76.939,49.394c0,0,11.691,0,11.762,0c2.7,0,4.888-2.189,4.888-4.889c0-2.355-1.666-4.321-3.884-4.784c0.026-0.206,0.043-0.415,0.043-0.628c0-2.796-2.267-5.063-5.063-5.063c-1.651,0-3.113,0.794-4.037,2.017c-0.236-3.113-3.017-5.514-6.27-5.116c-2.379,0.291-4.346,2.13-4.784,4.486c-0.14,0.756-0.126,1.489,0.014,2.177c-0.638-0.687-1.546-1.119-2.557-1.119c-1.85,0-3.361,1.441-3.48,3.261c-0.84-0.186-1.754-0.174-2.717,0.188c-1.84,0.691-3.15,2.423-3.227,4.387c-0.109,2.789,2.12,5.085,4.885,5.085c0.21,0,0.948,0,1.118,0h10.151"/><path fill="#472b29" d="M88.701,49.894H76.939c-0.276,0-0.5-0.224-0.5-0.5s0.224-0.5,0.5-0.5h11.762c2.42,0,4.389-1.969,4.389-4.389c0-2.066-1.466-3.873-3.486-4.295c-0.254-0.053-0.426-0.292-0.394-0.55c0.022-0.186,0.039-0.375,0.039-0.567c0-2.516-2.047-4.563-4.563-4.563c-1.438,0-2.765,0.663-3.638,1.818c-0.125,0.166-0.342,0.237-0.539,0.179c-0.199-0.059-0.342-0.235-0.358-0.442c-0.104-1.377-0.779-2.671-1.851-3.549c-1.083-0.887-2.459-1.281-3.86-1.109c-2.165,0.265-3.955,1.943-4.353,4.081c-0.124,0.667-0.12,1.335,0.013,1.986c0.044,0.22-0.062,0.442-0.262,0.544c-0.197,0.102-0.442,0.061-0.595-0.104c-0.575-0.619-1.353-0.959-2.19-0.959c-1.568,0-2.878,1.227-2.98,2.794c-0.01,0.146-0.082,0.28-0.199,0.367c-0.116,0.087-0.265,0.119-0.408,0.088c-0.842-0.186-1.637-0.132-2.433,0.167c-1.669,0.626-2.836,2.209-2.903,3.938c-0.047,1.207,0.387,2.35,1.222,3.218c0.835,0.869,1.959,1.347,3.163,1.347h11.27c0.276,0,0.5,0.224,0.5,0.5s-0.224,0.5-0.5,0.5h-11.27c-1.479,0-2.858-0.587-3.884-1.653s-1.559-2.469-1.501-3.951c0.084-2.126,1.511-4.069,3.552-4.835c0.801-0.3,1.629-0.399,2.468-0.299c0.377-1.822,1.997-3.182,3.904-3.182c0.685,0,1.354,0.18,1.944,0.51c-0.001-0.385,0.035-0.773,0.107-1.159c0.476-2.562,2.619-4.573,5.214-4.891c1.674-0.207,3.319,0.266,4.615,1.328c1.004,0.823,1.717,1.951,2.039,3.193c1.012-0.916,2.318-1.425,3.713-1.425c3.067,0,5.563,2.496,5.563,5.563c0,0.083-0.002,0.166-0.007,0.249c2.254,0.672,3.848,2.777,3.848,5.164C94.089,47.476,91.672,49.894,88.701,49.894z"/><path fill="#fdfcef" d="M74.106,38.625c-1.808-0.119-3.365,1.13-3.476,2.789c-0.014,0.206-0.005,0.409,0.025,0.606c-0.349-0.394-0.865-0.661-1.458-0.7c-1.085-0.071-2.022,0.645-2.158,1.62c-0.197-0.054-0.403-0.09-0.616-0.104c-1.582-0.104-2.944,0.989-3.042,2.441"/><path fill="#472b29" d="M63.381,45.526c-0.006,0-0.011,0-0.017,0c-0.138-0.009-0.242-0.128-0.232-0.266c0.105-1.587,1.588-2.79,3.308-2.673c0.135,0.009,0.271,0.027,0.408,0.053c0.272-0.968,1.254-1.637,2.365-1.568c0.419,0.027,0.821,0.163,1.163,0.384c0.001-0.019,0.002-0.039,0.004-0.058c0.12-1.794,1.805-3.142,3.742-3.022c0.138,0.009,0.242,0.128,0.232,0.266c-0.008,0.132-0.118,0.233-0.249,0.233c-0.005,0-0.011,0-0.017,0c-1.663-0.109-3.108,1.038-3.211,2.557c-0.012,0.186-0.004,0.372,0.023,0.551c0.017,0.11-0.04,0.217-0.141,0.265c-0.102,0.044-0.221,0.022-0.294-0.061c-0.317-0.359-0.787-0.583-1.287-0.616c-0.936-0.06-1.775,0.555-1.893,1.405c-0.011,0.071-0.051,0.134-0.11,0.174c-0.061,0.04-0.136,0.051-0.203,0.033c-0.189-0.051-0.38-0.084-0.567-0.096c-1.444-0.094-2.688,0.896-2.776,2.208C63.622,45.425,63.512,45.526,63.381,45.526z"/><path fill="#fdfcef" d="M90.68,40.294c-1.699-0.801-3.664-0.234-4.389,1.267c-0.09,0.186-0.157,0.379-0.201,0.574"/><path fill="#472b29" d="M86.09,42.384c-0.019,0-0.037-0.002-0.057-0.006c-0.134-0.031-0.218-0.165-0.187-0.3c0.05-0.217,0.123-0.427,0.219-0.626c0.784-1.623,2.899-2.242,4.721-1.384c0.125,0.059,0.179,0.208,0.12,0.333c-0.06,0.126-0.211,0.178-0.333,0.12c-1.575-0.741-3.393-0.227-4.057,1.149c-0.08,0.165-0.142,0.34-0.184,0.521C86.307,42.306,86.205,42.384,86.09,42.384z"/><path fill="#fff" d="M71.676 21.781h-10.03c-.276 0-.5-.224-.5-.5s.224-.5.5-.5h10.03c.276 0 .5.224.5.5S71.953 21.781 71.676 21.781zM74.558 21.781h-1.446c-.276 0-.5-.224-.5-.5s.224-.5.5-.5h1.446c.276 0 .5.224.5.5S74.835 21.781 74.558 21.781zM78.612 21.781h-2.546c-.276 0-.5-.224-.5-.5s.224-.5.5-.5h2.546c.276 0 .5.224.5.5S78.888 21.781 78.612 21.781zM76.587 18.051H66.97c-.276 0-.5-.224-.5-.5s.224-.5.5-.5h9.616c.276 0 .5.224.5.5S76.863 18.051 76.587 18.051zM65.239 18.051h-.58c-.276 0-.5-.224-.5-.5s.224-.5.5-.5h.58c.276 0 .5.224.5.5S65.515 18.051 65.239 18.051zM62.862 18.051h-1.456c-.276 0-.5-.224-.5-.5s.224-.5.5-.5h1.456c.276 0 .5.224.5.5S63.138 18.051 62.862 18.051zM74.023 19.916h-5.027c-.276 0-.5-.224-.5-.5s.224-.5.5-.5h5.027c.276 0 .5.224.5.5S74.299 19.916 74.023 19.916z"/><path fill="#fff" d="M74.023 18.051h-1.257c-.276 0-.5-.224-.5-.5s.224-.5.5-.5h1.257c.276 0 .5.224.5.5S74.299 18.051 74.023 18.051zM67.541 19.916h-1.759c-.276 0-.5-.224-.5-.5s.224-.5.5-.5h1.759c.276 0 .5.224.5.5S67.817 19.916 67.541 19.916z"/><path fill="#ef9922" d="M66.945,72.992H37.232c-3.766,0-6.847-3.081-6.847-6.847V36.431c0-3.766,3.081-6.847,6.847-6.847h29.713c3.766,0,6.847,3.081,6.847,6.847v29.713C73.792,69.91,70.711,72.992,66.945,72.992z"/><path fill="#472b29" d="M66.945,73.692H37.232c-4.162,0-7.548-3.386-7.548-7.547V36.431c0-4.162,3.386-7.547,7.548-7.547h29.713c4.162,0,7.548,3.386,7.548,7.547v29.713C74.493,70.306,71.107,73.692,66.945,73.692z M37.232,30.284c-3.39,0-6.147,2.757-6.147,6.147v29.713c0,3.39,2.758,6.147,6.147,6.147h29.713c3.39,0,6.147-2.757,6.147-6.147V36.431c0-3.39-2.758-6.147-6.147-6.147H37.232z"/><path fill="#fdfcee" d="M65.143,69.891H39.034c-3.052,0-5.549-2.497-5.549-5.549V38.234c0-3.052,2.497-5.549,5.549-5.549h26.109c3.052,0,5.549,2.497,5.549,5.549v26.109C70.692,67.394,68.195,69.891,65.143,69.891z"/><path fill="#472b29" d="M65.038 70.241H39.139c-3.311 0-6.004-2.694-6.004-6.004V38.339c0-3.311 2.693-6.004 6.004-6.004h24.662c.193 0 .35.157.35.35s-.156.35-.35.35H39.139c-2.925 0-5.305 2.379-5.305 5.304v25.898c0 2.925 2.38 5.304 5.305 5.304h25.898c2.925 0 5.305-2.379 5.305-5.304V49.91c0-.193.156-.35.35-.35s.35.157.35.35v14.327C71.042 67.548 68.348 70.241 65.038 70.241zM70.692 48.193c-.193 0-.35-.157-.35-.35v-2.756c0-.193.156-.35.35-.35s.35.157.35.35v2.756C71.042 48.036 70.885 48.193 70.692 48.193zM70.692 44.059c-.193 0-.35-.157-.35-.35v-1.378c0-.193.156-.35.35-.35s.35.157.35.35v1.378C71.042 43.902 70.885 44.059 70.692 44.059z"/><path fill="#fdfcef" d="M40.775,75.759c1.883,0,3.517,0,3.54,0c2.11,0,3.821-1.674,3.821-3.739c0-1.802-1.302-3.305-3.035-3.66c0.02-0.158,0.034-0.317,0.034-0.48c0-2.139-1.772-3.873-3.957-3.873c-1.29,0-2.433,0.607-3.155,1.543c-0.185-2.381-2.358-4.218-4.9-3.913c-1.859,0.223-3.397,1.629-3.739,3.431c-0.11,0.578-0.098,1.139,0.011,1.665c-0.498-0.525-1.208-0.856-1.998-0.856c-1.446,0-2.627,1.102-2.72,2.494c-0.657-0.142-1.371-0.133-2.123,0.143c-1.438,0.528-2.462,1.853-2.522,3.356c-0.085,2.133,1.657,3.889,3.818,3.889c0.164,0,0.741,0,0.874,0h7.934 M34.298,75.759h0.36"/><path fill="#472b29" d="M44.316,76.259h-3.541c-0.276,0-0.5-0.224-0.5-0.5s0.224-0.5,0.5-0.5h3.541c1.831,0,3.32-1.453,3.32-3.239c0-1.524-1.108-2.857-2.637-3.17c-0.257-0.052-0.429-0.294-0.396-0.554c0.018-0.137,0.03-0.275,0.03-0.416c0-1.86-1.551-3.373-3.457-3.373c-1.092,0-2.098,0.492-2.76,1.349c-0.126,0.164-0.343,0.232-0.538,0.173c-0.198-0.059-0.34-0.234-0.355-0.44c-0.079-1.019-0.565-1.943-1.369-2.603c-0.829-0.68-1.884-0.984-2.974-0.853c-1.646,0.197-3.006,1.442-3.307,3.028c-0.095,0.494-0.091,0.988,0.009,1.471c0.046,0.219-0.06,0.441-0.258,0.544c-0.196,0.104-0.439,0.064-0.595-0.099c-0.428-0.452-1.009-0.7-1.635-0.7c-1.17,0-2.146,0.891-2.221,2.028c-0.01,0.145-0.082,0.279-0.198,0.366c-0.115,0.088-0.263,0.12-0.406,0.089c-0.639-0.139-1.243-0.098-1.845,0.124c-1.263,0.464-2.146,1.632-2.195,2.906c-0.035,0.875,0.282,1.708,0.895,2.345c0.635,0.661,1.495,1.024,2.423,1.024h8.808c0.276,0,0.5,0.224,0.5,0.5s-0.224,0.5-0.5,0.5h-8.808c-1.185,0-2.331-0.485-3.144-1.332c-0.803-0.835-1.219-1.928-1.174-3.078c0.066-1.674,1.212-3.203,2.85-3.805c0.609-0.224,1.24-0.306,1.88-0.245c0.344-1.396,1.629-2.424,3.136-2.424c0.493,0,0.977,0.113,1.413,0.323c0.009-0.242,0.037-0.484,0.083-0.726c0.381-2.009,2.096-3.585,4.17-3.834c1.365-0.161,2.686,0.218,3.727,1.073c0.748,0.613,1.278,1.409,1.546,2.302c0.791-0.648,1.786-1.007,2.843-1.007c2.458,0,4.457,1.962,4.457,4.373c0,0.034-0.001,0.068-0.002,0.103c1.765,0.555,3.004,2.188,3.004,4.038C48.636,74.357,46.698,76.259,44.316,76.259z M34.658,76.259h-0.359c-0.276,0-0.5-0.224-0.5-0.5s0.224-0.5,0.5-0.5h0.359c0.276,0,0.5,0.224,0.5,0.5S34.934,76.259,34.658,76.259z"/><path fill="#472b29" d="M42.608 70.456c-.018 0-.036-.002-.055-.006-.135-.03-.22-.164-.189-.299.037-.163.094-.324.169-.479.604-1.224 2.273-1.676 3.722-1.007.126.058.181.207.122.332-.058.125-.208.18-.331.122-1.208-.558-2.579-.208-3.063.774-.059.118-.103.242-.13.367C42.826 70.377 42.722 70.456 42.608 70.456zM37.449 76.259h-1.106c-.276 0-.5-.224-.5-.5s.224-.5.5-.5h1.106c.276 0 .5.224.5.5S37.725 76.259 37.449 76.259z"/><path fill="#fff" d="M19.957 48.788H9.926c-.276 0-.5-.224-.5-.5s.224-.5.5-.5h10.03c.276 0 .5.224.5.5S20.233 48.788 19.957 48.788zM22.838 48.788h-1.446c-.276 0-.5-.224-.5-.5s.224-.5.5-.5h1.446c.276 0 .5.224.5.5S23.115 48.788 22.838 48.788zM26.892 48.788h-2.546c-.276 0-.5-.224-.5-.5s.224-.5.5-.5h2.546c.276 0 .5.224.5.5S27.169 48.788 26.892 48.788zM26.892 50.653h-9.616c-.276 0-.5-.224-.5-.5s.224-.5.5-.5h9.616c.276 0 .5.224.5.5S27.169 50.653 26.892 50.653zM15.545 50.653h-.58c-.276 0-.5-.224-.5-.5s.224-.5.5-.5h.58c.276 0 .5.224.5.5S15.821 50.653 15.545 50.653zM13.168 50.653h-1.456c-.276 0-.5-.224-.5-.5s.224-.5.5-.5h1.456c.276 0 .5.224.5.5S13.444 50.653 13.168 50.653zM22.303 46.923h-5.027c-.276 0-.5-.224-.5-.5s.224-.5.5-.5h5.027c.276 0 .5.224.5.5S22.58 46.923 22.303 46.923zM22.303 45.058h-1.257c-.276 0-.5-.224-.5-.5s.224-.5.5-.5h1.257c.276 0 .5.224.5.5S22.58 45.058 22.303 45.058zM19.035 52.517h-1.759c-.276 0-.5-.224-.5-.5s.224-.5.5-.5h1.759c.276 0 .5.224.5.5S19.311 52.517 19.035 52.517z"/><path fill="#ef9922" d="M42.694,60.761c-1.928-1.928-2.058-4.935-0.29-6.703l2.873-2.873c1.768-1.768,4.775-1.639,6.703,0.289c1.928,1.928,2.058,4.935,0.289,6.703l-2.873,2.873C47.629,62.819,44.622,62.689,42.694,60.761z M50.426,53.03c-0.993-0.993-2.541-1.06-3.452-0.149l-2.873,2.873c-0.91,0.91-0.844,2.459,0.149,3.452s2.541,1.06,3.452,0.149l2.873-2.873C51.485,55.571,51.419,54.023,50.426,53.03z"/><path fill="#472b29" d="M46.313,62.646c-1.37,0-2.779-0.551-3.865-1.638l0,0l0,0c-0.995-0.995-1.575-2.289-1.634-3.644c-0.06-1.367,0.418-2.629,1.344-3.555l2.873-2.873c0.925-0.926,2.192-1.397,3.554-1.344c1.355,0.059,2.649,0.639,3.644,1.633c0.995,0.995,1.575,2.289,1.634,3.644c0.06,1.367-0.418,2.629-1.344,3.554l-2.873,2.874C48.744,62.2,47.545,62.646,46.313,62.646z M48.36,50.289c-1.093,0-2.093,0.402-2.835,1.144l-2.873,2.873c-0.785,0.785-1.189,1.861-1.139,3.029c0.051,1.18,0.559,2.309,1.429,3.179l0,0c1.793,1.793,4.577,1.919,6.209,0.29l2.873-2.874c0.785-0.785,1.189-1.861,1.139-3.029c-0.051-1.18-0.559-2.309-1.429-3.179c-0.871-0.871-2-1.378-3.18-1.429C48.49,50.29,48.424,50.289,48.36,50.289z M46.116,60.346c-0.041,0-0.083-0.001-0.124-0.003c-0.74-0.032-1.447-0.348-1.989-0.89c-0.543-0.542-0.858-1.249-0.891-1.989c-0.032-0.752,0.231-1.447,0.742-1.958l2.873-2.874c0.51-0.511,1.193-0.784,1.957-0.741c0.74,0.032,1.446,0.348,1.988,0.89l0,0l0,0c0.543,0.542,0.859,1.249,0.892,1.989c0.032,0.752-0.231,1.447-0.742,1.958l-2.873,2.873C47.467,60.085,46.82,60.346,46.116,60.346z M48.561,52.589c-0.518,0-0.99,0.189-1.34,0.539l-2.873,2.874c-0.37,0.37-0.561,0.878-0.537,1.432c0.024,0.565,0.269,1.106,0.687,1.524s0.959,0.662,1.524,0.686c0.542,0.019,1.062-0.167,1.433-0.537l2.873-2.873c0.37-0.37,0.561-0.879,0.537-1.433c-0.024-0.565-0.269-1.106-0.687-1.524l0,0c-0.418-0.418-0.959-0.662-1.524-0.686C48.623,52.59,48.592,52.589,48.561,52.589z"/><path fill="#ef9922" d="M52.195,51.261c-1.928-1.928-2.058-4.935-0.289-6.703l2.873-2.873c1.768-1.768,4.775-1.639,6.703,0.289c1.928,1.928,2.058,4.935,0.289,6.703l-2.873,2.873C57.13,53.318,54.123,53.188,52.195,51.261z M59.927,43.529c-0.993-0.993-2.541-1.06-3.452-0.149l-2.873,2.873c-0.911,0.911-0.844,2.459,0.149,3.452s2.541,1.06,3.452,0.149l2.873-2.873C60.986,46.07,60.92,44.522,59.927,43.529z"/><path fill="#472b29" d="M55.817,53.146c-0.074,0-0.149-0.002-0.226-0.005c-1.355-0.059-2.649-0.639-3.644-1.633l0,0l0,0c-2.064-2.064-2.194-5.293-0.289-7.199l2.873-2.873c0.925-0.926,2.199-1.404,3.554-1.344c1.355,0.059,2.649,0.639,3.644,1.633c2.065,2.063,2.195,5.293,0.29,7.199l-2.873,2.873C58.272,52.672,57.097,53.146,55.817,53.146z M57.861,40.788c-1.093,0-2.093,0.402-2.835,1.144l-2.873,2.873c-1.632,1.632-1.502,4.417,0.289,6.208l0,0c0.871,0.871,2,1.378,3.18,1.429c1.174,0.05,2.244-0.354,3.03-1.139l2.873-2.873c1.631-1.633,1.501-4.418-0.29-6.208c-0.871-0.871-2-1.378-3.18-1.429C57.991,40.789,57.925,40.788,57.861,40.788z M55.614,50.845c-0.749,0-1.519-0.3-2.11-0.893c-0.543-0.542-0.859-1.249-0.891-1.989c-0.032-0.751,0.23-1.447,0.742-1.958l2.873-2.873c0.509-0.511,1.192-0.784,1.957-0.741c0.74,0.032,1.446,0.348,1.988,0.89l0,0l0,0c1.13,1.129,1.196,2.899,0.149,3.947l-2.873,2.873C56.953,50.599,56.292,50.845,55.614,50.845z M58.062,43.089c-0.518,0-0.99,0.189-1.34,0.539l-2.873,2.873c-0.37,0.37-0.562,0.879-0.537,1.433c0.024,0.565,0.268,1.106,0.686,1.524c0.857,0.857,2.184,0.921,2.958,0.149l2.873-2.873c0.773-0.774,0.707-2.101-0.149-2.957l0,0c-0.418-0.418-0.959-0.662-1.524-0.686C58.124,43.089,58.093,43.089,58.062,43.089z"/><path fill="#ef9922" d="M48.595,54.861c-0.468-0.468-0.503-1.193-0.077-1.619l5.642-5.642c0.426-0.426,1.15-0.391,1.619,0.077c0.468,0.468,0.503,1.193,0.077,1.619l-5.642,5.642C49.788,55.364,49.063,55.329,48.595,54.861z"/><path fill="#472b29" d="M49.477,55.586c-0.024,0-0.049,0-0.074-0.002c-0.393-0.019-0.768-0.188-1.056-0.476s-0.457-0.663-0.476-1.056c-0.021-0.405,0.121-0.781,0.398-1.058l5.642-5.642c0.56-0.561,1.51-0.526,2.113,0.078c0.604,0.604,0.639,1.553,0.077,2.114l-5.642,5.642C50.202,55.446,49.854,55.586,49.477,55.586z M54.897,47.653c-0.184,0-0.359,0.064-0.491,0.195l-5.642,5.642c-0.135,0.135-0.204,0.323-0.194,0.529c0.011,0.219,0.107,0.43,0.272,0.595c0,0,0,0,0.001,0c0.164,0.165,0.375,0.262,0.594,0.272c0.189,0.007,0.394-0.058,0.529-0.194l5.642-5.642c0.288-0.288,0.253-0.792-0.078-1.124C55.349,47.745,55.118,47.653,54.897,47.653z"/></svg>