<svg xmlns="http://www.w3.org/2000/svg"  viewBox="0 0 100 100" width="500px" height="500px"><path fill="#c7ede6" d="M87.215,56.71C88.35,54.555,89,52.105,89,49.5c0-6.621-4.159-12.257-10.001-14.478 C78.999,35.015,79,35.008,79,35c0-11.598-9.402-21-21-21c-9.784,0-17.981,6.701-20.313,15.757C36.211,29.272,34.638,29,33,29 c-7.692,0-14.023,5.793-14.89,13.252C12.906,43.353,9,47.969,9,53.5C9,59.851,14.149,65,20.5,65c0.177,0,0.352-0.012,0.526-0.022 C21.022,65.153,21,65.324,21,65.5C21,76.822,30.178,86,41.5,86c6.437,0,12.175-2.972,15.934-7.614C59.612,80.611,62.64,82,66,82 c4.65,0,8.674-2.65,10.666-6.518C77.718,75.817,78.837,76,80,76c6.075,0,11-4.925,11-11C91,61.689,89.53,58.727,87.215,56.71z"/><path fill="#fdfcef" d="M65.5,36.5V37h-3v-0.5c0,0-4.242,0-5.5,0c-2.485,0-4.5-2.015-4.5-4.5 c0-2.333,1.782-4.229,4.055-4.455C56.533,27.364,56.5,27.187,56.5,27c0-2.485,2.015-4.5,4.5-4.5c1.438,0,2.703,0.686,3.527,1.736 C64.667,21.6,66.829,19.5,69.5,19.5c2.761,0,5,2.239,5,5c0,0.446-0.077,0.87-0.187,1.282c0.642-0.777,1.6-1.282,2.687-1.282 c1.781,0,3.234,1.335,3.455,3.055C80.636,27.533,80.813,27.5,81,27.5c2.485,0,4.5,2.015,4.5,4.5s-2.015,4.5-4.5,4.5s-9.5,0-9.5,0 H65.5z"/><path fill="#472b29" d="M69.5,19c3.033,0,5.5,2.467,5.5,5.5c0,0.016,0,0.031,0,0.047C75.602,24.192,76.29,24,77,24 c1.831,0,3.411,1.261,3.858,3.005C80.905,27.002,80.952,27,81,27c2.757,0,5,2.243,5,5s-2.243,5-5,5H65.5 c-0.276,0-0.5-0.224-0.5-0.5s0.224-0.5,0.5-0.5H81c2.206,0,4-1.794,4-4s-1.794-4-4-4c-0.117,0-0.23,0.017-0.343,0.032 l-0.141,0.019c-0.021,0.003-0.041,0.004-0.062,0.004c-0.246,0-0.462-0.185-0.495-0.437C79.768,26.125,78.496,25,77,25 c-0.885,0-1.723,0.401-2.301,1.1c-0.098,0.118-0.241,0.182-0.386,0.182c-0.078,0-0.156-0.018-0.228-0.056 c-0.209-0.107-0.314-0.346-0.254-0.573C73.946,25.218,74,24.852,74,24.5c0-2.481-2.019-4.5-4.5-4.5 c-2.381,0-4.347,1.872-4.474,4.263c-0.011,0.208-0.15,0.387-0.349,0.45c-0.05,0.016-0.101,0.024-0.152,0.024 c-0.15,0-0.296-0.069-0.392-0.192C63.362,23.563,62.221,23,61,23c-2.206,0-4,1.794-4,4c0,0.117,0.017,0.23,0.032,0.343 l0.019,0.141c0.016,0.134-0.022,0.268-0.106,0.373c-0.084,0.105-0.207,0.172-0.34,0.185C54.549,28.247,53,29.949,53,32 c0,2.206,1.794,4,4,4h5.5c0.276,0,0.5,0.224,0.5,0.5S62.776,37,62.5,37H57c-2.757,0-5-2.243-5-5c0-2.397,1.689-4.413,4.003-4.877 C56.001,27.082,56,27.041,56,27c0-2.757,2.243-5,5-5c1.176,0,2.293,0.416,3.183,1.164C64.781,20.76,66.945,19,69.5,19L69.5,19z"/><path fill="#472b29" d="M71 26c1.403 0 2.609.999 2.913 2.341C74.28 28.119 74.699 28 75.125 28c1.202 0 2.198.897 2.353 2.068C77.681 30.022 77.874 30 78.063 30c1.529 0 2.811 1.2 2.918 2.732C80.99 32.87 80.886 32.99 80.749 33c-.006 0-.012 0-.018 0-.13 0-.24-.101-.249-.232-.089-1.271-1.151-2.268-2.419-2.268-.229 0-.47.042-.738.127-.022.007-.045.01-.067.01-.055 0-.11-.02-.156-.054C77.038 30.537 77 30.455 77 30.375c0-1.034-.841-1.875-1.875-1.875-.447 0-.885.168-1.231.473-.047.041-.106.063-.165.063-.032 0-.063-.006-.093-.019-.088-.035-.148-.117-.155-.212C73.377 27.512 72.288 26.5 71 26.5c-.208 0-.425.034-.682.107-.023.007-.047.01-.07.01-.109 0-.207-.073-.239-.182-.038-.133.039-.271.172-.309C70.483 26.04 70.744 26 71 26L71 26zM57.117 27.5c1.326 0 2.508.897 2.874 2.182.038.133-.039.271-.172.309C59.795 29.997 59.772 30 59.75 30c-.109 0-.209-.072-.24-.182C59.205 28.748 58.221 28 57.117 28c-.117 0-.23.014-.342.029-.012.002-.023.003-.035.003-.121 0-.229-.092-.246-.217-.019-.137.077-.263.214-.281C56.842 27.516 56.978 27.5 57.117 27.5L57.117 27.5z"/><path fill="#fff" d="M16.5 51h-10C6.224 51 6 50.776 6 50.5S6.224 50 6.5 50h10c.276 0 .5.224.5.5S16.777 51 16.5 51zM19.5 51h-1c-.276 0-.5-.224-.5-.5s.224-.5.5-.5h1c.276 0 .5.224.5.5S19.777 51 19.5 51zM24.491 53H15.5c-.276 0-.5-.224-.5-.5s.224-.5.5-.5h8.991c.276 0 .5.224.5.5S24.767 53 24.491 53zM13.5 53h-1c-.276 0-.5-.224-.5-.5s.224-.5.5-.5h1c.276 0 .5.224.5.5S13.777 53 13.5 53zM10.5 53h-2C8.224 53 8 52.776 8 52.5S8.224 52 8.5 52h2c.276 0 .5.224.5.5S10.777 53 10.5 53zM16.5 55h-2c-.276 0-.5-.224-.5-.5s.224-.5.5-.5h2c.276 0 .5.224.5.5S16.776 55 16.5 55zM19.5 46c-.177 0-.823 0-1 0-.276 0-.5.224-.5.5 0 .276.224.5.5.5.177 0 .823 0 1 0 .276 0 .5-.224.5-.5C20 46.224 19.776 46 19.5 46zM19.5 48c-.177 0-4.823 0-5 0-.276 0-.5.224-.5.5 0 .276.224.5.5.5.177 0 4.823 0 5 0 .276 0 .5-.224.5-.5C20 48.224 19.776 48 19.5 48zM24.5 50c-.177 0-2.823 0-3 0-.276 0-.5.224-.5.5 0 .276.224.5.5.5.177 0 2.823 0 3 0 .276 0 .5-.224.5-.5C25 50.224 24.776 50 24.5 50zM87.5 66h-10c-.276 0-.5-.224-.5-.5s.224-.5.5-.5h10c.276 0 .5.224.5.5S87.776 66 87.5 66zM91.5 66h-2c-.276 0-.5-.224-.5-.5s.224-.5.5-.5h2c.276 0 .5.224.5.5S91.776 66 91.5 66zM96.5 68h-10c-.276 0-.5-.224-.5-.5s.224-.5.5-.5h10c.276 0 .5.224.5.5S96.777 68 96.5 68zM84.5 68h-1c-.276 0-.5-.224-.5-.5s.224-.5.5-.5h1c.276 0 .5.224.5.5S84.776 68 84.5 68zM81.47 68H79.5c-.276 0-.5-.224-.5-.5s.224-.5.5-.5h1.97c.276 0 .5.224.5.5S81.746 68 81.47 68zM90.5 64h-5c-.276 0-.5-.224-.5-.5s.224-.5.5-.5h5c.276 0 .5.224.5.5S90.777 64 90.5 64zM87.5 70h-2c-.276 0-.5-.224-.5-.5s.224-.5.5-.5h2c.276 0 .5.224.5.5S87.776 70 87.5 70z"/><g><path fill="#f9e65c" d="M36 32.7A7.3 7.3 0 1 0 36 47.3A7.3 7.3 0 1 0 36 32.7Z"/><path fill="#472b29" d="M36,33.4c3.639,0,6.6,2.961,6.6,6.6s-2.961,6.6-6.6,6.6s-6.6-2.961-6.6-6.6S32.361,33.4,36,33.4 M36,32c-4.418,0-8,3.582-8,8s3.582,8,8,8s8-3.582,8-8S40.418,32,36,32L36,32z"/></g><g><path fill="#472b29" d="M40.5,40.25c-0.138,0-0.25-0.112-0.25-0.25c0-1.559-0.852-2.99-2.223-3.736 c-0.121-0.066-0.166-0.218-0.1-0.339c0.066-0.122,0.218-0.166,0.339-0.101c1.532,0.834,2.484,2.434,2.484,4.176 C40.75,40.138,40.638,40.25,40.5,40.25z"/></g><g><path fill="#472b29" d="M36,44.75c-2.619,0-4.75-2.131-4.75-4.75s2.131-4.75,4.75-4.75c0.138,0,0.25,0.112,0.25,0.25 s-0.112,0.25-0.25,0.25c-2.343,0-4.25,1.906-4.25,4.25s1.907,4.25,4.25,4.25c1.467,0,2.812-0.741,3.596-1.983 c0.075-0.115,0.231-0.149,0.345-0.077c0.117,0.073,0.152,0.228,0.078,0.345C39.142,43.922,37.64,44.75,36,44.75z"/></g><g><path fill="#60be92" d="M66 60.7A7.3 7.3 0 1 0 66 75.3A7.3 7.3 0 1 0 66 60.7Z"/><path fill="#472b29" d="M66,61.4c3.639,0,6.6,2.961,6.6,6.6s-2.961,6.6-6.6,6.6s-6.6-2.961-6.6-6.6S62.361,61.4,66,61.4 M66,60c-4.418,0-8,3.582-8,8s3.582,8,8,8s8-3.582,8-8S70.418,60,66,60L66,60z"/></g><g><path fill="#39c2d8" d="M31.167,74.3c-0.809,0-1.466-0.658-1.466-1.467v-9.666c0-0.809,0.658-1.467,1.466-1.467h9.667 c0.809,0,1.466,0.658,1.466,1.467v9.666c0,0.809-0.658,1.467-1.466,1.467H31.167z"/><path fill="#472b29" d="M40.833,62.4c0.423,0,0.767,0.344,0.767,0.767v9.667c0,0.423-0.344,0.767-0.767,0.767h-9.667 c-0.423,0-0.767-0.344-0.767-0.767v-9.667c0-0.423,0.344-0.767,0.767-0.767H40.833 M40.833,61h-9.667C29.97,61,29,61.97,29,63.167 v9.667C29,74.03,29.97,75,31.167,75h9.667C42.03,75,43,74.03,43,72.833v-9.667C43,61.97,42.03,61,40.833,61L40.833,61z"/></g><g><path fill="#39c2d8" d="M32.5,65.167c0-0.368,0.298-0.667,0.667-0.667h5.667c0.368,0,0.667,0.298,0.667,0.667v5.667 c0,0.368-0.298,0.667-0.667,0.667h-5.667c-0.368,0-0.667-0.298-0.667-0.667v-3.125"/><path fill="#472b29" d="M38.833,71.75h-5.667c-0.505,0-0.917-0.411-0.917-0.917v-3.125c0-0.138,0.112-0.25,0.25-0.25 s0.25,0.112,0.25,0.25v3.125c0,0.229,0.187,0.417,0.417,0.417h5.667c0.229,0,0.417-0.188,0.417-0.417v-5.666 c0-0.229-0.187-0.417-0.417-0.417h-5.667c-0.229,0-0.417,0.188-0.417,0.417c0,0.138-0.112,0.25-0.25,0.25s-0.25-0.112-0.25-0.25 c0-0.506,0.411-0.917,0.917-0.917h5.667c0.505,0,0.917,0.411,0.917,0.917v5.666C39.75,71.339,39.339,71.75,38.833,71.75z"/></g><g><path fill="#ef5390" d="M65.5,47.674c-0.285,0-0.554-0.11-0.755-0.313l-7.304-7.303c-0.202-0.201-0.313-0.47-0.313-0.755 s0.11-0.554,0.313-0.755l7.304-7.304c0.201-0.202,0.47-0.313,0.755-0.313s0.554,0.11,0.755,0.313l7.304,7.304 c0.202,0.201,0.313,0.47,0.313,0.755s-0.11,0.554-0.313,0.755l-7.304,7.303C66.054,47.563,65.785,47.674,65.5,47.674z"/><path fill="#472b29" d="M65.5,31.632c0.069,0,0.171,0.019,0.26,0.107l7.303,7.303c0.143,0.144,0.143,0.377,0,0.521 l-7.303,7.303c-0.089,0.089-0.191,0.107-0.26,0.107s-0.171-0.019-0.26-0.107l-7.303-7.303c-0.143-0.144-0.143-0.377,0-0.521 l7.303-7.303C65.329,31.651,65.431,31.632,65.5,31.632 M65.5,30.232c-0.452,0-0.905,0.172-1.25,0.518l-7.303,7.303 c-0.69,0.69-0.69,1.81,0,2.5l7.303,7.303c0.345,0.345,0.798,0.518,1.25,0.518s0.905-0.172,1.25-0.518l7.303-7.303 c0.69-0.69,0.69-1.81,0-2.5L66.75,30.75C66.405,30.405,65.952,30.232,65.5,30.232L65.5,30.232z"/></g><g><path fill="#472b29" d="M53.5,40h-6c-0.276,0-0.5-0.224-0.5-0.5s0.224-0.5,0.5-0.5h6c0.276,0,0.5,0.224,0.5,0.5 S53.776,40,53.5,40z"/></g><g><path fill="#472b29" d="M50.5,43c-0.128,0-0.256-0.049-0.354-0.146c-0.195-0.195-0.195-0.512,0-0.707l2.646-2.646 l-2.646-2.646c-0.195-0.195-0.195-0.512,0-0.707s0.512-0.195,0.707,0l3,3c0.195,0.195,0.195,0.512,0,0.707l-3,3 C50.756,42.951,50.628,43,50.5,43z"/></g><g><path fill="#472b29" d="M35.5,58c-0.276,0-0.5-0.224-0.5-0.5v-6c0-0.276,0.224-0.5,0.5-0.5s0.5,0.224,0.5,0.5v6 C36,57.776,35.776,58,35.5,58z"/></g><g><path fill="#472b29" d="M38.5,55c-0.128,0-0.256-0.049-0.354-0.146L35.5,52.207l-2.646,2.646 c-0.195,0.195-0.512,0.195-0.707,0s-0.195-0.512,0-0.707l3-3c0.195-0.195,0.512-0.195,0.707,0l3,3c0.195,0.195,0.195,0.512,0,0.707 C38.756,54.951,38.628,55,38.5,55z"/></g><g><path fill="#472b29" d="M65.5,58c-0.276,0-0.5-0.224-0.5-0.5v-6c0-0.276,0.224-0.5,0.5-0.5s0.5,0.224,0.5,0.5v6 C66,57.776,65.776,58,65.5,58z"/></g><g><path fill="#472b29" d="M65.5,58c-0.128,0-0.256-0.049-0.354-0.146l-3-3c-0.195-0.195-0.195-0.512,0-0.707 s0.512-0.195,0.707,0l2.646,2.646l2.646-2.646c0.195-0.195,0.512-0.195,0.707,0s0.195,0.512,0,0.707l-3,3 C65.756,57.951,65.628,58,65.5,58z"/></g><g><path fill="#472b29" d="M70.5,68.25c-0.138,0-0.25-0.112-0.25-0.25c0-1.559-0.852-2.99-2.223-3.736 c-0.122-0.066-0.166-0.218-0.101-0.339c0.067-0.123,0.218-0.167,0.339-0.101c1.532,0.833,2.484,2.434,2.484,4.176 C70.75,68.138,70.638,68.25,70.5,68.25z"/></g><g><path fill="#472b29" d="M66,72.75c-2.619,0-4.75-2.131-4.75-4.75s2.131-4.75,4.75-4.75c0.138,0,0.25,0.112,0.25,0.25 s-0.112,0.25-0.25,0.25c-2.344,0-4.25,1.906-4.25,4.25s1.906,4.25,4.25,4.25c1.467,0,2.812-0.741,3.597-1.983 c0.073-0.117,0.228-0.149,0.345-0.077c0.116,0.073,0.151,0.228,0.077,0.345C69.142,71.922,67.639,72.75,66,72.75z"/></g><g><path fill="#472b29" d="M65.525,44.419c-0.253,0-0.506-0.097-0.698-0.289l-4.433-4.432c-0.384-0.385-0.384-1.012,0-1.396 l4.433-4.432c0.385-0.385,1.012-0.385,1.396,0l4.432,4.432c0.385,0.385,0.385,1.012,0,1.396l-2.444,2.444 c-0.098,0.098-0.256,0.098-0.354,0s-0.098-0.256,0-0.354l2.444-2.444c0.19-0.19,0.19-0.499,0-0.689l-4.432-4.432 c-0.189-0.189-0.5-0.189-0.689,0l-4.433,4.432c-0.189,0.19-0.189,0.499,0,0.689l4.433,4.432c0.189,0.189,0.5,0.189,0.689,0 c0.098-0.098,0.256-0.098,0.354,0s0.098,0.256,0,0.354C66.031,44.322,65.778,44.419,65.525,44.419z"/></g><g><path fill="#fdfcef" d="M32.5,78.5c0,0,1.567,0,3.5,0s3.5-1.567,3.5-3.5c0-1.781-1.335-3.234-3.055-3.455 C36.473,71.366,36.5,71.187,36.5,71c0-1.933-1.567-3.5-3.5-3.5c-1.032,0-1.95,0.455-2.59,1.165 c-0.384-1.808-1.987-3.165-3.91-3.165c-2.209,0-4,1.791-4,4c0,0.191,0.03,0.374,0.056,0.558C22.128,69.714,21.592,69.5,21,69.5 c-1.228,0-2.245,0.887-2.455,2.055C18.366,71.527,18.187,71.5,18,71.5c-1.933,0-3.5,1.567-3.5,3.5s1.567,3.5,3.5,3.5s7.5,0,7.5,0 V79h7V78.5z"/><path fill="#472b29" d="M34.25 74C34.112 74 34 73.888 34 73.75c0-1.223.995-2.218 2.218-2.218.034.009.737-.001 1.244.136.133.036.212.173.176.306-.036.134-.173.213-.306.176-.444-.12-1.1-.12-1.113-.118-.948 0-1.719.771-1.719 1.718C34.5 73.888 34.388 74 34.25 74zM27.5 78A.5.5 0 1 0 27.5 79 .5.5 0 1 0 27.5 78z"/><path fill="#472b29" d="M36,79h-3.5c-0.276,0-0.5-0.224-0.5-0.5s0.224-0.5,0.5-0.5H36c1.654,0,3-1.346,3-3 c0-1.496-1.125-2.768-2.618-2.959c-0.134-0.018-0.255-0.088-0.336-0.196s-0.115-0.244-0.094-0.377C35.975,71.314,36,71.16,36,71 c0-1.654-1.346-3-3-3c-0.85,0-1.638,0.355-2.219,1c-0.125,0.139-0.321,0.198-0.5,0.148c-0.182-0.049-0.321-0.195-0.36-0.379 C29.58,67.165,28.141,66,26.5,66c-1.93,0-3.5,1.57-3.5,3.5c0,0.143,0.021,0.28,0.041,0.418c0.029,0.203-0.063,0.438-0.242,0.54 c-0.179,0.102-0.396,0.118-0.556-0.01C21.878,70.155,21.449,70,21,70c-0.966,0-1.792,0.691-1.963,1.644 c-0.048,0.267-0.296,0.446-0.569,0.405C18.314,72.025,18.16,72,18,72c-1.654,0-3,1.346-3,3s1.346,3,3,3h7.5 c0.276,0,0.5,0.224,0.5,0.5S25.776,79,25.5,79H18c-2.206,0-4-1.794-4-4s1.794-4,4-4c0.059,0,0.116,0.002,0.174,0.006 C18.588,69.82,19.711,69,21,69c0.349,0,0.689,0.061,1.011,0.18C22.176,66.847,24.126,65,26.5,65c1.831,0,3.466,1.127,4.153,2.774 C31.333,67.276,32.155,67,33,67c2.206,0,4,1.794,4,4c0,0.048-0.001,0.095-0.004,0.142C38.739,71.59,40,73.169,40,75 C40,77.206,38.206,79,36,79z"/><path fill="#472b29" d="M30.5,78c-0.159,0-0.841,0-1,0c-0.276,0-0.5,0.224-0.5,0.5c0,0.276,0.224,0.5,0.5,0.5 c0.159,0,0.841,0,1,0c0.276,0,0.5-0.224,0.5-0.5C31,78.224,30.776,78,30.5,78z"/></g></svg>