<svg xmlns="http://www.w3.org/2000/svg"  viewBox="0 0 100 100" width="500px" height="500px"><path fill="#c7ede6" d="M88.724,55.548c0.3-0.616,0.566-1.264,0.796-1.943c2.633-7.77-1.349-17.078-9.733-19.325c-0.906-11.384-8.906-19.193-17.941-20.526C51.505,12.23,42.032,18.799,38.88,29.24c-3.799-1.346-7.501-1.182-10.99,0.857c-1.583,0.732-3.031,1.812-4.33,3.233c-1.907,2.086-3.147,4.719-3.652,7.495c-0.748,0.118-1.483,0.236-2.176,0.484c-4.04,1.449-6.589,4.431-7.288,8.923c-0.435,2.797,0.443,5.587,0.933,6.714c1.935,4.455,6.422,6.98,10.981,6.312c0.227-0.033,0.557,0.069,0.752,0.233c0.241,7.12,3.698,13.417,8.884,17.014c8.321,5.772,19.027,3.994,25.781-3.921c2.894,2.96,6.338,4.398,10.384,3.876c4.023-0.519,7.147-2.739,9.426-6.349c1.053,0.283,2.051,0.691,3.083,0.804c4.042,0.442,7.324-1.165,9.732-4.8c0.922-1.391,1.793-3.194,1.793-6.354C92.194,60.505,90.901,57.538,88.724,55.548z"/><path fill="#fff" d="M18.389 47.584H8.359c-.276 0-.5-.224-.5-.5s.224-.5.5-.5h10.03c.276 0 .5.224.5.5S18.665 47.584 18.389 47.584zM21.27 47.584h-1.446c-.276 0-.5-.224-.5-.5s.224-.5.5-.5h1.446c.276 0 .5.224.5.5S21.547 47.584 21.27 47.584zM25.325 47.584h-2.546c-.276 0-.5-.224-.5-.5s.224-.5.5-.5h2.546c.276 0 .5.224.5.5S25.601 47.584 25.325 47.584zM25.325 49.449h-9.616c-.276 0-.5-.224-.5-.5s.224-.5.5-.5h9.616c.276 0 .5.224.5.5S25.601 49.449 25.325 49.449zM13.977 49.449h-.58c-.276 0-.5-.224-.5-.5s.224-.5.5-.5h.58c.276 0 .5.224.5.5S14.253 49.449 13.977 49.449zM11.6 49.449h-1.457c-.276 0-.5-.224-.5-.5s.224-.5.5-.5H11.6c.276 0 .5.224.5.5S11.877 49.449 11.6 49.449zM20.736 45.719h-5.027c-.276 0-.5-.224-.5-.5s.224-.5.5-.5h5.027c.276 0 .5.224.5.5S21.012 45.719 20.736 45.719zM20.736 43.854h-1.257c-.276 0-.5-.224-.5-.5s.224-.5.5-.5h1.257c.276 0 .5.224.5.5S21.012 43.854 20.736 43.854zM17.467 51.314h-1.758c-.276 0-.5-.224-.5-.5s.224-.5.5-.5h1.758c.276 0 .5.224.5.5S17.743 51.314 17.467 51.314zM74.415 25.263H64.384c-.276 0-.5-.224-.5-.5s.224-.5.5-.5h10.031c.276 0 .5.224.5.5S74.692 25.263 74.415 25.263zM77.296 25.263H75.85c-.276 0-.5-.224-.5-.5s.224-.5.5-.5h1.446c.276 0 .5.224.5.5S77.572 25.263 77.296 25.263zM81.351 25.263h-2.546c-.276 0-.5-.224-.5-.5s.224-.5.5-.5h2.546c.276 0 .5.224.5.5S81.627 25.263 81.351 25.263zM81.351 27.128h-9.616c-.276 0-.5-.224-.5-.5s.224-.5.5-.5h9.616c.276 0 .5.224.5.5S81.627 27.128 81.351 27.128zM70.003 27.128h-.58c-.276 0-.5-.224-.5-.5s.224-.5.5-.5h.58c.276 0 .5.224.5.5S70.279 27.128 70.003 27.128zM67.626 27.128H66.17c-.276 0-.5-.224-.5-.5s.224-.5.5-.5h1.457c.276 0 .5.224.5.5S67.903 27.128 67.626 27.128zM76.762 23.399h-5.027c-.276 0-.5-.224-.5-.5s.224-.5.5-.5h5.027c.276 0 .5.224.5.5S77.038 23.399 76.762 23.399zM76.762 21.534h-1.257c-.276 0-.5-.224-.5-.5s.224-.5.5-.5h1.257c.276 0 .5.224.5.5S77.038 21.534 76.762 21.534zM73.493 28.993h-1.758c-.276 0-.5-.224-.5-.5s.224-.5.5-.5h1.758c.276 0 .5.224.5.5S73.769 28.993 73.493 28.993z"/><path fill="#fdfcef" d="M34.912,73.358c1.71,0,3.194,0,3.215,0c1.916,0,3.469-1.52,3.469-3.396c0-1.636-1.182-3.001-2.756-3.323c0.018-0.143,0.031-0.288,0.031-0.436c0-1.942-1.609-3.517-3.593-3.517c-1.172,0-2.209,0.551-2.865,1.401c-0.168-2.162-2.141-3.83-4.45-3.554c-1.688,0.202-3.084,1.479-3.395,3.116c-0.1,0.525-0.089,1.034,0.01,1.512c-0.453-0.477-1.097-0.777-1.814-0.777c-1.313,0-2.385,1.001-2.47,2.265c-0.596-0.129-1.245-0.121-1.928,0.13c-1.306,0.48-2.236,1.683-2.29,3.047c-0.077,1.937,1.504,3.532,3.467,3.532c0.149,0,0.673,0,0.794,0h7.204 M29.03,73.358h0.327"/><path fill="#472b29" d="M38.127,73.858h-3.214c-0.276,0-0.5-0.224-0.5-0.5s0.224-0.5,0.5-0.5h3.214c1.638,0,2.97-1.299,2.97-2.896c0-1.362-0.991-2.554-2.356-2.832c-0.256-0.053-0.429-0.293-0.396-0.553c0.016-0.123,0.026-0.248,0.026-0.374c0-1.663-1.388-3.017-3.093-3.017c-0.978,0-1.877,0.439-2.47,1.206c-0.126,0.164-0.34,0.231-0.539,0.174c-0.198-0.06-0.339-0.234-0.355-0.44c-0.071-0.913-0.506-1.741-1.227-2.332c-0.742-0.61-1.688-0.879-2.665-0.765c-1.475,0.177-2.694,1.293-2.963,2.713c-0.084,0.443-0.082,0.887,0.008,1.317c0.045,0.219-0.06,0.441-0.258,0.545c-0.197,0.103-0.44,0.062-0.594-0.099c-0.381-0.401-0.896-0.622-1.452-0.622c-1.038,0-1.903,0.79-1.971,1.799c-0.01,0.146-0.082,0.279-0.199,0.366c-0.117,0.089-0.265,0.12-0.407,0.089c-0.569-0.123-1.109-0.088-1.649,0.111c-1.129,0.414-1.917,1.458-1.963,2.597c-0.031,0.782,0.253,1.526,0.8,2.096c0.568,0.591,1.337,0.916,2.167,0.916h7.998c0.276,0,0.5,0.224,0.5,0.5s-0.224,0.5-0.5,0.5h-7.998c-1.088,0-2.141-0.445-2.888-1.223c-0.737-0.768-1.12-1.771-1.078-2.828c0.061-1.539,1.113-2.944,2.617-3.497c0.549-0.201,1.116-0.278,1.688-0.228c0.332-1.269,1.506-2.198,2.882-2.198c0.431,0,0.854,0.094,1.241,0.269c0.011-0.198,0.035-0.397,0.073-0.597c0.35-1.844,1.923-3.291,3.827-3.519c1.25-0.155,2.463,0.2,3.418,0.983c0.668,0.548,1.147,1.255,1.399,2.048c0.717-0.568,1.61-0.882,2.557-0.882c2.257,0,4.093,1.802,4.093,4.017c0,0.02,0,0.04,0,0.06c1.604,0.519,2.727,2.011,2.727,3.699C42.096,72.111,40.316,73.858,38.127,73.858z M29.357,73.858H29.03c-0.276,0-0.5-0.224-0.5-0.5s0.224-0.5,0.5-0.5h0.326c0.276,0,0.5,0.224,0.5,0.5S29.633,73.858,29.357,73.858z"/><path fill="#472b29" d="M36.576 68.566c-.018 0-.036-.002-.055-.006-.135-.03-.219-.164-.189-.299.034-.152.086-.3.156-.44.555-1.123 2.084-1.537 3.41-.924.125.058.18.206.122.331-.059.126-.206.179-.332.122-1.083-.5-2.315-.189-2.751.691-.051.105-.09.216-.116.329C36.794 68.487 36.691 68.566 36.576 68.566zM31.892 73.858h-1.005c-.276 0-.5-.224-.5-.5s.224-.5.5-.5h1.005c.276 0 .5.224.5.5S32.168 73.858 31.892 73.858z"/><path fill="#fdfcef" d="M80.084,60.257c0,0,10.616,0,10.681,0c2.452,0,4.439-1.987,4.439-4.439c0-2.139-1.513-3.924-3.527-4.344c0.023-0.187,0.039-0.377,0.039-0.57c0-2.539-2.058-4.598-4.597-4.598c-1.499,0-2.827,0.721-3.666,1.831c-0.215-2.826-2.739-5.007-5.693-4.646c-2.16,0.264-3.947,1.934-4.344,4.073c-0.127,0.686-0.114,1.352,0.013,1.977c-0.579-0.624-1.403-1.016-2.322-1.016c-1.68,0-3.052,1.308-3.16,2.961c-0.763-0.169-1.593-0.158-2.467,0.17c-1.671,0.627-2.861,2.2-2.93,3.983c-0.099,2.533,1.925,4.617,4.435,4.617c0.191,0,0.861,0,1.015,0h9.218"/><path fill="#472b29" d="M90.765,60.757H80.084c-0.276,0-0.5-0.224-0.5-0.5s0.224-0.5,0.5-0.5h10.681c2.172,0,3.939-1.768,3.939-3.939c0-1.854-1.316-3.476-3.129-3.854c-0.255-0.053-0.426-0.293-0.394-0.552c0.021-0.167,0.035-0.336,0.035-0.508c0-2.26-1.838-4.098-4.097-4.098c-1.292,0-2.483,0.595-3.267,1.633c-0.125,0.166-0.338,0.237-0.54,0.178c-0.199-0.059-0.342-0.234-0.357-0.441c-0.094-1.238-0.701-2.401-1.664-3.19c-0.973-0.798-2.207-1.149-3.471-0.997c-1.947,0.238-3.556,1.746-3.913,3.669c-0.112,0.6-0.108,1.2,0.011,1.785c0.044,0.22-0.062,0.442-0.262,0.544c-0.198,0.104-0.441,0.06-0.595-0.104c-0.513-0.553-1.208-0.856-1.955-0.856c-1.4,0-2.569,1.096-2.661,2.493c-0.01,0.146-0.082,0.28-0.199,0.368c-0.117,0.087-0.268,0.117-0.408,0.088c-0.756-0.168-1.47-0.118-2.184,0.149c-1.498,0.562-2.545,1.983-2.606,3.535c-0.042,1.084,0.347,2.109,1.097,2.889c0.75,0.779,1.758,1.209,2.839,1.209h10.233c0.276,0,0.5,0.224,0.5,0.5s-0.224,0.5-0.5,0.5H66.985c-1.356,0-2.62-0.538-3.56-1.516c-0.939-0.977-1.428-2.263-1.375-3.621c0.076-1.949,1.384-3.73,3.254-4.432c0.72-0.271,1.463-0.36,2.221-0.279c0.362-1.654,1.842-2.884,3.582-2.884c0.603,0,1.194,0.151,1.72,0.432c0.004-0.327,0.036-0.656,0.097-0.984c0.436-2.347,2.399-4.188,4.775-4.478c1.536-0.193,3.039,0.243,4.226,1.216c0.899,0.737,1.543,1.742,1.847,2.851c0.919-0.808,2.095-1.256,3.347-1.256c2.811,0,5.097,2.287,5.097,5.098c0,0.064-0.001,0.128-0.004,0.192c2.048,0.627,3.492,2.547,3.492,4.722C95.704,58.542,93.488,60.757,90.765,60.757z"/><path fill="#fdfcef" d="M77.512,50.479c-1.642-0.108-3.055,1.026-3.157,2.533c-0.013,0.187-0.004,0.371,0.023,0.55c-0.317-0.358-0.786-0.6-1.324-0.636c-0.985-0.065-1.836,0.586-1.959,1.471c-0.179-0.049-0.366-0.082-0.56-0.095c-1.437-0.094-2.674,0.898-2.762,2.216"/><path fill="#472b29" d="M67.774,56.768c-0.006,0-0.012,0-0.017-0.001c-0.138-0.009-0.242-0.128-0.233-0.266c0.097-1.455,1.465-2.561,3.028-2.448c0.117,0.007,0.235,0.022,0.353,0.044c0.259-0.878,1.165-1.503,2.166-1.42c0.376,0.024,0.73,0.138,1.035,0.329c0-0.004,0-0.008,0-0.012c0.11-1.643,1.641-2.899,3.423-2.765c0.138,0.009,0.242,0.128,0.233,0.266s-0.125,0.254-0.266,0.232c-1.504-0.096-2.799,0.934-2.891,2.3c-0.011,0.166-0.004,0.333,0.021,0.496c0.017,0.11-0.041,0.218-0.141,0.265c-0.098,0.047-0.219,0.022-0.293-0.061c-0.285-0.322-0.706-0.523-1.153-0.553c-0.849-0.051-1.59,0.497-1.696,1.256c-0.01,0.071-0.05,0.135-0.11,0.175c-0.061,0.04-0.133,0.052-0.204,0.032c-0.17-0.046-0.341-0.075-0.51-0.087c-1.308-0.061-2.417,0.806-2.497,1.983C68.014,56.667,67.904,56.768,67.774,56.768z"/><path fill="#fdfcef" d="M92.562,51.994c-1.543-0.727-3.327-0.213-3.985,1.15c-0.082,0.169-0.142,0.344-0.182,0.521"/><path fill="#472b29" d="M88.394,53.916c-0.018,0-0.037-0.002-0.056-0.006c-0.135-0.031-0.219-0.165-0.188-0.3c0.044-0.196,0.112-0.39,0.201-0.574c0.717-1.484,2.653-2.051,4.317-1.269c0.125,0.06,0.179,0.208,0.12,0.333c-0.059,0.126-0.209,0.176-0.333,0.12c-1.419-0.671-3.056-0.205-3.654,1.032c-0.072,0.15-0.127,0.309-0.164,0.469C88.612,53.837,88.509,53.916,88.394,53.916z"/><path fill="#aae1e2" d="M72.055,64.206H31.54c-2.75,0-5-2.25-5-5v-24.77c0-2.75,2.25-5,5-5h40.515c2.75,0,5,2.25,5,5v24.77C77.055,61.956,74.805,64.206,72.055,64.206z"/><path fill="#472b29" d="M72.055,64.906H31.54c-3.143,0-5.7-2.558-5.7-5.7v-24.77c0-3.143,2.557-5.7,5.7-5.7h40.515c3.143,0,5.7,2.558,5.7,5.7v24.77C77.755,62.348,75.198,64.906,72.055,64.906z M31.54,30.136c-2.371,0-4.3,1.929-4.3,4.3v24.77c0,2.371,1.929,4.3,4.3,4.3h40.515c2.371,0,4.3-1.929,4.3-4.3v-24.77c0-2.371-1.929-4.3-4.3-4.3H31.54z"/><path fill="#fdfcee" d="M30.146,63.616h42.835c1.942-0.084,3.416-2.039,3.416-3.642l0.004-3.642H27.513h-0.32v3.642C27.193,62.048,29.334,63.616,30.146,63.616z"/><path fill="#cdcbbd" d="M61.827,70.766h-1.213c-1.762,0-2.204-1.154-2.204-2.565V64.59c0-0.132,0.025-0.258,0.049-0.385H44.585c0.024,0.126,0.049,0.253,0.049,0.385v3.632c0,1.399-1.481,2.544-3.29,2.544h-0.139c-0.87,0-1.582,0.738-1.582,1.64s0.712,1.64,1.582,1.64h20.623c0.87,0,1.582-0.738,1.582-1.64S62.697,70.766,61.827,70.766z"/><path fill="#472b29" d="M61.826 74.546H41.204c-1.148 0-2.083-.96-2.083-2.141 0-1.18.934-2.14 2.083-2.14h.139c1.513 0 2.791-.936 2.791-2.044V64.59c0-.095-.02-.185-.037-.275-.027-.146.01-.306.105-.42.095-.115.234-.189.383-.189h13.874c.149 0 .29.066.385.181.095.115.134.266.106.412-.02.107-.04.197-.04.292v3.61c0 1.467.494 2.065 1.704 2.065h1.212c1.148 0 2.083.96 2.083 2.14C63.909 73.586 62.975 74.546 61.826 74.546zM41.204 71.266c-.597 0-1.083.512-1.083 1.14 0 .629.486 1.141 1.083 1.141h20.622c.597 0 1.083-.512 1.083-1.141 0-.628-.486-1.14-1.083-1.14h-1.212c-1.233 0-2.704-.532-2.704-3.065v-3.495H45.134v3.517c0 1.679-1.7 3.044-3.791 3.044H41.204zM76.88 56.38H26.715c-.207 0-.375-.168-.375-.375s.168-.375.375-.375H76.88c.207 0 .375.168.375.375S77.087 56.38 76.88 56.38z"/><path fill="#cdcbbd" d="M51.515 57.973A1.64 1.64 0 1 0 51.515 61.253A1.64 1.64 0 1 0 51.515 57.973Z"/><path fill="#472b29" d="M51.515 61.628c-1.111 0-2.015-.903-2.015-2.015s.904-2.016 2.015-2.016 2.015.904 2.015 2.016S52.627 61.628 51.515 61.628zM51.515 58.348c-.698 0-1.265.567-1.265 1.266 0 .697.567 1.265 1.265 1.265s1.265-.567 1.265-1.265C52.78 58.916 52.213 58.348 51.515 58.348zM52.171 32.06h-1.312c-.18 0-.328-.148-.328-.328v0c0-.18.148-.328.328-.328h1.312c.18 0 .328.148.328.328v0C52.499 31.912 52.352 32.06 52.171 32.06z"/><path fill="#ddf2f1" d="M73.968 36.378L73.968 53.27 29.572 53.27 29.572 51.12 29.572 44.363 29.572 34.229 73.017 34.229 73.968 34.229z"/><path fill="#472b29" d="M74.023 53.645H29.627c-.207 0-.375-.168-.375-.375v-2.15c0-.207.168-.375.375-.375s.375.168.375.375v1.775h43.646V36.378c0-.207.168-.375.375-.375s.375.168.375.375V53.27C74.398 53.477 74.23 53.645 74.023 53.645zM29.627 44.739c-.207 0-.375-.168-.375-.375V34.228c0-.207.168-.375.375-.375h43.445c.207 0 .375.168.375.375s-.168.375-.375.375h-43.07v9.761C30.002 44.571 29.834 44.739 29.627 44.739zM29.627 49.652c-.207 0-.375-.168-.375-.375V46.82c0-.207.168-.375.375-.375s.375.168.375.375v2.457C30.002 49.484 29.834 49.652 29.627 49.652zM52.997 71.215h-1.312c-.207 0-.375-.168-.375-.375s.168-.375.375-.375h1.312c.207 0 .375.168.375.375S53.204 71.215 52.997 71.215zM50.373 71.215h-8.528c-.207 0-.375-.168-.375-.375s.168-.375.375-.375h8.528c.207 0 .375.168.375.375S50.58 71.215 50.373 71.215z"/><path fill="#ef8f70" d="M48.236,42.78l-3.491-3.491c-0.058-0.058-0.139-0.091-0.222-0.087c-0.082,0.003-0.16,0.04-0.214,0.102c-0.688,0.793-1.243,1.684-1.648,2.648c-0.417,0.993-0.667,2.043-0.742,3.122c-0.006,0.082,0.023,0.163,0.079,0.223c0.056,0.06,0.136,0.095,0.219,0.095h4.936c0.147,0,0.274-0.11,0.295-0.256c0.104-0.71,0.386-1.391,0.816-1.968C48.352,43.051,48.34,42.884,48.236,42.78z"/><path fill="#472b29" d="M47.153,45.642h-4.937c-0.152,0-0.299-0.063-0.401-0.175c-0.102-0.108-0.156-0.258-0.146-0.41c0.078-1.107,0.334-2.185,0.761-3.202c0.416-0.989,0.984-1.902,1.689-2.715c0.103-0.116,0.247-0.184,0.397-0.188c0.144,0.003,0.297,0.052,0.405,0.161l3.49,3.489h0c0.19,0.192,0.213,0.499,0.052,0.715c-0.405,0.544-0.671,1.186-0.769,1.854C47.656,45.44,47.423,45.642,47.153,45.642z M44.309,39.304l0.189,0.164c-0.671,0.772-1.211,1.641-1.606,2.58c-0.406,0.968-0.649,1.991-0.723,3.043l0.048,0.051h4.937c0.023,0,0.044-0.019,0.048-0.042c0.11-0.751,0.408-1.471,0.863-2.081c0.014-0.019,0.011-0.046-0.005-0.062l-3.49-3.49L44.309,39.304z"/><path fill="#78a0cf" d="M61.112,45.074c-0.075-1.079-0.325-2.129-0.742-3.122c-0.405-0.964-0.959-1.855-1.648-2.648c-0.054-0.062-0.132-0.099-0.214-0.102c-0.083-0.003-0.163,0.029-0.222,0.087l-3.49,3.49c-0.104,0.104-0.116,0.271-0.029,0.389c0.43,0.577,0.712,1.258,0.816,1.968c0.021,0.146,0.148,0.256,0.295,0.256h4.936c0.083,0,0.162-0.035,0.219-0.095C61.089,45.237,61.118,45.156,61.112,45.074z"/><path fill="#472b29" d="M60.814,45.642h-4.937c-0.27,0-0.503-0.202-0.543-0.47c-0.097-0.669-0.363-1.311-0.769-1.854c-0.161-0.216-0.138-0.522,0.052-0.715l3.491-3.49c0.108-0.109,0.269-0.158,0.41-0.16c0.145,0.004,0.289,0.071,0.39,0.187c0.707,0.813,1.275,1.727,1.691,2.716c0.427,1.018,0.684,2.095,0.761,3.201v0.001c0.01,0.152-0.044,0.302-0.147,0.412C61.113,45.579,60.967,45.642,60.814,45.642z M58.463,39.466C58.463,39.466,58.463,39.466,58.463,39.466l-3.491,3.49c-0.016,0.017-0.019,0.044-0.005,0.062c0.455,0.61,0.753,1.33,0.863,2.081c0.003,0.023,0.025,0.042,0.048,0.042h4.937l0.298-0.068l-0.25,0.018c-0.074-1.052-0.317-2.075-0.723-3.043c-0.395-0.939-0.936-1.808-1.606-2.58C58.537,39.473,58.47,39.466,58.463,39.466z"/><path fill="#00a5a5" d="M60.966,46.131c-0.056-0.06-0.136-0.095-0.219-0.095h-4.936c-0.147,0-0.274,0.11-0.295,0.256c-0.104,0.71-0.386,1.391-0.816,1.968c-0.088,0.118-0.075,0.285,0.029,0.389l3.491,3.491c0.056,0.056,0.133,0.088,0.211,0.088c0.003,0,0.007,0,0.01,0c0.082-0.003,0.16-0.04,0.214-0.102c0.688-0.793,1.243-1.684,1.648-2.648c0.417-0.993,0.667-2.043,0.742-3.122C61.051,46.273,61.022,46.191,60.966,46.131z"/><path fill="#472b29" d="M58.449,52.476c-0.164,0-0.304-0.059-0.406-0.159l-3.491-3.491c-0.191-0.192-0.214-0.5-0.052-0.716c0.405-0.542,0.67-1.184,0.769-1.854c0.039-0.268,0.272-0.471,0.543-0.471h4.936c0.151,0,0.297,0.063,0.401,0.175c0.104,0.11,0.157,0.26,0.146,0.411c-0.077,1.105-0.333,2.183-0.761,3.201c-0.415,0.988-0.983,1.901-1.689,2.716C58.744,52.403,58.601,52.47,58.449,52.476L58.449,52.476z M55.811,46.286c-0.023,0-0.044,0.019-0.048,0.042c-0.11,0.753-0.409,1.473-0.863,2.082c-0.014,0.019-0.011,0.046,0.005,0.062l3.49,3.49l0.259,0.162l-0.189-0.164c0.672-0.773,1.212-1.643,1.606-2.581c0.407-0.968,0.65-1.991,0.723-3.043c0,0-0.012-0.034-0.013-0.035c-0.009-0.01-0.023-0.016-0.036-0.016H55.811z"/><path fill="#f1bc19" d="M48.331,48.26c-0.43-0.577-0.712-1.258-0.816-1.968c-0.021-0.146-0.148-0.256-0.295-0.256h-4.936c-0.083,0-0.162,0.035-0.219,0.095c-0.056,0.06-0.085,0.142-0.079,0.223c0.075,1.079,0.325,2.129,0.742,3.122c0.405,0.964,0.959,1.855,1.648,2.648c0.054,0.062,0.132,0.099,0.214,0.102c0.003,0,0.007,0,0.01,0c0.079,0,0.156-0.032,0.211-0.088l3.491-3.491C48.406,48.545,48.418,48.377,48.331,48.26z"/><path fill="#472b29" d="M44.6,52.476c-0.17-0.006-0.314-0.073-0.413-0.188c-0.707-0.814-1.275-1.728-1.69-2.716c-0.428-1.019-0.684-2.096-0.761-3.201c-0.011-0.151,0.042-0.302,0.146-0.412c0.103-0.109,0.249-0.174,0.401-0.174h4.936c0.271,0,0.504,0.203,0.543,0.472c0.098,0.667,0.363,1.309,0.769,1.853l0,0c0.162,0.216,0.139,0.523-0.052,0.716l-3.491,3.49C44.885,52.418,44.744,52.476,44.6,52.476z M42.283,46.286l-0.048,0.051c0.073,1.052,0.316,2.075,0.723,3.043c0.394,0.938,0.935,1.808,1.606,2.581l0.247,0.179l-0.177-0.177l3.49-3.49c0.016-0.017,0.019-0.044,0.005-0.062c0-0.001,0-0.001,0-0.001c-0.455-0.611-0.753-1.33-0.863-2.081c-0.003-0.024-0.025-0.043-0.048-0.043H42.283z"/><path fill="#a1a1ca" d="M57.925,38.246c-0.793-0.688-1.684-1.243-2.648-1.648c-0.993-0.417-2.043-0.667-3.122-0.742c-0.082-0.006-0.163,0.023-0.223,0.079c-0.06,0.056-0.095,0.136-0.095,0.219v4.936c0,0.147,0.11,0.274,0.256,0.295c0.71,0.104,1.391,0.386,1.968,0.816c0.053,0.039,0.115,0.058,0.177,0.058c0.077,0,0.154-0.029,0.212-0.087l3.491-3.491c0.058-0.058,0.09-0.139,0.087-0.222C58.024,38.378,57.987,38.299,57.925,38.246z"/><path fill="#472b29" d="M54.238,42.509c-0.117,0-0.233-0.038-0.327-0.108c-0.544-0.405-1.185-0.671-1.854-0.769c-0.268-0.039-0.47-0.272-0.47-0.543v-4.936c0-0.153,0.064-0.3,0.176-0.402c0.108-0.103,0.25-0.156,0.411-0.145c1.108,0.077,2.185,0.333,3.201,0.761c0.987,0.414,1.9,0.982,2.714,1.688l0,0c0.114,0.1,0.183,0.243,0.188,0.395c0.005,0.152-0.053,0.301-0.161,0.408l-3.49,3.49C54.523,42.453,54.385,42.509,54.238,42.509z M52.137,36.105l-0.051,0.049v4.936c0,0.023,0.019,0.045,0.043,0.049c0.75,0.109,1.47,0.407,2.081,0.862l0.062-0.005l3.49-3.49l-0.002-0.071c-0.774-0.672-1.642-1.212-2.581-1.605C54.215,36.422,53.191,36.179,52.137,36.105z"/><path fill="#ee3e54" d="M51.099,35.935c-0.06-0.056-0.142-0.085-0.223-0.079c-1.079,0.075-2.129,0.325-3.122,0.742c-0.964,0.405-1.855,0.959-2.648,1.648c-0.062,0.054-0.099,0.132-0.102,0.214c-0.003,0.083,0.029,0.163,0.087,0.222l3.491,3.491c0.058,0.058,0.134,0.087,0.212,0.087c0.062,0,0.125-0.019,0.177-0.058c0.577-0.43,1.257-0.712,1.968-0.816c0.146-0.021,0.256-0.148,0.256-0.295v-4.936C51.194,36.071,51.159,35.991,51.099,35.935z"/><path fill="#472b29" d="M48.793,42.509c-0.147,0-0.286-0.057-0.389-0.16l-3.49-3.49c-0.107-0.107-0.166-0.256-0.161-0.408c0.005-0.151,0.074-0.295,0.188-0.395c0.814-0.706,1.728-1.274,2.715-1.688c1.019-0.428,2.096-0.684,3.201-0.761c0.147-0.014,0.302,0.042,0.413,0.146c0.11,0.104,0.174,0.249,0.174,0.401v4.936c0,0.271-0.202,0.504-0.47,0.543c-0.669,0.098-1.311,0.363-1.855,0.769C49.026,42.471,48.91,42.509,48.793,42.509z M48.758,41.996c0.001,0,0.061,0.005,0.062,0.005l0,0c0.611-0.455,1.331-0.753,2.081-0.862c0.023-0.004,0.042-0.025,0.042-0.049v-4.936c-0.001-0.001-0.016-0.036-0.017-0.037c-0.009-0.008-0.017-0.016-0.035-0.012c-1.051,0.073-2.074,0.317-3.042,0.724c-0.938,0.394-1.807,0.934-2.581,1.605l-0.002,0.071L48.758,41.996L48.758,41.996z"/><path fill="#7e7f99" d="M51.515 43.138A2.302 2.302 0 1 0 51.515 47.742A2.302 2.302 0 1 0 51.515 43.138Z"/><path fill="#472b29" d="M51.515,47.993c-1.407,0-2.552-1.146-2.552-2.553s1.145-2.552,2.552-2.552s2.552,1.145,2.552,2.552S52.923,47.993,51.515,47.993z M51.515,43.388c-1.132,0-2.052,0.921-2.052,2.052c0,1.132,0.92,2.053,2.052,2.053s2.052-0.921,2.052-2.053C53.568,44.309,52.647,43.388,51.515,43.388z"/><path fill="#e1e0d8" d="M49.641,39.231L49.641,39.231c-0.114,0.035,0.753,6.601,0.753,6.601c0.188,0.62,0.859,0.97,1.489,0.779h0c0.631-0.192,0.993-0.856,0.804-1.476C52.688,45.136,49.772,39.18,49.641,39.231z"/><path fill="#472b29" d="M51.531,46.839c-0.221,0-0.439-0.053-0.639-0.158c-0.324-0.169-0.561-0.453-0.665-0.798c-0.881-6.657-0.825-6.762-0.643-6.816c0.186-0.083,0.31-0.036,3.261,5.992c0.227,0.739-0.186,1.499-0.91,1.72C51.802,46.82,51.666,46.839,51.531,46.839z M49.847,39.895c0.121,1.246,0.474,4.046,0.72,5.915c0.071,0.227,0.246,0.436,0.486,0.562c0.241,0.126,0.518,0.149,0.779,0.073c0.54-0.165,0.848-0.729,0.688-1.258C51.7,43.517,50.442,40.993,49.847,39.895z M49.641,39.232h0.004H49.641z"/><path fill="#e1e0d8" d="M51.515 44.288999999999994A1.151 1.151 0 1 0 51.515 46.591A1.151 1.151 0 1 0 51.515 44.288999999999994Z"/><path fill="#472b29" d="M51.515 46.792c-.745 0-1.352-.606-1.352-1.352s.606-1.352 1.352-1.352 1.352.606 1.352 1.352S52.26 46.792 51.515 46.792zM51.515 44.489c-.524 0-.951.427-.951.951s.427.951.951.951.951-.427.951-.951S52.04 44.489 51.515 44.489zM43.061 50.313c-.043 0-.086-.023-.109-.064-.034-.06-.012-.136.048-.17l.807-.451c.059-.033.136-.013.17.049.034.06.012.136-.048.17l-.807.451C43.102 50.308 43.082 50.313 43.061 50.313zM42.486 48.486c-.058 0-.11-.04-.122-.099-.015-.067.028-.134.096-.148l.75-.16c.066-.019.134.028.148.096.015.067-.028.134-.096.148l-.75.16C42.503 48.485 42.494 48.486 42.486 48.486zM43.202 43.146c-.007 0-.014-.001-.021-.002l-.846-.141c-.068-.011-.114-.075-.103-.144s.076-.112.144-.103l.846.141c.068.011.114.075.103.144C43.315 43.103 43.262 43.146 43.202 43.146zM43.759 41.576c-.019 0-.038-.004-.056-.014l-.711-.356c-.062-.03-.086-.105-.056-.167.031-.062.106-.088.168-.056l.711.356c.062.03.086.105.056.167C43.848 41.55 43.804 41.576 43.759 41.576zM47.382 37.938c-.038 0-.075-.018-.1-.05l-.472-.627c-.042-.055-.031-.134.024-.175.055-.042.134-.031.175.024l.472.627c.042.055.031.134-.024.175C47.434 37.93 47.408 37.938 47.382 37.938zM48.913 37.245c-.051 0-.099-.031-.118-.083l-.271-.752c-.023-.064.01-.136.075-.159.065-.026.137.009.16.075l.271.752c.023.064-.01.136-.075.159C48.941 37.243 48.927 37.245 48.913 37.245zM59.863 50.332c-.021 0-.042-.005-.061-.016l-.807-.451c-.06-.034-.082-.11-.048-.17.033-.062.109-.083.17-.049l.807.451c.06.034.082.11.048.17C59.949 50.308 59.906 50.332 59.863 50.332zM60.438 48.504c-.011 0-.022-.001-.033-.005l-.688-.189c-.066-.018-.105-.087-.087-.153s.086-.11.154-.087l.688.189c.066.018.105.087.087.153C60.544 48.468 60.493 48.504 60.438 48.504zM59.705 43.167c-.06 0-.113-.043-.124-.104-.011-.068.035-.133.103-.144l.863-.144c.067-.008.133.034.144.103s-.035.133-.103.144l-.863.144C59.718 43.167 59.712 43.167 59.705 43.167zM59.206 41.573c-.046 0-.09-.025-.112-.069-.031-.062-.006-.137.056-.167l.67-.335c.062-.032.137-.007.167.056.031.062.006.137-.056.167l-.67.335C59.244 41.569 59.225 41.573 59.206 41.573zM55.585 37.936c-.025 0-.05-.008-.072-.022-.056-.04-.07-.118-.03-.175l.429-.606c.04-.056.118-.068.174-.03.056.04.07.118.03.175l-.429.606C55.663 37.917 55.624 37.936 55.585 37.936zM53.939 37.253c-.018 0-.036-.004-.052-.012-.063-.028-.09-.103-.061-.166l.343-.742c.029-.062.104-.09.166-.061.063.028.09.103.061.166l-.343.742C54.031 37.226 53.987 37.253 53.939 37.253zM46.982 74.018c-.024 0-.048-.006-.071-.019-.073-.039-.101-.13-.062-.202l.494-.923c.04-.073.132-.102.203-.062.073.039.101.13.062.202l-.494.923C47.087 73.989 47.035 74.018 46.982 74.018zM45.924 74.054c-.024 0-.048-.006-.071-.019-.073-.039-.101-.13-.062-.202l1.304-2.438c.04-.073.132-.102.203-.062.073.039.101.13.062.202l-1.304 2.438C46.03 74.025 45.977 74.054 45.924 74.054zM44.867 74.197c-.024 0-.048-.006-.071-.019-.073-.039-.101-.13-.062-.202l1.694-3.166c.039-.074.132-.102.203-.062.073.039.101.13.062.202l-1.694 3.166C44.972 74.167 44.92 74.197 44.867 74.197zM43.809 74.089c-.024 0-.048-.006-.071-.019-.073-.039-.101-.13-.062-.202l1.694-3.165c.041-.073.131-.102.203-.062.073.039.101.13.062.202l-1.694 3.165C43.914 74.06 43.863 74.089 43.809 74.089zM42.752 74.126c-.024 0-.048-.006-.071-.019-.073-.039-.101-.13-.062-.202l1.694-3.166c.04-.073.132-.103.203-.062.073.039.101.13.062.202l-1.694 3.166C42.858 74.096 42.805 74.126 42.752 74.126zM41.695 74.161c-.024 0-.048-.006-.071-.019-.073-.039-.101-.13-.062-.202l1.694-3.165c.041-.073.131-.103.203-.062.073.039.101.13.062.202l-1.694 3.165C41.8 74.131 41.748 74.161 41.695 74.161zM40.637 73.983c-.024 0-.048-.006-.071-.019-.073-.039-.101-.13-.062-.202l1.694-3.166c.039-.073.132-.102.203-.062.073.039.101.13.062.202l-1.694 3.166C40.743 73.954 40.691 73.983 40.637 73.983z"/></svg>