<svg xmlns="http://www.w3.org/2000/svg"  viewBox="0 0 100 100" width="500px" height="500px"><path fill="#c7ede6" d="M87.215,56.71C88.35,54.555,89,52.105,89,49.5c0-6.621-4.159-12.257-10.001-14.478 C78.999,35.015,79,35.008,79,35c0-11.598-9.402-21-21-21c-9.784,0-17.981,6.701-20.313,15.757C36.211,29.272,34.638,29,33,29 c-7.692,0-14.023,5.793-14.89,13.252C12.906,43.353,9,47.969,9,53.5C9,59.851,14.149,65,20.5,65c0.177,0,0.352-0.012,0.526-0.022 C21.022,65.153,21,65.324,21,65.5C21,76.822,30.178,86,41.5,86c6.437,0,12.175-2.972,15.934-7.614C59.612,80.611,62.64,82,66,82 c4.65,0,8.674-2.65,10.666-6.518C77.718,75.817,78.837,76,80,76c6.075,0,11-4.925,11-11C91,61.689,89.53,58.727,87.215,56.71z"/><path fill="#fdfcef" d="M83.875,67.5c0,0,3.64,0,6.125,0s4.5-2.015,4.5-4.5c0-2.333-1.782-4.229-4.055-4.455 C90.467,58.364,90.5,58.187,90.5,58c0-2.485-2.015-4.5-4.5-4.5c-1.438,0-2.703,0.686-3.527,1.736 C82.333,52.6,80.171,50.5,77.5,50.5c-2.761,0-5,2.239-5,5c0,0.446,0.077,0.87,0.187,1.282C72.045,56.005,71.086,55.5,70,55.5 c-1.781,0-3.234,1.335-3.455,3.055C66.364,58.533,66.187,58.5,66,58.5c-2.485,0-4.5,2.015-4.5,4.5s2.015,4.5,4.5,4.5s9.5,0,9.5,0 h5.375V68h3V67.5z"/><path fill="#472b29" d="M77.5,50c-3.033,0-5.5,2.467-5.5,5.5c0,0.016,0,0.031,0,0.047C71.398,55.192,70.71,55,70,55 c-1.831,0-3.411,1.261-3.858,3.005C66.095,58.002,66.048,58,66,58c-2.757,0-5,2.243-5,5c0,2.757,2.243,5,5,5h14.875 c0.276,0,0.5-0.224,0.5-0.5s-0.224-0.5-0.5-0.5H66c-2.206,0-4-1.794-4-4c0-2.206,1.794-4,4-4c0.117,0,0.23,0.017,0.343,0.032 l0.141,0.019c0.021,0.003,0.041,0.004,0.062,0.004c0.246,0,0.462-0.185,0.495-0.437C67.232,57.125,68.504,56,70,56 c0.885,0,1.723,0.401,2.301,1.1c0.098,0.118,0.241,0.182,0.386,0.182c0.078,0,0.156-0.018,0.228-0.056 c0.209-0.107,0.314-0.346,0.254-0.573C73.054,56.218,73,55.852,73,55.5c0-2.481,2.019-4.5,4.5-4.5 c2.381,0,4.347,1.872,4.474,4.263c0.011,0.208,0.15,0.387,0.349,0.45c0.05,0.016,0.101,0.024,0.152,0.024 c0.15,0,0.296-0.069,0.392-0.192C83.638,54.563,84.779,54,86,54c2.206,0,4,1.794,4,4c0,0.117-0.017,0.23-0.032,0.343l-0.019,0.141 c-0.016,0.134,0.022,0.268,0.106,0.373c0.084,0.105,0.207,0.172,0.34,0.185C92.451,59.247,94,60.949,94,63c0,2.206-1.794,4-4,4 h-6.125c-0.276,0-0.5,0.224-0.5,0.5s0.224,0.5,0.5,0.5H90c2.757,0,5-2.243,5-5c0-2.397-1.689-4.413-4.003-4.877 C90.999,58.082,91,58.041,91,58c0-2.757-2.243-5-5-5c-1.176,0-2.293,0.416-3.183,1.164C82.219,51.76,80.055,50,77.5,50L77.5,50z"/><path fill="#472b29" d="M76 57c-1.403 0-2.609.999-2.913 2.341C72.72 59.119 72.301 59 71.875 59c-1.202 0-2.198.897-2.353 2.068C69.319 61.022 69.126 61 68.938 61c-1.529 0-2.811 1.2-2.918 2.732C66.01 63.87 66.114 63.99 66.251 64c.006 0 .012 0 .018 0 .13 0 .24-.101.249-.232.089-1.271 1.151-2.268 2.419-2.268.229 0 .47.042.738.127.022.007.045.01.067.01.055 0 .11-.02.156-.054C69.962 61.537 70 61.455 70 61.375c0-1.034.841-1.875 1.875-1.875.447 0 .885.168 1.231.473.047.041.106.063.165.063.032 0 .063-.006.093-.019.088-.035.148-.117.155-.212C73.623 58.512 74.712 57.5 76 57.5c.208 0 .425.034.682.107.023.007.047.01.07.01.109 0 .207-.073.239-.182.038-.133-.039-.271-.172-.309C76.517 57.04 76.256 57 76 57L76 57zM89.883 58.5c-1.326 0-2.508.897-2.874 2.182-.038.133.039.271.172.309C87.205 60.997 87.228 61 87.25 61c.109 0 .209-.072.24-.182C87.795 59.748 88.779 59 89.883 59c.117 0 .23.014.342.029.012.002.023.003.035.003.121 0 .229-.092.246-.217.019-.137-.077-.263-.214-.281C90.158 58.516 90.022 58.5 89.883 58.5L89.883 58.5z"/><path fill="#fff" d="M37.405 80H27.5c-.276 0-.5-.224-.5-.5s.224-.5.5-.5h9.905c.276 0 .5.224.5.5S37.682 80 37.405 80zM40.5 80h-1c-.276 0-.5-.224-.5-.5s.224-.5.5-.5h1c.276 0 .5.224.5.5S40.777 80 40.5 80zM45.491 82H36.5c-.276 0-.5-.224-.5-.5s.224-.5.5-.5h8.991c.276 0 .5.224.5.5S45.767 82 45.491 82zM34.5 82h-1c-.276 0-.5-.224-.5-.5s.224-.5.5-.5h1c.276 0 .5.224.5.5S34.777 82 34.5 82zM31.5 82h-2c-.276 0-.5-.224-.5-.5s.224-.5.5-.5h2c.276 0 .5.224.5.5S31.777 82 31.5 82zM37.5 84h-2c-.276 0-.5-.224-.5-.5s.224-.5.5-.5h2c.276 0 .5.224.5.5S37.776 84 37.5 84zM40.5 75c-.177 0-.823 0-1 0-.276 0-.5.224-.5.5 0 .276.224.5.5.5.177 0 .823 0 1 0 .276 0 .5-.224.5-.5C41 75.224 40.776 75 40.5 75zM40.5 77c-.177 0-4.823 0-5 0-.276 0-.5.224-.5.5 0 .276.224.5.5.5.177 0 4.823 0 5 0 .276 0 .5-.224.5-.5C41 77.224 40.776 77 40.5 77zM45.5 79c-.177 0-2.823 0-3 0-.276 0-.5.224-.5.5 0 .276.224.5.5.5.177 0 2.823 0 3 0 .276 0 .5-.224.5-.5C46 79.224 45.776 79 45.5 79z"/><g><path fill="#fff" d="M69.5 24h-10c-.276 0-.5-.224-.5-.5s.224-.5.5-.5h10c.276 0 .5.224.5.5S69.776 24 69.5 24zM73.5 24h-2c-.276 0-.5-.224-.5-.5s.224-.5.5-.5h2c.276 0 .5.224.5.5S73.776 24 73.5 24zM78.5 26h-10c-.276 0-.5-.224-.5-.5s.224-.5.5-.5h10c.276 0 .5.224.5.5S78.777 26 78.5 26zM66.5 26h-1c-.276 0-.5-.224-.5-.5s.224-.5.5-.5h1c.276 0 .5.224.5.5S66.776 26 66.5 26zM63.375 26H61.5c-.276 0-.5-.224-.5-.5s.224-.5.5-.5h1.875c.276 0 .5.224.5.5S63.651 26 63.375 26zM72.5 22h-5c-.276 0-.5-.224-.5-.5s.224-.5.5-.5h5c.276 0 .5.224.5.5S72.777 22 72.5 22zM69.5 28h-2c-.276 0-.5-.224-.5-.5s.224-.5.5-.5h2c.276 0 .5.224.5.5S69.776 28 69.5 28z"/></g><g><path fill="#fcba7f" d="M77.599,55.78c0-7.609-8.225-13.777-18.37-13.777s-18.37,6.168-18.37,13.777 s8.225,13.777,18.37,13.777h2.296c1.953,1.953,5.568,3.907,9.432,4.446c0.786,0.11,1.384-0.701,1.053-1.422 c-0.734-1.597-1.299-3.923-1.299-6.038l0,0C75.067,63.927,77.602,59.966,77.599,55.78"/><path fill="#472b29" d="M71.094,74.714c-0.078,0-0.156-0.006-0.234-0.017c-3.552-0.496-7.29-2.228-9.619-4.439h-2.012 c-10.515,0-19.07-6.495-19.07-14.478s8.555-14.478,19.07-14.478s19.07,6.495,19.07,14.478v-0.001 c0.003,4.348-2.499,8.393-6.882,11.151c0.061,1.776,0.53,3.838,1.229,5.359c0.26,0.567,0.189,1.231-0.184,1.734 C72.137,74.461,71.627,74.714,71.094,74.714z M59.229,42.703c-9.743,0-17.67,5.866-17.67,13.077s7.927,13.077,17.67,13.077h2.586 l0.205,0.205c1.728,1.728,5.191,3.711,9.033,4.248c0.156,0.024,0.244-0.066,0.285-0.122c0.033-0.045,0.104-0.165,0.035-0.314 c-0.841-1.83-1.364-4.256-1.364-6.33v-0.396l0.34-0.203c4.165-2.502,6.552-6.206,6.549-10.163V55.78 C76.898,48.569,68.972,42.703,59.229,42.703z"/></g><g><path fill="#fed5b3" d="M24,49.149c-0.004,5.047,3.112,9.821,8.468,12.975l0,0c0,2.726-0.794,5.744-1.787,7.666 c-0.352,0.682,0.199,1.476,0.962,1.392c4.943-0.543,9.627-2.984,12.116-5.425h2.823c12.471,0,22.581-7.436,22.581-16.608 s-10.11-16.608-22.581-16.608S24,39.977,24,49.149"/><path fill="#472b29" d="M31.535,71.888c-0.545,0-1.058-0.267-1.371-0.722c-0.346-0.504-0.386-1.154-0.105-1.697 c0.967-1.873,1.634-4.617,1.703-6.952c-5.388-3.298-8.466-8.15-8.462-13.368c0-9.543,10.444-17.308,23.281-17.308 s23.282,7.765,23.282,17.309S59.418,66.458,46.581,66.458h-2.542c-2.486,2.325-7.18,4.854-12.32,5.42 C31.657,71.884,31.596,71.888,31.535,71.888z M46.581,33.241c-12.065,0-21.881,7.137-21.881,15.908v0.001 c-0.004,4.82,2.957,9.329,8.123,12.37l0.345,0.203v0.4c0,2.658-0.732,5.794-1.865,7.987c-0.062,0.119-0.017,0.216,0.016,0.263 c0.033,0.048,0.117,0.123,0.247,0.112c4.957-0.545,9.449-3.019,11.703-5.229l0.204-0.2h3.109c12.065,0,21.881-7.137,21.881-15.908 S58.646,33.241,46.581,33.241z"/></g><g><path fill="#472b29" d="M48.5,41h-12c-0.276,0-0.5-0.224-0.5-0.5s0.224-0.5,0.5-0.5h12c0.276,0,0.5,0.224,0.5,0.5 S48.776,41,48.5,41z"/></g><g><path fill="#472b29" d="M58.5,41h-6c-0.276,0-0.5-0.224-0.5-0.5s0.224-0.5,0.5-0.5h6c0.276,0,0.5,0.224,0.5,0.5 S58.776,41,58.5,41z"/></g><g><path fill="#472b29" d="M42.5,47h-11c-0.276,0-0.5-0.224-0.5-0.5s0.224-0.5,0.5-0.5h11c0.276,0,0.5,0.224,0.5,0.5 S42.776,47,42.5,47z"/></g><g><path fill="#472b29" d="M60.5,47h-14c-0.276,0-0.5-0.224-0.5-0.5s0.224-0.5,0.5-0.5h14c0.276,0,0.5,0.224,0.5,0.5 S60.776,47,60.5,47z"/></g><g><path fill="#472b29" d="M61.5,53h-7c-0.276,0-0.5-0.224-0.5-0.5s0.224-0.5,0.5-0.5h7c0.276,0,0.5,0.224,0.5,0.5 S61.776,53,61.5,53z"/></g><g><path fill="#472b29" d="M50.5,53h-20c-0.276,0-0.5-0.224-0.5-0.5s0.224-0.5,0.5-0.5h20c0.276,0,0.5,0.224,0.5,0.5 S50.776,53,50.5,53z"/></g><g><path fill="#472b29" d="M58.5,59h-23c-0.276,0-0.5-0.224-0.5-0.5s0.224-0.5,0.5-0.5h23c0.276,0,0.5,0.224,0.5,0.5 S58.776,59,58.5,59z"/></g><g><path fill="#fdfcef" d="M28.5,48.5c0,0,1.567,0,3.5,0s3.5-1.567,3.5-3.5c0-1.781-1.335-3.234-3.055-3.455 C32.473,41.366,32.5,41.187,32.5,41c0-1.933-1.567-3.5-3.5-3.5c-1.032,0-1.95,0.455-2.59,1.165 c-0.384-1.808-1.987-3.165-3.91-3.165c-2.209,0-4,1.791-4,4c0,0.191,0.03,0.374,0.056,0.558C18.128,39.714,17.592,39.5,17,39.5 c-1.228,0-2.245,0.887-2.455,2.055C14.366,41.527,14.187,41.5,14,41.5c-1.933,0-3.5,1.567-3.5,3.5s1.567,3.5,3.5,3.5s7.5,0,7.5,0 V49h7V48.5z"/><path fill="#472b29" d="M30.25 44C30.112 44 30 43.888 30 43.75c0-1.223.995-2.218 2.218-2.218.034.009.737-.001 1.244.136.133.036.212.173.176.306-.036.134-.173.213-.306.176-.444-.12-1.1-.12-1.113-.118-.948 0-1.719.771-1.719 1.718C30.5 43.888 30.388 44 30.25 44zM23.5 48A.5.5 0 1 0 23.5 49 .5.5 0 1 0 23.5 48z"/><path fill="#472b29" d="M32,49h-3.5c-0.276,0-0.5-0.224-0.5-0.5s0.224-0.5,0.5-0.5H32c1.654,0,3-1.346,3-3 c0-1.496-1.125-2.768-2.618-2.959c-0.134-0.018-0.255-0.088-0.336-0.196s-0.115-0.244-0.094-0.377C31.975,41.314,32,41.16,32,41 c0-1.654-1.346-3-3-3c-0.85,0-1.638,0.355-2.219,1c-0.125,0.139-0.321,0.198-0.5,0.148c-0.182-0.049-0.321-0.195-0.36-0.379 C25.58,37.165,24.141,36,22.5,36c-1.93,0-3.5,1.57-3.5,3.5c0,0.143,0.021,0.28,0.041,0.418c0.029,0.203-0.063,0.438-0.242,0.54 c-0.179,0.102-0.396,0.118-0.556-0.01C17.878,40.155,17.449,40,17,40c-0.966,0-1.792,0.691-1.963,1.644 c-0.048,0.267-0.296,0.446-0.569,0.405C14.314,42.025,14.16,42,14,42c-1.654,0-3,1.346-3,3s1.346,3,3,3h7.5 c0.276,0,0.5,0.224,0.5,0.5S21.776,49,21.5,49H14c-2.206,0-4-1.794-4-4s1.794-4,4-4c0.059,0,0.116,0.002,0.174,0.006 C14.588,39.82,15.711,39,17,39c0.349,0,0.689,0.061,1.011,0.18C18.176,36.847,20.126,35,22.5,35c1.831,0,3.466,1.127,4.153,2.774 C27.333,37.276,28.155,37,29,37c2.206,0,4,1.794,4,4c0,0.048-0.001,0.095-0.004,0.142C34.739,41.59,36,43.169,36,45 C36,47.206,34.206,49,32,49z"/><path fill="#472b29" d="M26.5,48c-0.159,0-0.841,0-1,0c-0.276,0-0.5,0.224-0.5,0.5c0,0.276,0.224,0.5,0.5,0.5 c0.159,0,0.841,0,1,0c0.276,0,0.5-0.224,0.5-0.5C27,48.224,26.776,48,26.5,48z"/></g></svg>