<svg xmlns="http://www.w3.org/2000/svg"  viewBox="0 0 100 100" width="500px" height="500px"><path fill="#c7ede6" d="M88.334,56.122c0.299-0.614,0.563-1.259,0.792-1.935c2.622-7.739-1.343-17.008-9.693-19.245c-0.903-11.338-8.87-19.115-17.867-20.442c-10.298-1.519-19.733,5.023-22.872,15.422c-3.784-1.34-7.471-1.177-10.945,0.853c-1.576,0.729-3.018,1.805-4.312,3.22c-1.9,2.077-3.134,4.7-3.637,7.465c-0.745,0.117-1.477,0.235-2.167,0.482c-4.023,1.443-6.562,4.413-7.258,8.886c-0.434,2.785,0.441,5.564,0.929,6.687c1.927,4.436,6.396,6.952,10.936,6.286c0.226-0.033,0.554,0.069,0.749,0.232c0.24,7.091,3.683,13.362,8.848,16.944c8.287,5.748,18.949,3.977,25.675-3.905c2.882,2.948,6.313,4.38,10.342,3.86c4.006-0.517,7.117-2.728,9.387-6.322c1.048,0.282,2.043,0.689,3.071,0.801c4.025,0.44,7.294-1.161,9.692-4.78c0.918-1.385,1.786-3.181,1.786-6.328C91.79,61.058,90.502,58.103,88.334,56.122z"/><path fill="#fdfcef" d="M76.488,49.52c0,0,11.643,0,11.714,0c2.689,0,4.868-2.18,4.868-4.869c0-2.346-1.659-4.303-3.868-4.765c0.025-0.205,0.043-0.413,0.043-0.625c0-2.785-2.257-5.042-5.042-5.042c-1.644,0-3.1,0.791-4.02,2.008c-0.235-3.1-3.004-5.491-6.244-5.095c-2.369,0.29-4.328,2.121-4.764,4.467c-0.14,0.752-0.125,1.483,0.014,2.168c-0.635-0.684-1.539-1.115-2.546-1.115c-1.843,0-3.347,1.435-3.466,3.248c-0.837-0.185-1.747-0.173-2.706,0.187c-1.832,0.688-3.137,2.413-3.214,4.369c-0.108,2.778,2.111,5.064,4.864,5.064c0.209,0,0.944,0,1.114,0h10.109"/><path fill="#472b29" d="M88.202,50.02H76.489c-0.276,0-0.5-0.224-0.5-0.5s0.224-0.5,0.5-0.5h11.714c2.409,0,4.368-1.959,4.368-4.368c0-2.057-1.459-3.855-3.47-4.275c-0.255-0.053-0.426-0.292-0.394-0.551c0.023-0.185,0.039-0.373,0.039-0.564c0-2.505-2.038-4.542-4.542-4.542c-1.432,0-2.752,0.66-3.622,1.81c-0.125,0.167-0.339,0.241-0.54,0.178c-0.199-0.059-0.342-0.234-0.357-0.441c-0.104-1.372-0.775-2.659-1.842-3.533c-1.078-0.884-2.444-1.275-3.843-1.104c-2.156,0.264-3.938,1.934-4.333,4.062c-0.124,0.664-0.119,1.33,0.013,1.978c0.044,0.22-0.062,0.442-0.262,0.544c-0.199,0.102-0.443,0.06-0.595-0.104c-0.572-0.616-1.346-0.955-2.18-0.955c-1.562,0-2.864,1.221-2.966,2.78c-0.01,0.146-0.082,0.28-0.199,0.367c-0.117,0.087-0.268,0.118-0.408,0.088c-0.838-0.185-1.63-0.131-2.422,0.167c-1.662,0.623-2.823,2.199-2.89,3.92c-0.047,1.202,0.385,2.339,1.216,3.204s1.949,1.34,3.148,1.34h11.223c0.276,0,0.5,0.224,0.5,0.5s-0.224,0.5-0.5,0.5H62.122c-1.474,0-2.848-0.585-3.87-1.647c-1.021-1.062-1.552-2.459-1.494-3.936c0.083-2.118,1.504-4.054,3.538-4.817c0.797-0.299,1.621-0.4,2.457-0.298c0.376-1.815,1.99-3.168,3.89-3.168c0.681,0,1.347,0.178,1.935,0.506c0-0.383,0.035-0.768,0.106-1.151c0.475-2.553,2.611-4.556,5.195-4.872c1.671-0.208,3.307,0.265,4.598,1.323c0.999,0.819,1.708,1.941,2.03,3.178c1.008-0.911,2.309-1.417,3.697-1.417c3.056,0,5.542,2.486,5.542,5.542c0,0.083-0.002,0.165-0.007,0.246c2.245,0.67,3.832,2.767,3.832,5.144C93.571,47.612,91.162,50.02,88.202,50.02z"/><path fill="#fdfcef" d="M73.667,38.796c-1.801-0.118-3.351,1.126-3.462,2.778c-0.014,0.205-0.005,0.407,0.025,0.604c-0.347-0.392-0.862-0.659-1.452-0.697c-1.08-0.071-2.013,0.643-2.149,1.613c-0.197-0.054-0.401-0.09-0.614-0.104c-1.576-0.103-2.932,0.985-3.029,2.431"/><path fill="#472b29" d="M62.987,45.669c-0.006,0-0.012,0-0.017,0c-0.138-0.009-0.242-0.128-0.233-0.266c0.106-1.582,1.564-2.781,3.295-2.664c0.134,0.009,0.27,0.027,0.406,0.053c0.273-0.964,1.258-1.625,2.356-1.562c0.423,0.028,0.819,0.159,1.158,0.38c0.001-0.018,0.002-0.036,0.003-0.054c0.121-1.787,1.782-3.134,3.728-3.011c0.138,0.009,0.242,0.128,0.233,0.266c-0.009,0.137-0.12,0.247-0.266,0.233c-1.66-0.109-3.095,1.033-3.196,2.545c-0.012,0.183-0.004,0.368,0.023,0.55c0.017,0.11-0.041,0.217-0.141,0.264c-0.101,0.047-0.22,0.022-0.293-0.061c-0.321-0.362-0.776-0.581-1.281-0.613c-0.953-0.065-1.767,0.552-1.885,1.398c-0.01,0.071-0.05,0.134-0.11,0.174c-0.06,0.04-0.135,0.052-0.203,0.033c-0.189-0.051-0.38-0.083-0.565-0.096c-1.423-0.099-2.675,0.892-2.763,2.198C63.227,45.568,63.117,45.669,62.987,45.669z"/><path fill="#fdfcef" d="M90.173,40.457c-1.692-0.798-3.649-0.233-4.371,1.262c-0.09,0.186-0.156,0.377-0.2,0.571"/><path fill="#472b29" d="M85.602,42.54c-0.018,0-0.037-0.002-0.056-0.006c-0.135-0.031-0.219-0.165-0.188-0.299c0.049-0.216,0.123-0.426,0.219-0.625c0.78-1.614,2.891-2.232,4.703-1.378c0.125,0.059,0.179,0.208,0.12,0.333c-0.059,0.125-0.208,0.177-0.333,0.12c-1.567-0.738-3.378-0.225-4.04,1.144c-0.079,0.164-0.141,0.338-0.182,0.518C85.82,42.462,85.717,42.54,85.602,42.54z"/><g><path fill="#fff" d="M18.288 48.192H8.299c-.276 0-.5-.224-.5-.5s.224-.5.5-.5h9.989c.276 0 .5.224.5.5S18.564 48.192 18.288 48.192zM21.157 48.192h-1.439c-.276 0-.5-.224-.5-.5s.224-.5.5-.5h1.439c.276 0 .5.224.5.5S21.433 48.192 21.157 48.192zM25.195 48.192h-2.536c-.276 0-.5-.224-.5-.5s.224-.5.5-.5h2.536c.276 0 .5.224.5.5S25.471 48.192 25.195 48.192zM25.195 50.049h-9.577c-.276 0-.5-.224-.5-.5s.224-.5.5-.5h9.577c.276 0 .5.224.5.5S25.471 50.049 25.195 50.049zM13.894 50.049h-.578c-.276 0-.5-.224-.5-.5s.224-.5.5-.5h.578c.276 0 .5.224.5.5S14.17 50.049 13.894 50.049zM11.527 50.049h-1.45c-.276 0-.5-.224-.5-.5s.224-.5.5-.5h1.45c.276 0 .5.224.5.5S11.803 50.049 11.527 50.049zM20.625 46.335h-5.007c-.276 0-.5-.224-.5-.5s.224-.5.5-.5h5.007c.276 0 .5.224.5.5S20.902 46.335 20.625 46.335zM20.625 44.478h-1.252c-.276 0-.5-.224-.5-.5s.224-.5.5-.5h1.252c.276 0 .5.224.5.5S20.902 44.478 20.625 44.478zM17.37 51.907h-1.751c-.276 0-.5-.224-.5-.5s.224-.5.5-.5h1.751c.276 0 .5.224.5.5S17.646 51.907 17.37 51.907z"/></g><g><path fill="#fff" d="M71.248 22.023h-9.989c-.276 0-.5-.224-.5-.5s.224-.5.5-.5h9.989c.276 0 .5.224.5.5S71.524 22.023 71.248 22.023zM74.117 22.023h-1.44c-.276 0-.5-.224-.5-.5s.224-.5.5-.5h1.44c.276 0 .5.224.5.5S74.393 22.023 74.117 22.023zM78.155 22.023h-2.536c-.276 0-.5-.224-.5-.5s.224-.5.5-.5h2.536c.276 0 .5.224.5.5S78.431 22.023 78.155 22.023zM76.137 18.309H66.56c-.276 0-.5-.224-.5-.5s.224-.5.5-.5h9.577c.276 0 .5.224.5.5S76.414 18.309 76.137 18.309zM64.836 18.309h-.578c-.276 0-.5-.224-.5-.5s.224-.5.5-.5h.578c.276 0 .5.224.5.5S65.113 18.309 64.836 18.309zM62.469 18.309h-1.45c-.276 0-.5-.224-.5-.5s.224-.5.5-.5h1.45c.276 0 .5.224.5.5S62.745 18.309 62.469 18.309zM73.585 20.166h-5.007c-.276 0-.5-.224-.5-.5s.224-.5.5-.5h5.007c.276 0 .5.224.5.5S73.861 20.166 73.585 20.166z"/><path fill="#fff" d="M73.585 18.309h-1.252c-.276 0-.5-.224-.5-.5s.224-.5.5-.5h1.252c.276 0 .5.224.5.5S73.861 18.309 73.585 18.309zM67.129 20.166h-1.751c-.276 0-.5-.224-.5-.5s.224-.5.5-.5h1.751c.276 0 .5.224.5.5S67.405 20.166 67.129 20.166z"/></g><g><path fill="#a9c439" d="M66.4,73.021H36.865c-3.766,0-6.847-3.081-6.847-6.847V36.639c0-3.766,3.081-6.847,6.847-6.847H66.4c3.766,0,6.847,3.081,6.847,6.847v29.535C73.247,69.94,70.166,73.021,66.4,73.021z"/><path fill="#472b29" d="M66.4,73.722H36.864c-4.162,0-7.547-3.386-7.547-7.547V36.639c0-4.162,3.386-7.547,7.547-7.547H66.4c4.162,0,7.547,3.386,7.547,7.547v29.535C73.947,70.336,70.561,73.722,66.4,73.722z M36.864,30.492c-3.39,0-6.147,2.757-6.147,6.147v29.535c0,3.39,2.757,6.147,6.147,6.147H66.4c3.39,0,6.147-2.757,6.147-6.147V36.639c0-3.39-2.757-6.147-6.147-6.147H36.864z"/><path fill="#fdfcee" d="M64.61,69.934H38.654c-3.052,0-5.549-2.497-5.549-5.549V38.429c0-3.052,2.497-5.549,5.549-5.549H64.61c3.052,0,5.549,2.497,5.549,5.549v25.956C70.159,67.437,67.662,69.934,64.61,69.934z"/><path fill="#472b29" d="M64.529 70.284H38.736c-3.298 0-5.981-2.683-5.981-5.981V38.511c0-3.298 2.683-5.981 5.981-5.981h24.562c.193 0 .35.157.35.35s-.157.35-.35.35H38.736c-2.912 0-5.281 2.369-5.281 5.281v25.792c0 2.912 2.369 5.281 5.281 5.281h25.792c2.912 0 5.281-2.369 5.281-5.281V50.034c0-.193.157-.35.35-.35s.35.157.35.35v14.269C70.509 67.601 67.826 70.284 64.529 70.284zM70.159 48.326c-.193 0-.35-.157-.35-.35v-2.745c0-.193.157-.35.35-.35s.35.157.35.35v2.745C70.509 48.169 70.353 48.326 70.159 48.326z"/><g><path fill="#472b29" d="M70.159,44.208c-0.193,0-0.35-0.157-0.35-0.35v-1.372c0-0.193,0.157-0.35,0.35-0.35s0.35,0.157,0.35,0.35v1.372C70.509,44.052,70.353,44.208,70.159,44.208z"/></g><g><path fill="#f1bc19" d="M60.832,57.179l-0.858-7.612c0-4.379-3.583-7.962-7.962-7.962h-0.758c-4.379,0-7.962,3.583-7.962,7.962l-0.858,7.612c-0.901,0-1.637,0.737-1.637,1.637c0,0.901,0.737,1.637,1.637,1.637h18.399c0.901,0,1.637-0.737,1.637-1.637C62.469,57.916,61.732,57.179,60.832,57.179z"/><path fill="#472b29" d="M60.832,60.829H42.433c-1.109,0-2.012-0.903-2.012-2.013c0-0.994,0.725-1.822,1.674-1.984l0.824-7.307c-0.002-4.555,3.737-8.295,8.334-8.295h0.758c4.597,0,8.337,3.74,8.337,8.337l0.822,7.265c0.949,0.161,1.674,0.99,1.674,1.984C62.844,59.926,61.941,60.829,60.832,60.829z M51.253,41.98c-4.184,0-7.587,3.403-7.587,7.587l-0.861,7.654c-0.021,0.189-0.182,0.333-0.373,0.333c-0.696,0-1.262,0.566-1.262,1.262c0,0.696,0.566,1.263,1.262,1.263h18.399c0.696,0,1.262-0.566,1.262-1.263c0-0.696-0.566-1.262-1.262-1.262c-0.191,0-0.351-0.144-0.373-0.333l-0.858-7.612c-0.002-4.226-3.406-7.629-7.589-7.629H51.253z"/><path fill="#fbcd59" d="M53.163,41.395c-0.121-0.737-0.759-1.3-1.53-1.3c-0.771,0-1.409,0.563-1.53,1.3H53.163z"/><path fill="#472b29" d="M53.162,41.646h-3.061c-0.073,0-0.143-0.032-0.19-0.088c-0.048-0.056-0.068-0.13-0.056-0.202c0.144-0.875,0.891-1.51,1.777-1.51c0.887,0,1.634,0.635,1.777,1.51c0.012,0.073-0.009,0.146-0.056,0.203C53.305,41.613,53.236,41.646,53.162,41.646z M50.431,41.146h2.402c-0.197-0.478-0.664-0.8-1.201-0.8S50.629,40.668,50.431,41.146z"/><path fill="#fbcd59" d="M48.55,60.663c0.179,1.545,1.49,2.744,3.083,2.744c1.593,0,2.904-1.2,3.083-2.744H48.55z"/><path fill="#472b29" d="M51.632 63.782c-1.766 0-3.251-1.322-3.455-3.076-.012-.106.021-.212.093-.292.071-.08.173-.125.28-.125h6.166c.107 0 .209.046.28.125.071.08.105.187.093.292C54.884 62.46 53.399 63.782 51.632 63.782zM49.004 61.038c.323 1.162 1.387 1.994 2.628 1.994s2.306-.832 2.629-1.994H49.004zM57.793 57.469h-1.146c-.138 0-.25-.112-.25-.25s.112-.25.25-.25h1.146c.138 0 .25.112.25.25S57.931 57.469 57.793 57.469zM55.685 57.469h-.257c-.138 0-.25-.112-.25-.25s.112-.25.25-.25h.257c.138 0 .25.112.25.25S55.823 57.469 55.685 57.469zM54.602 57.469H42.411c-.138 0-.25-.112-.25-.25s.112-.25.25-.25h12.191c.138 0 .25.112.25.25S54.74 57.469 54.602 57.469z"/></g></g><g><path fill="#fdfcef" d="M40.473,75.777c1.876,0,3.502,0,3.526,0c2.101,0,3.805-1.667,3.805-3.724c0-1.794-1.297-3.292-3.023-3.645c0.02-0.157,0.033-0.316,0.033-0.478c0-2.13-1.764-3.857-3.941-3.857c-1.285,0-2.423,0.605-3.142,1.536c-0.184-2.371-2.348-4.2-4.88-3.897c-1.851,0.222-3.383,1.622-3.723,3.417c-0.109,0.576-0.098,1.134,0.011,1.659c-0.496-0.523-1.203-0.853-1.99-0.853c-1.44,0-2.616,1.097-2.709,2.484c-0.654-0.142-1.365-0.132-2.115,0.143c-1.432,0.526-2.452,1.846-2.512,3.342c-0.085,2.125,1.65,3.873,3.802,3.873c0.163,0,0.738,0,0.87,0h7.901 M34.022,75.777h0.358"/><path fill="#472b29" d="M43.999,76.277h-3.526c-0.276,0-0.5-0.224-0.5-0.5s0.224-0.5,0.5-0.5h3.526c1.822,0,3.305-1.446,3.305-3.224c0-1.517-1.103-2.844-2.623-3.155c-0.256-0.052-0.429-0.293-0.396-0.553c0.018-0.137,0.03-0.274,0.03-0.416c0-1.851-1.543-3.357-3.441-3.357c-1.087,0-2.088,0.489-2.746,1.342c-0.127,0.164-0.341,0.232-0.539,0.173s-0.339-0.234-0.355-0.44c-0.079-1.014-0.562-1.934-1.363-2.591c-0.824-0.677-1.875-0.979-2.959-0.849c-1.639,0.196-2.992,1.436-3.292,3.014c-0.094,0.492-0.09,0.985,0.009,1.464c0.045,0.219-0.06,0.441-0.258,0.544c-0.198,0.104-0.441,0.063-0.595-0.099c-0.426-0.449-1.004-0.697-1.627-0.697c-1.163,0-2.134,0.886-2.21,2.018c-0.01,0.145-0.082,0.278-0.198,0.366c-0.116,0.087-0.263,0.12-0.407,0.089c-0.633-0.138-1.235-0.098-1.836,0.123c-1.256,0.462-2.134,1.624-2.185,2.893c-0.035,0.871,0.282,1.7,0.891,2.334c0.632,0.657,1.488,1.02,2.412,1.02h8.771c0.276,0,0.5,0.224,0.5,0.5s-0.224,0.5-0.5,0.5h-8.771c-1.181,0-2.323-0.483-3.133-1.327c-0.799-0.832-1.214-1.921-1.168-3.067c0.066-1.668,1.207-3.191,2.839-3.791c0.608-0.223,1.236-0.305,1.872-0.244c0.344-1.39,1.624-2.414,3.124-2.414c0.49,0,0.971,0.112,1.406,0.32c0.009-0.239,0.037-0.48,0.082-0.72c0.379-2.002,2.088-3.573,4.155-3.82c1.357-0.161,2.676,0.218,3.713,1.069c0.744,0.61,1.272,1.402,1.54,2.29c0.788-0.645,1.777-1.001,2.83-1.001c2.449,0,4.441,1.955,4.441,4.357c0,0.034,0,0.067-0.001,0.101c1.757,0.553,2.991,2.18,2.991,4.022C48.303,74.382,46.372,76.277,43.999,76.277z M34.38,76.277h-0.358c-0.276,0-0.5-0.224-0.5-0.5s0.224-0.5,0.5-0.5h0.358c0.276,0,0.5,0.224,0.5,0.5S34.656,76.277,34.38,76.277z"/><path fill="#472b29" d="M42.298,70.497c-0.018,0-0.036-0.002-0.055-0.006c-0.135-0.03-0.219-0.164-0.189-0.299c0.037-0.165,0.094-0.326,0.169-0.478c0.603-1.22,2.265-1.669,3.708-1.003c0.125,0.058,0.18,0.207,0.122,0.332c-0.058,0.125-0.206,0.179-0.332,0.122c-1.197-0.554-2.566-0.208-3.05,0.77c-0.057,0.116-0.101,0.239-0.129,0.366C42.516,70.418,42.413,70.497,42.298,70.497z"/><g><path fill="#472b29" d="M37.16,76.277h-1.103c-0.276,0-0.5-0.224-0.5-0.5s0.224-0.5,0.5-0.5h1.103c0.276,0,0.5,0.224,0.5,0.5S37.437,76.277,37.16,76.277z"/></g></g></svg>