<svg xmlns="http://www.w3.org/2000/svg"  viewBox="0 0 100 100" width="500px" height="500px"><path fill="#c7ede6" d="M87.215,56.71C88.35,54.555,89,52.105,89,49.5c0-6.621-4.159-12.257-10.001-14.478 C78.999,35.015,79,35.008,79,35c0-11.598-9.402-21-21-21c-9.784,0-17.981,6.701-20.313,15.757C36.211,29.272,34.638,29,33,29 c-7.692,0-14.023,5.793-14.89,13.252C12.906,43.353,9,47.969,9,53.5C9,59.851,14.149,65,20.5,65c0.177,0,0.352-0.012,0.526-0.022 C21.022,65.153,21,65.324,21,65.5C21,76.822,30.178,86,41.5,86c6.437,0,12.175-2.972,15.934-7.614C59.612,80.611,62.64,82,66,82 c4.65,0,8.674-2.65,10.666-6.518C77.718,75.817,78.837,76,80,76c6.075,0,11-4.925,11-11C91,61.689,89.53,58.727,87.215,56.71z"/><path fill="#fdfcef" d="M65.5,39.5V40h3v-0.5c0,0,4.242,0,5.5,0c2.485,0,4.5-2.015,4.5-4.5 c0-2.333-1.782-4.229-4.055-4.455C74.467,30.364,74.5,30.187,74.5,30c0-2.485-2.015-4.5-4.5-4.5c-1.438,0-2.703,0.686-3.527,1.736 C66.333,24.6,64.171,22.5,61.5,22.5c-2.761,0-5,2.239-5,5c0,0.446,0.077,0.87,0.187,1.282C56.045,28.005,55.086,27.5,54,27.5 c-1.781,0-3.234,1.335-3.455,3.055C50.364,30.533,50.187,30.5,50,30.5c-2.485,0-4.5,2.015-4.5,4.5s2.015,4.5,4.5,4.5s9.5,0,9.5,0 H65.5z"/><path fill="#472b29" d="M61.5,22c-3.033,0-5.5,2.467-5.5,5.5c0,0.016,0,0.031,0,0.047C55.398,27.192,54.71,27,54,27 c-1.831,0-3.411,1.261-3.858,3.005C50.095,30.002,50.048,30,50,30c-2.757,0-5,2.243-5,5s2.243,5,5,5h15.5 c0.276,0,0.5-0.224,0.5-0.5S65.776,39,65.5,39H50c-2.206,0-4-1.794-4-4s1.794-4,4-4c0.117,0,0.23,0.017,0.343,0.032l0.141,0.019 c0.021,0.003,0.041,0.004,0.062,0.004c0.246,0,0.462-0.185,0.495-0.437C51.232,29.125,52.504,28,54,28 c0.885,0,1.723,0.401,2.301,1.1c0.098,0.118,0.241,0.182,0.386,0.182c0.078,0,0.156-0.018,0.228-0.056 c0.209-0.107,0.314-0.346,0.254-0.573C57.054,28.218,57,27.852,57,27.5c0-2.481,2.019-4.5,4.5-4.5 c2.381,0,4.347,1.872,4.474,4.263c0.011,0.208,0.15,0.387,0.349,0.45c0.05,0.016,0.101,0.024,0.152,0.024 c0.15,0,0.296-0.069,0.392-0.192C67.638,26.563,68.779,26,70,26c2.206,0,4,1.794,4,4c0,0.117-0.017,0.23-0.032,0.343l-0.019,0.141 c-0.016,0.134,0.022,0.268,0.106,0.373c0.084,0.105,0.207,0.172,0.34,0.185C76.451,31.247,78,32.949,78,35c0,2.206-1.794,4-4,4 h-5.5c-0.276,0-0.5,0.224-0.5,0.5s0.224,0.5,0.5,0.5H74c2.757,0,5-2.243,5-5c0-2.397-1.689-4.413-4.003-4.877 C74.999,30.082,75,30.041,75,30c0-2.757-2.243-5-5-5c-1.176,0-2.293,0.416-3.183,1.164C66.219,23.76,64.055,22,61.5,22L61.5,22z"/><path fill="#472b29" d="M60 29c-1.403 0-2.609.999-2.913 2.341C56.72 31.119 56.301 31 55.875 31c-1.202 0-2.198.897-2.353 2.068C53.319 33.022 53.126 33 52.937 33c-1.529 0-2.811 1.2-2.918 2.732C50.01 35.87 50.114 35.99 50.251 36c.006 0 .012 0 .018 0 .13 0 .24-.101.249-.232.089-1.271 1.151-2.268 2.419-2.268.229 0 .47.042.738.127.022.007.045.01.067.01.055 0 .11-.02.156-.054C53.962 33.537 54 33.455 54 33.375c0-1.034.841-1.875 1.875-1.875.447 0 .885.168 1.231.473.047.041.106.063.165.063.032 0 .063-.006.093-.019.088-.035.148-.117.155-.212C57.623 30.512 58.712 29.5 60 29.5c.208 0 .425.034.682.107.023.007.047.01.07.01.109 0 .207-.073.239-.182.038-.133-.039-.271-.172-.309C60.517 29.04 60.256 29 60 29L60 29zM73.883 30.5c-1.326 0-2.508.897-2.874 2.182-.038.133.039.271.172.309C71.205 32.997 71.228 33 71.25 33c.109 0 .209-.072.24-.182C71.795 31.748 72.779 31 73.883 31c.117 0 .23.014.342.029.012.002.023.003.035.003.121 0 .229-.092.246-.217.019-.137-.077-.263-.214-.281C74.158 30.516 74.022 30.5 73.883 30.5L73.883 30.5z"/><path fill="#fff" d="M12.5 51h-10C2.224 51 2 50.776 2 50.5S2.224 50 2.5 50h10c.276 0 .5.224.5.5S12.777 51 12.5 51zM15.5 51h-1c-.276 0-.5-.224-.5-.5s.224-.5.5-.5h1c.276 0 .5.224.5.5S15.777 51 15.5 51zM20.491 53H11.5c-.276 0-.5-.224-.5-.5s.224-.5.5-.5h8.991c.276 0 .5.224.5.5S20.767 53 20.491 53zM9.5 53h-1C8.224 53 8 52.776 8 52.5S8.224 52 8.5 52h1c.276 0 .5.224.5.5S9.777 53 9.5 53zM6.5 53h-2C4.224 53 4 52.776 4 52.5S4.224 52 4.5 52h2C6.776 52 7 52.224 7 52.5S6.777 53 6.5 53zM12.5 55h-2c-.276 0-.5-.224-.5-.5s.224-.5.5-.5h2c.276 0 .5.224.5.5S12.776 55 12.5 55zM15.5 46c-.177 0-.823 0-1 0-.276 0-.5.224-.5.5 0 .276.224.5.5.5.177 0 .823 0 1 0 .276 0 .5-.224.5-.5C16 46.224 15.776 46 15.5 46zM15.5 48c-.177 0-4.823 0-5 0-.276 0-.5.224-.5.5 0 .276.224.5.5.5.177 0 4.823 0 5 0 .276 0 .5-.224.5-.5C16 48.224 15.776 48 15.5 48zM20.5 50c-.177 0-2.823 0-3 0-.276 0-.5.224-.5.5 0 .276.224.5.5.5.177 0 2.823 0 3 0 .276 0 .5-.224.5-.5C21 50.224 20.776 50 20.5 50z"/><g><path fill="#fff" d="M76.5 78h-10c-.276 0-.5-.224-.5-.5s.224-.5.5-.5h10c.276 0 .5.224.5.5S76.776 78 76.5 78zM80.5 78h-2c-.276 0-.5-.224-.5-.5s.224-.5.5-.5h2c.276 0 .5.224.5.5S80.776 78 80.5 78zM85.5 80h-10c-.276 0-.5-.224-.5-.5s.224-.5.5-.5h10c.276 0 .5.224.5.5S85.777 80 85.5 80zM73.5 80h-1c-.276 0-.5-.224-.5-.5s.224-.5.5-.5h1c.276 0 .5.224.5.5S73.776 80 73.5 80zM70.47 80H68.5c-.276 0-.5-.224-.5-.5s.224-.5.5-.5h1.97c.276 0 .5.224.5.5S70.746 80 70.47 80zM79.5 76h-5c-.276 0-.5-.224-.5-.5s.224-.5.5-.5h5c.276 0 .5.224.5.5S79.777 76 79.5 76zM76.5 82h-2c-.276 0-.5-.224-.5-.5s.224-.5.5-.5h2c.276 0 .5.224.5.5S76.776 82 76.5 82z"/></g><g><path fill="#a3a3cd" d="M27.299,73.3c-1.984,0-3.599-1.614-3.599-3.599V40.299c0-1.984,1.614-3.599,3.599-3.599h34.402 c1.984,0,3.599,1.614,3.599,3.599V47.7h6.928l8.563-6.228c0.168-0.123,0.354-0.185,0.552-0.185c0.461,0,0.957,0.364,0.957,0.954 v24.516c0,0.34-0.157,0.561-0.289,0.686c-0.18,0.171-0.423,0.269-0.668,0.269l0,0c-0.198,0-0.384-0.062-0.553-0.185L72.228,61.3 H65.3v8.401c0,1.984-1.614,3.599-3.599,3.599H27.299z"/><path fill="#472b29" d="M61.701,37.4c1.599,0,2.899,1.301,2.899,2.899V47v1.4H66h6h0.455l0.368-0.268l8.378-6.093 c0.048-0.035,0.093-0.051,0.141-0.051c0.054,0,0.257,0.043,0.257,0.253v24.517c0,0.21-0.203,0.253-0.257,0.253 c-0.049,0-0.094-0.016-0.141-0.051l-8.378-6.093L72.455,60.6H72h-6h-1.4V62v7.701c0,1.599-1.301,2.899-2.899,2.899H27.299 c-1.599,0-2.899-1.301-2.899-2.899V40.299c0-1.599,1.301-2.899,2.899-2.899H61.701 M61.701,36H27.299 C24.925,36,23,37.925,23,40.299v29.401C23,72.075,24.925,74,27.299,74h34.402C64.075,74,66,72.075,66,69.701V62h6l8.378,6.093 c0.302,0.22,0.637,0.319,0.965,0.319c0.856,0,1.657-0.678,1.657-1.654V42.242c0-0.976-0.801-1.654-1.657-1.654 c-0.327,0-0.663,0.099-0.965,0.319L72,47h-6v-6.701C66,37.925,64.075,36,61.701,36L61.701,36z"/></g><g><path fill="#472b29" d="M65.5,51c-0.276,0-0.5-0.224-0.5-0.5v-5c0-0.276,0.224-0.5,0.5-0.5s0.5,0.224,0.5,0.5v5 C66,50.776,65.776,51,65.5,51z"/></g><g><path fill="#472b29" d="M72.5,53c-0.276,0-0.5-0.224-0.5-0.5v-2c0-0.276,0.224-0.5,0.5-0.5s0.5,0.224,0.5,0.5v2 C73,52.776,72.776,53,72.5,53z"/></g><g><path fill="#472b29" d="M72.5,62c-0.276,0-0.5-0.224-0.5-0.5v-7c0-0.276,0.224-0.5,0.5-0.5s0.5,0.224,0.5,0.5v7 C73,61.776,72.776,62,72.5,62z"/></g><g><path fill="#472b29" d="M65.5,61c-0.276,0-0.5-0.224-0.5-0.5v-7c0-0.276,0.224-0.5,0.5-0.5s0.5,0.224,0.5,0.5v7 C66,60.776,65.776,61,65.5,61z"/></g><g><path fill="#472b29" d="M59.625,70h-4.292c-0.276,0-0.5-0.224-0.5-0.5s0.224-0.5,0.5-0.5h4.292 C60.383,69,61,68.383,61,67.625v-25.25C61,41.617,60.383,41,59.625,41H41.083c-0.276,0-0.5-0.224-0.5-0.5s0.224-0.5,0.5-0.5h18.542 C60.935,40,62,41.065,62,42.375v25.25C62,68.935,60.935,70,59.625,70z"/></g><g><path fill="#472b29" d="M38.167,41h-4.334c-0.276,0-0.5-0.224-0.5-0.5s0.224-0.5,0.5-0.5h4.334c0.276,0,0.5,0.224,0.5,0.5 S38.443,41,38.167,41z"/></g><g><path fill="#472b29" d="M51.5,70H29.337C28.049,70,27,68.935,27,67.625v-25.25C27,41.065,28.049,40,29.337,40H31.5 c0.276,0,0.5,0.224,0.5,0.5S31.776,41,31.5,41h-2.163C28.6,41,28,41.617,28,42.375v25.25C28,68.383,28.6,69,29.337,69H51.5 c0.276,0,0.5,0.224,0.5,0.5S51.776,70,51.5,70z"/></g><g><path fill="#fef6aa" d="M51.964,65.437c-1.381,0-3.366-0.52-6.246-1.633c-3.756-1.452-7.498-4.515-10.537-8.624 l-0.174-0.233c-0.93-1.172-2.504-3.514-2.504-5.901c-0.056-1.797,0.731-3.537,2.158-4.76c0.525-0.404,1.162-0.617,1.814-0.617 l0.17,0.005l0.67-0.001c0.028-0.004,0.101-0.008,0.172-0.008s0.144,0.004,0.215,0.01c0.121,0.01,0.234,0.064,0.319,0.152 c0.184,0.192,0.325,0.425,0.407,0.674l0.744,1.671c0.588,1.329,1.096,2.478,1.189,2.639c0.075,0.131,0.3,0.522,0.092,0.911 c-0.153,0.295-0.36,0.566-0.61,0.802c-0.142,0.156-0.246,0.258-0.351,0.36l-0.085,0.084c-0.12,0.119-0.368,0.364-0.552,0.581 c-0.514,0.448-0.61,1.065-0.29,1.557c0.977,1.554,2.186,2.952,3.598,4.165c1.464,1.245,3.145,2.223,4.991,2.903l0.189,0.071 c0.247,0.105,0.489,0.155,0.739,0.155c0.454,0,0.896-0.171,1.214-0.468c0.495-0.536,0.985-1.133,1.434-1.747l0.285-0.37 c0.088-0.113,0.316-0.407,0.731-0.407c0.124,0,0.254,0.024,0.421,0.081c0.524,0.175,3.349,1.464,4.262,1.904l0.368,0.167 l0.445,0.192c0.176,0.076,0.293,0.245,0.301,0.437c0.038,0.847-0.104,1.676-0.422,2.466c-0.463,1.229-2.445,2.338-4.014,2.654 C52.847,65.362,52.485,65.437,51.964,65.437z"/><path fill="#472b29" d="M37.487,44.165c0.057,0,0.115,0.002,0.172,0.006c0.134,0.141,0.235,0.306,0.294,0.486l0.563,1.27 c0.757,1.708,1.295,2.931,1.412,3.134c0.118,0.204,0.135,0.329,0.084,0.423c-0.13,0.25-0.303,0.478-0.513,0.674l-0.067,0.071 c-0.126,0.141-0.252,0.258-0.378,0.384s-0.387,0.384-0.58,0.611c-0.646,0.554-0.784,1.456-0.328,2.155 c0.997,1.585,2.241,3.025,3.691,4.271c1.506,1.28,3.249,2.294,5.145,2.993l0.185,0.07c0.294,0.126,0.606,0.187,0.916,0.187 c0.572,0,1.135-0.208,1.556-0.602c0.536-0.579,1.036-1.186,1.496-1.818l0.277-0.361c0.114-0.147,0.204-0.212,0.335-0.212 c0.071,0,0.155,0.02,0.262,0.055c0.471,0.157,3.178,1.387,4.203,1.881l0.378,0.172l0.454,0.196 c0.035,0.769-0.097,1.536-0.387,2.257c-0.395,1.05-2.211,2.061-3.648,2.351c-0.267,0.055-0.582,0.118-1.047,0.118 c-1,0-2.69-0.293-6.065-1.599c-3.649-1.411-7.331-4.419-10.315-8.455l-0.177-0.235c-0.899-1.136-2.404-3.377-2.404-5.602 c-0.051-1.659,0.673-3.257,1.984-4.38c0.421-0.322,0.948-0.498,1.49-0.498c0.047,0,0.094,0.001,0.141,0.004 c0.252,0,0.471,0,0.698,0C37.372,44.167,37.43,44.165,37.487,44.165 M37.487,43.165c-0.069,0-0.138,0.002-0.207,0.006h-0.637 c-0.056-0.002-0.111-0.004-0.167-0.004c-0.76,0-1.505,0.25-2.098,0.704c-0.015,0.011-0.029,0.022-0.043,0.035 c-1.543,1.322-2.393,3.207-2.333,5.17c0,2.505,1.641,4.957,2.62,6.192l0.161,0.215c3.091,4.179,6.911,7.301,10.754,8.787 c2.939,1.137,4.981,1.667,6.426,1.667c0.573,0,0.979-0.083,1.247-0.139c1.71-0.345,3.83-1.506,4.384-2.978 c0.337-0.837,0.491-1.737,0.45-2.654c-0.017-0.382-0.251-0.721-0.603-0.873l-0.454-0.196l-0.36-0.164 c-0.912-0.439-3.735-1.73-4.302-1.919c-0.146-0.049-0.346-0.106-0.578-0.106c-0.659,0-1.009,0.45-1.124,0.598l-0.281,0.365 c-0.443,0.607-0.912,1.178-1.41,1.718c-0.224,0.198-0.532,0.312-0.849,0.312c-0.182,0-0.358-0.036-0.522-0.106l-0.224-0.086 c-1.801-0.665-3.431-1.612-4.853-2.821c-1.371-1.177-2.547-2.538-3.492-4.041c-0.191-0.293-0.135-0.635,0.132-0.863 c0.04-0.034,0.077-0.071,0.112-0.112c0.161-0.189,0.399-0.426,0.513-0.54l0.102-0.101c0.109-0.106,0.218-0.214,0.327-0.336 l0.025-0.026c0.283-0.269,0.518-0.58,0.696-0.923c0.15-0.278,0.259-0.755-0.105-1.385c-0.095-0.174-0.598-1.309-1.129-2.51 l-0.234-0.529l-0.546-1.232c-0.108-0.301-0.277-0.574-0.502-0.81c-0.17-0.178-0.401-0.287-0.646-0.306 C37.654,43.168,37.571,43.165,37.487,43.165L37.487,43.165z"/></g><g><path fill="#fdfcef" d="M33.5,78.5c0,0,1.567,0,3.5,0s3.5-1.567,3.5-3.5c0-1.781-1.335-3.234-3.055-3.455 C37.473,71.366,37.5,71.187,37.5,71c0-1.933-1.567-3.5-3.5-3.5c-1.032,0-1.95,0.455-2.59,1.165 c-0.384-1.808-1.987-3.165-3.91-3.165c-2.209,0-4,1.791-4,4c0,0.191,0.03,0.374,0.056,0.558C23.128,69.714,22.592,69.5,22,69.5 c-1.228,0-2.245,0.887-2.455,2.055C19.366,71.527,19.187,71.5,19,71.5c-1.933,0-3.5,1.567-3.5,3.5s1.567,3.5,3.5,3.5s7.5,0,7.5,0 V79h7V78.5z"/><path fill="#472b29" d="M35.25 74C35.112 74 35 73.888 35 73.75c0-1.223.995-2.218 2.218-2.218.034.009.737-.001 1.244.136.133.036.212.173.176.306-.036.134-.173.213-.306.176-.444-.12-1.1-.12-1.113-.118-.948 0-1.719.771-1.719 1.718C35.5 73.888 35.388 74 35.25 74zM28.5 78A.5.5 0 1 0 28.5 79 .5.5 0 1 0 28.5 78z"/><path fill="#472b29" d="M37,79h-3.5c-0.276,0-0.5-0.224-0.5-0.5s0.224-0.5,0.5-0.5H37c1.654,0,3-1.346,3-3 c0-1.496-1.125-2.768-2.618-2.959c-0.134-0.018-0.255-0.088-0.336-0.196s-0.115-0.244-0.094-0.377C36.975,71.314,37,71.16,37,71 c0-1.654-1.346-3-3-3c-0.85,0-1.638,0.355-2.219,1c-0.125,0.139-0.321,0.198-0.5,0.148c-0.182-0.049-0.321-0.195-0.36-0.379 C30.58,67.165,29.141,66,27.5,66c-1.93,0-3.5,1.57-3.5,3.5c0,0.143,0.021,0.28,0.041,0.418c0.029,0.203-0.063,0.438-0.242,0.54 c-0.179,0.102-0.396,0.118-0.556-0.01C22.878,70.155,22.449,70,22,70c-0.966,0-1.792,0.691-1.963,1.644 c-0.048,0.267-0.296,0.446-0.569,0.405C19.314,72.025,19.16,72,19,72c-1.654,0-3,1.346-3,3s1.346,3,3,3h7.5 c0.276,0,0.5,0.224,0.5,0.5S26.776,79,26.5,79H19c-2.206,0-4-1.794-4-4s1.794-4,4-4c0.059,0,0.116,0.002,0.174,0.006 C19.588,69.82,20.711,69,22,69c0.349,0,0.689,0.061,1.011,0.18C23.176,66.847,25.126,65,27.5,65c1.831,0,3.466,1.127,4.153,2.774 C32.333,67.276,33.155,67,34,67c2.206,0,4,1.794,4,4c0,0.048-0.001,0.095-0.004,0.142C39.739,71.59,41,73.169,41,75 C41,77.206,39.206,79,37,79z"/><path fill="#472b29" d="M31.5,78c-0.159,0-0.841,0-1,0c-0.276,0-0.5,0.224-0.5,0.5c0,0.276,0.224,0.5,0.5,0.5 c0.159,0,0.841,0,1,0c0.276,0,0.5-0.224,0.5-0.5C32,78.224,31.776,78,31.5,78z"/></g></svg>