<svg xmlns="http://www.w3.org/2000/svg"  viewBox="0 0 100 100" width="500px" height="500px"><path fill="#c7ede6" d="M87.215,56.71C88.35,54.555,89,52.105,89,49.5c0-6.621-4.159-12.257-10.001-14.478 C78.999,35.015,79,35.008,79,35c0-11.598-9.402-21-21-21c-9.784,0-17.981,6.701-20.313,15.757C36.211,29.272,34.638,29,33,29 c-7.692,0-14.023,5.793-14.89,13.252C12.906,43.353,9,47.969,9,53.5C9,59.851,14.149,65,20.5,65c0.177,0,0.352-0.012,0.526-0.022 C21.022,65.153,21,65.324,21,65.5C21,76.822,30.178,86,41.5,86c6.437,0,12.175-2.972,15.934-7.614C59.612,80.611,62.64,82,66,82 c4.65,0,8.674-2.65,10.666-6.518C77.718,75.817,78.837,76,80,76c6.075,0,11-4.925,11-11C91,61.689,89.53,58.727,87.215,56.71z"/><path fill="#fff" d="M35.405 79H25.5c-.276 0-.5-.224-.5-.5s.224-.5.5-.5h9.905c.276 0 .5.224.5.5S35.682 79 35.405 79zM38.5 79h-1c-.276 0-.5-.224-.5-.5s.224-.5.5-.5h1c.276 0 .5.224.5.5S38.777 79 38.5 79zM43.491 81H34.5c-.276 0-.5-.224-.5-.5s.224-.5.5-.5h8.991c.276 0 .5.224.5.5S43.767 81 43.491 81zM32.5 81h-1c-.276 0-.5-.224-.5-.5s.224-.5.5-.5h1c.276 0 .5.224.5.5S32.777 81 32.5 81zM29.5 81h-2c-.276 0-.5-.224-.5-.5s.224-.5.5-.5h2c.276 0 .5.224.5.5S29.777 81 29.5 81zM35.5 83h-2c-.276 0-.5-.224-.5-.5s.224-.5.5-.5h2c.276 0 .5.224.5.5S35.776 83 35.5 83zM38.5 74c-.177 0-.823 0-1 0-.276 0-.5.224-.5.5 0 .276.224.5.5.5.177 0 .823 0 1 0 .276 0 .5-.224.5-.5C39 74.224 38.776 74 38.5 74zM38.5 76c-.177 0-4.823 0-5 0-.276 0-.5.224-.5.5 0 .276.224.5.5.5.177 0 4.823 0 5 0 .276 0 .5-.224.5-.5C39 76.224 38.776 76 38.5 76zM43.5 78c-.177 0-2.823 0-3 0-.276 0-.5.224-.5.5 0 .276.224.5.5.5.177 0 2.823 0 3 0 .276 0 .5-.224.5-.5C44 78.224 43.776 78 43.5 78zM66.5 21h-10c-.276 0-.5-.224-.5-.5s.224-.5.5-.5h10c.276 0 .5.224.5.5S66.776 21 66.5 21zM70.5 21h-2c-.276 0-.5-.224-.5-.5s.224-.5.5-.5h2c.276 0 .5.224.5.5S70.776 21 70.5 21zM75.5 23h-10c-.276 0-.5-.224-.5-.5s.224-.5.5-.5h10c.276 0 .5.224.5.5S75.777 23 75.5 23zM63.5 23h-1c-.276 0-.5-.224-.5-.5s.224-.5.5-.5h1c.276 0 .5.224.5.5S63.776 23 63.5 23zM60.375 23H58.5c-.276 0-.5-.224-.5-.5s.224-.5.5-.5h1.875c.276 0 .5.224.5.5S60.651 23 60.375 23zM69.5 19h-5c-.276 0-.5-.224-.5-.5s.224-.5.5-.5h5c.276 0 .5.224.5.5S69.777 19 69.5 19zM66.5 25h-2c-.276 0-.5-.224-.5-.5s.224-.5.5-.5h2c.276 0 .5.224.5.5S66.776 25 66.5 25z"/><g><path fill="#fffef4" d="M28.221,63.3c-1.941,0-3.521-1.579-3.521-3.521V40.221c0-1.941,1.579-3.521,3.521-3.521h28.559 c1.941,0,3.521,1.579,3.521,3.521v19.559c0,1.941-1.579,3.521-3.521,3.521H28.221z"/><path fill="#472b29" d="M56.779,37.4c1.555,0,2.821,1.265,2.821,2.821v19.559c0,1.555-1.265,2.821-2.821,2.821H28.221 c-1.555,0-2.821-1.265-2.821-2.821V40.221c0-1.555,1.265-2.821,2.821-2.821H56.779 M56.779,36H28.221C25.89,36,24,37.89,24,40.221 v19.559C24,62.11,25.89,64,28.221,64h28.558C59.11,64,61,62.11,61,59.779V40.221C61,37.89,59.11,36,56.779,36L56.779,36z"/></g><g><path fill="#c5def0" d="M54.853,59H29.258c-0.859,0-1.555-0.696-1.555-1.555v-16.15c0-0.859,0.696-1.555,1.555-1.555h25.595 c0.859,0,1.555,0.696,1.555,1.555v16.15C56.407,58.304,55.711,59,54.853,59z"/></g><g><path fill="#472b29" d="M39,40.37h-2.729c-0.276,0-0.5-0.224-0.5-0.5s0.224-0.5,0.5-0.5H39c0.276,0,0.5,0.224,0.5,0.5 S39.276,40.37,39,40.37z"/></g><g><path fill="#472b29" d="M27.704,43.867c-0.276,0-0.5-0.224-0.5-0.5v-2.16c0-1.084,0.882-1.966,1.966-1.966h5.092 c0.276,0,0.5,0.224,0.5,0.5s-0.224,0.5-0.5,0.5H29.17c-0.533,0-0.966,0.434-0.966,0.966v2.16 C28.204,43.644,27.98,43.867,27.704,43.867z"/></g><g><path fill="#472b29" d="M55.82,59.223H29.217c-1.11,0-2.014-0.953-2.014-2.125V46.239c0-0.276,0.224-0.5,0.5-0.5 s0.5,0.224,0.5,0.5v10.858c0,0.62,0.455,1.125,1.014,1.125H55.82c0.559,0,1.014-0.505,1.014-1.125V41.365 c0-0.62-0.455-1.124-1.014-1.124H41.563c-0.276,0-0.5-0.224-0.5-0.5s0.224-0.5,0.5-0.5H55.82c1.11,0,2.014,0.953,2.014,2.124 v15.732C57.833,58.27,56.93,59.223,55.82,59.223z"/></g><g><path fill="#fdfcef" d="M38.875,31.5c0,0,3.64,0,6.125,0s4.5-2.015,4.5-4.5c0-2.333-1.782-4.229-4.055-4.455 C45.467,22.364,45.5,22.187,45.5,22c0-2.485-2.015-4.5-4.5-4.5c-1.438,0-2.703,0.686-3.527,1.736 C37.333,16.6,35.171,14.5,32.5,14.5c-2.761,0-5,2.239-5,5c0,0.446,0.077,0.87,0.187,1.282C27.045,20.005,26.086,19.5,25,19.5 c-1.781,0-3.234,1.335-3.455,3.055C21.364,22.533,21.187,22.5,21,22.5c-2.485,0-4.5,2.015-4.5,4.5s2.015,4.5,4.5,4.5s9.5,0,9.5,0 h5.375V32h3V31.5z"/><path fill="#472b29" d="M32.5,14c-3.033,0-5.5,2.467-5.5,5.5c0,0.016,0,0.031,0,0.047C26.398,19.192,25.71,19,25,19 c-1.831,0-3.411,1.261-3.858,3.005C21.095,22.002,21.048,22,21,22c-2.757,0-5,2.243-5,5s2.243,5,5,5h14.875 c0.276,0,0.5-0.224,0.5-0.5s-0.224-0.5-0.5-0.5H21c-2.206,0-4-1.794-4-4s1.794-4,4-4c0.117,0,0.23,0.017,0.343,0.032l0.141,0.019 c0.021,0.003,0.041,0.004,0.062,0.004c0.246,0,0.462-0.185,0.495-0.437C22.232,21.125,23.504,20,25,20 c0.885,0,1.723,0.401,2.301,1.1c0.098,0.118,0.241,0.182,0.386,0.182c0.078,0,0.156-0.018,0.228-0.056 c0.209-0.107,0.314-0.346,0.254-0.573C28.054,20.218,28,19.852,28,19.5c0-2.481,2.019-4.5,4.5-4.5 c2.381,0,4.347,1.872,4.474,4.263c0.011,0.208,0.15,0.387,0.349,0.45c0.05,0.016,0.101,0.024,0.152,0.024 c0.15,0,0.296-0.069,0.392-0.192C38.638,18.563,39.779,18,41,18c2.206,0,4,1.794,4,4c0,0.117-0.017,0.23-0.032,0.343l-0.019,0.141 c-0.016,0.134,0.022,0.268,0.106,0.373c0.084,0.105,0.207,0.172,0.34,0.185C47.451,23.247,49,24.949,49,27c0,2.206-1.794,4-4,4 h-6.125c-0.276,0-0.5,0.224-0.5,0.5s0.224,0.5,0.5,0.5H45c2.757,0,5-2.243,5-5c0-2.397-1.689-4.413-4.003-4.877 C45.999,22.082,46,22.041,46,22c0-2.757-2.243-5-5-5c-1.176,0-2.293,0.416-3.183,1.164C37.219,15.76,35.055,14,32.5,14L32.5,14z"/><path fill="#472b29" d="M31 21c-1.403 0-2.609.999-2.913 2.341C27.72 23.119 27.301 23 26.875 23c-1.202 0-2.198.897-2.353 2.068C24.319 25.022 24.126 25 23.937 25c-1.529 0-2.811 1.2-2.918 2.732C21.01 27.87 21.114 27.99 21.251 28c.006 0 .012 0 .018 0 .13 0 .24-.101.249-.232.089-1.271 1.151-2.268 2.419-2.268.229 0 .47.042.738.127.022.007.045.01.067.01.055 0 .11-.02.156-.054C24.962 25.537 25 25.455 25 25.375c0-1.034.841-1.875 1.875-1.875.447 0 .885.168 1.231.473.047.041.106.063.165.063.032 0 .063-.006.093-.019.088-.035.148-.117.155-.212C28.623 22.512 29.712 21.5 31 21.5c.208 0 .425.034.682.107.023.007.047.01.07.01.109 0 .207-.073.239-.182.038-.133-.039-.271-.172-.309C31.517 21.04 31.256 21 31 21L31 21zM44.883 22.5c-1.326 0-2.508.897-2.874 2.182-.038.133.039.271.172.309C42.205 24.997 42.228 25 42.25 25c.109 0 .209-.072.24-.182C42.795 23.748 43.779 23 44.883 23c.117 0 .23.014.342.029.012.002.023.003.035.003.121 0 .229-.092.246-.217.019-.137-.077-.263-.214-.281C45.158 22.516 45.022 22.5 44.883 22.5L44.883 22.5z"/></g><g><path fill="#bebacb" d="M57.342,70.3c-1.457,0-2.642-1.185-2.642-2.642V31.342c0-1.457,1.185-2.642,2.642-2.642h13.316 c1.457,0,2.642,1.185,2.642,2.642v36.316c0,1.457-1.185,2.642-2.642,2.642H57.342z"/><path fill="#472b29" d="M70.658,29.4c1.071,0,1.942,0.871,1.942,1.942v36.316c0,1.071-0.871,1.942-1.942,1.942H57.342 c-1.071,0-1.942-0.871-1.942-1.942V31.342c0-1.071,0.871-1.942,1.942-1.942H70.658 M70.658,28H57.342 C55.496,28,54,29.496,54,31.342v36.316C54,69.504,55.496,71,57.342,71h13.317C72.504,71,74,69.504,74,67.658V31.342 C74,29.496,72.504,28,70.658,28L70.658,28z"/><path fill="#bebacb" d="M57.5 43.5H70.5V45.5H57.5z"/><path fill="#472b29" d="M70 44v1H58v-1H70M71 43H57v3h14V43L71 43zM68.5 37h-1c-.276 0-.5-.224-.5-.5s.224-.5.5-.5h1c.276 0 .5.224.5.5S68.776 37 68.5 37zM68.5 40h-9c-.276 0-.5-.224-.5-.5s.224-.5.5-.5h9c.276 0 .5.224.5.5S68.776 40 68.5 40zM68.5 34h-9c-.276 0-.5-.224-.5-.5s.224-.5.5-.5h9c.276 0 .5.224.5.5S68.776 34 68.5 34zM65.5 37h-6c-.276 0-.5-.224-.5-.5s.224-.5.5-.5h6c.276 0 .5.224.5.5S65.776 37 65.5 37z"/><path fill="#ea5167" d="M64.5 49.25A2.25 2.25 0 1 0 64.5 53.75A2.25 2.25 0 1 0 64.5 49.25Z"/><path fill="#472b29" d="M64.5,49.5c1.103,0,2,0.897,2,2s-0.897,2-2,2s-2-0.897-2-2S63.397,49.5,64.5,49.5 M64.5,49 c-1.381,0-2.5,1.119-2.5,2.5s1.119,2.5,2.5,2.5s2.5-1.119,2.5-2.5S65.881,49,64.5,49L64.5,49z"/><g><path fill="#472b29" d="M57.164,69.687c-0.015,0-0.029-0.001-0.043-0.004c-0.136-0.023-0.227-0.153-0.203-0.289 l0.785-4.479c0.27-1.338,1.136-2.165,2.261-2.165h0.988c0.138,0,0.25,0.112,0.25,0.25s-0.112,0.25-0.25,0.25h-0.988 c-0.886,0-1.547,0.657-1.77,1.758l-0.784,4.472C57.389,69.601,57.283,69.687,57.164,69.687z"/></g><g><path fill="#472b29" d="M63.716,63.25h-1.343c-0.138,0-0.25-0.112-0.25-0.25s0.112-0.25,0.25-0.25h1.343 c0.138,0,0.25,0.112,0.25,0.25S63.854,63.25,63.716,63.25z"/></g><g><path fill="#472b29" d="M71.222,70.62H57c-0.074,0-0.144-0.032-0.191-0.089s-0.067-0.132-0.055-0.204l0.164-0.934 c0.023-0.136,0.155-0.234,0.289-0.203c0.136,0.023,0.227,0.153,0.203,0.289l-0.112,0.641h13.626l-0.896-5.119 c-0.217-1.095-0.879-1.751-1.769-1.751h-2.884c-0.138,0-0.25-0.112-0.25-0.25s0.112-0.25,0.25-0.25h2.884 c1.129,0,1.996,0.827,2.26,2.159l0.949,5.418c0.013,0.072-0.007,0.147-0.055,0.204S71.296,70.62,71.222,70.62z"/></g></g><g><path fill="#bebacb" d="M40.7 63.7H46.300000000000004V68.3H40.7z"/><path fill="#472b29" d="M45.6,64.4v3.2h-4.2v-3.2H45.6 M47,63h-7v6h7V63L47,63z"/></g><g><path fill="#bebacb" d="M36.944,70.3c-0.686,0-1.244-0.558-1.244-1.243v-0.113c0-0.686,0.558-1.243,1.244-1.243h13.112 c0.686,0,1.244,0.558,1.244,1.243v0.113c0,0.686-0.558,1.243-1.244,1.243H36.944z"/><path fill="#472b29" d="M50.056,68.4c0.3,0,0.544,0.244,0.544,0.544v0.113c0,0.3-0.244,0.544-0.544,0.544H36.944 c-0.3,0-0.544-0.244-0.544-0.544v-0.113c0-0.3,0.244-0.544,0.544-0.544H50.056 M50.056,67H36.944C35.87,67,35,67.87,35,68.944 v0.113C35,70.13,35.87,71,36.944,71h13.113C51.13,71,52,70.13,52,69.056v-0.113C52,67.87,51.13,67,50.056,67L50.056,67z"/></g><g><path fill="#fde751" d="M31.75,45.75c-0.276,0-0.5-0.225-0.5-0.5v-1.5c0-0.275,0.224-0.5,0.5-0.5h1.5 c0.276,0,0.5,0.225,0.5,0.5v1.5c0,0.275-0.224,0.5-0.5,0.5H31.75z"/><path fill="#472b29" d="M33.25,43.5c0.138,0,0.25,0.112,0.25,0.25v1.5c0,0.138-0.112,0.25-0.25,0.25h-1.5 c-0.138,0-0.25-0.112-0.25-0.25v-1.5c0-0.138,0.112-0.25,0.25-0.25H33.25 M33.25,43h-1.5C31.336,43,31,43.336,31,43.75v1.5 c0,0.414,0.336,0.75,0.75,0.75h1.5c0.414,0,0.75-0.336,0.75-0.75v-1.5C34,43.336,33.664,43,33.25,43L33.25,43z"/></g><g><path fill="#ea5167" d="M31.75,50.75c-0.276,0-0.5-0.225-0.5-0.5v-1.5c0-0.275,0.224-0.5,0.5-0.5h1.5 c0.276,0,0.5,0.225,0.5,0.5v1.5c0,0.275-0.224,0.5-0.5,0.5H31.75z"/><path fill="#472b29" d="M33.25,48.5c0.138,0,0.25,0.112,0.25,0.25v1.5c0,0.138-0.112,0.25-0.25,0.25h-1.5 c-0.138,0-0.25-0.112-0.25-0.25v-1.5c0-0.138,0.112-0.25,0.25-0.25H33.25 M33.25,48h-1.5C31.336,48,31,48.336,31,48.75v1.5 c0,0.414,0.336,0.75,0.75,0.75h1.5c0.414,0,0.75-0.336,0.75-0.75v-1.5C34,48.336,33.664,48,33.25,48L33.25,48z"/></g><g><path fill="#add4a1" d="M31.75,55.75c-0.276,0-0.5-0.225-0.5-0.5v-1.5c0-0.275,0.224-0.5,0.5-0.5h1.5 c0.276,0,0.5,0.225,0.5,0.5v1.5c0,0.275-0.224,0.5-0.5,0.5H31.75z"/><path fill="#472b29" d="M33.25,53.5c0.138,0,0.25,0.112,0.25,0.25v1.5c0,0.138-0.112,0.25-0.25,0.25h-1.5 c-0.138,0-0.25-0.112-0.25-0.25v-1.5c0-0.138,0.112-0.25,0.25-0.25H33.25 M33.25,53h-1.5C31.336,53,31,53.336,31,53.75v1.5 c0,0.414,0.336,0.75,0.75,0.75h1.5c0.414,0,0.75-0.336,0.75-0.75v-1.5C34,53.336,33.664,53,33.25,53L33.25,53z"/></g><g><path fill="#fdfcef" d="M79.5,76.5c0,0,1.567,0,3.5,0s3.5-1.567,3.5-3.5c0-1.781-1.335-3.234-3.055-3.455 C83.473,69.366,83.5,69.187,83.5,69c0-1.933-1.567-3.5-3.5-3.5c-1.032,0-1.95,0.455-2.59,1.165 c-0.384-1.808-1.987-3.165-3.91-3.165c-2.209,0-4,1.791-4,4c0,0.191,0.03,0.374,0.056,0.558C69.128,67.714,68.592,67.5,68,67.5 c-1.228,0-2.245,0.887-2.455,2.055C65.366,69.527,65.187,69.5,65,69.5c-1.933,0-3.5,1.567-3.5,3.5s1.567,3.5,3.5,3.5s7.5,0,7.5,0 V77h7V76.5z"/><path fill="#472b29" d="M81.25 72C81.112 72 81 71.888 81 71.75c0-1.223.995-2.218 2.218-2.218.034.009.737-.001 1.244.136.133.036.212.173.176.306-.036.134-.173.213-.306.176-.444-.12-1.1-.12-1.113-.118-.948 0-1.719.771-1.719 1.718C81.5 71.888 81.388 72 81.25 72zM74.5 76A.5.5 0 1 0 74.5 77 .5.5 0 1 0 74.5 76z"/><path fill="#472b29" d="M83,77h-3.5c-0.276,0-0.5-0.224-0.5-0.5s0.224-0.5,0.5-0.5H83c1.654,0,3-1.346,3-3 c0-1.496-1.125-2.768-2.618-2.959c-0.134-0.018-0.255-0.088-0.336-0.196s-0.115-0.244-0.094-0.377C82.975,69.314,83,69.16,83,69 c0-1.654-1.346-3-3-3c-0.85,0-1.638,0.355-2.219,1c-0.125,0.139-0.321,0.198-0.5,0.148c-0.182-0.049-0.321-0.195-0.36-0.379 C76.58,65.165,75.141,64,73.5,64c-1.93,0-3.5,1.57-3.5,3.5c0,0.143,0.021,0.28,0.041,0.418c0.029,0.203-0.063,0.438-0.242,0.54 c-0.179,0.102-0.396,0.118-0.556-0.01C68.878,68.155,68.449,68,68,68c-0.966,0-1.792,0.691-1.963,1.644 c-0.048,0.267-0.296,0.446-0.569,0.405C65.314,70.025,65.16,70,65,70c-1.654,0-3,1.346-3,3s1.346,3,3,3h7.5 c0.276,0,0.5,0.224,0.5,0.5S72.776,77,72.5,77H65c-2.206,0-4-1.794-4-4s1.794-4,4-4c0.059,0,0.116,0.002,0.174,0.006 C65.588,67.82,66.711,67,68,67c0.349,0,0.689,0.061,1.011,0.18C69.176,64.847,71.126,63,73.5,63c1.831,0,3.466,1.127,4.153,2.774 C78.333,65.276,79.155,65,80,65c2.206,0,4,1.794,4,4c0,0.048-0.001,0.095-0.004,0.142C85.739,69.59,87,71.169,87,73 C87,75.206,85.206,77,83,77z"/><path fill="#472b29" d="M77.5,76c-0.159,0-0.841,0-1,0c-0.276,0-0.5,0.224-0.5,0.5c0,0.276,0.224,0.5,0.5,0.5 c0.159,0,0.841,0,1,0c0.276,0,0.5-0.224,0.5-0.5C78,76.224,77.776,76,77.5,76z"/></g></svg>