<svg xmlns="http://www.w3.org/2000/svg"  viewBox="0 0 100 100" width="500px" height="500px"><path fill="#c7ede6" d="M87.215,56.71C88.35,54.555,89,52.105,89,49.5c0-6.621-4.159-12.257-10.001-14.478 C78.999,35.015,79,35.008,79,35c0-11.598-9.402-21-21-21c-9.784,0-17.981,6.701-20.313,15.757C36.211,29.272,34.638,29,33,29 c-7.692,0-14.023,5.793-14.89,13.252C12.906,43.353,9,47.969,9,53.5C9,59.851,14.149,65,20.5,65c0.177,0,0.352-0.012,0.526-0.022 C21.022,65.153,21,65.324,21,65.5C21,76.822,30.178,86,41.5,86c6.437,0,12.175-2.972,15.934-7.614C59.612,80.611,62.64,82,66,82 c4.65,0,8.674-2.65,10.666-6.518C77.718,75.817,78.837,76,80,76c6.075,0,11-4.925,11-11C91,61.689,89.53,58.727,87.215,56.71z"/><path fill="#fdfcef" d="M40.875,33.5c0,0,3.64,0,6.125,0s4.5-2.015,4.5-4.5c0-2.333-1.782-4.229-4.055-4.455 C47.467,24.364,47.5,24.187,47.5,24c0-2.485-2.015-4.5-4.5-4.5c-1.438,0-2.703,0.686-3.527,1.736 C39.333,18.6,37.171,16.5,34.5,16.5c-2.761,0-5,2.239-5,5c0,0.446,0.077,0.87,0.187,1.282C29.045,22.005,28.086,21.5,27,21.5 c-1.781,0-3.234,1.335-3.455,3.055C23.364,24.533,23.187,24.5,23,24.5c-2.485,0-4.5,2.015-4.5,4.5s2.015,4.5,4.5,4.5s9.5,0,9.5,0 h5.375V34h3V33.5z"/><path fill="#472b29" d="M34.5,16c-3.033,0-5.5,2.467-5.5,5.5c0,0.016,0,0.031,0,0.047C28.398,21.192,27.71,21,27,21 c-1.831,0-3.411,1.261-3.858,3.005C23.095,24.002,23.048,24,23,24c-2.757,0-5,2.243-5,5s2.243,5,5,5h14.875 c0.276,0,0.5-0.224,0.5-0.5s-0.224-0.5-0.5-0.5H23c-2.206,0-4-1.794-4-4s1.794-4,4-4c0.117,0,0.23,0.017,0.343,0.032l0.141,0.019 c0.021,0.003,0.041,0.004,0.062,0.004c0.246,0,0.462-0.185,0.495-0.437C24.232,23.125,25.504,22,27,22 c0.885,0,1.723,0.401,2.301,1.1c0.098,0.118,0.241,0.182,0.386,0.182c0.078,0,0.156-0.018,0.228-0.056 c0.209-0.107,0.314-0.346,0.254-0.573C30.054,22.218,30,21.852,30,21.5c0-2.481,2.019-4.5,4.5-4.5 c2.381,0,4.347,1.872,4.474,4.263c0.011,0.208,0.15,0.387,0.349,0.45c0.05,0.016,0.101,0.024,0.152,0.024 c0.15,0,0.296-0.069,0.392-0.192C40.638,20.563,41.779,20,43,20c2.206,0,4,1.794,4,4c0,0.117-0.017,0.23-0.032,0.343l-0.019,0.141 c-0.016,0.134,0.022,0.268,0.106,0.373c0.084,0.105,0.207,0.172,0.34,0.185C49.451,25.247,51,26.949,51,29c0,2.206-1.794,4-4,4 h-6.125c-0.276,0-0.5,0.224-0.5,0.5s0.224,0.5,0.5,0.5H47c2.757,0,5-2.243,5-5c0-2.397-1.689-4.413-4.003-4.877 C47.999,24.082,48,24.041,48,24c0-2.757-2.243-5-5-5c-1.176,0-2.293,0.416-3.183,1.164C39.219,17.76,37.055,16,34.5,16L34.5,16z"/><path fill="#472b29" d="M33 23c-1.403 0-2.609.999-2.913 2.341C29.72 25.119 29.301 25 28.875 25c-1.202 0-2.198.897-2.353 2.068C26.319 27.022 26.126 27 25.937 27c-1.529 0-2.811 1.2-2.918 2.732C23.01 29.87 23.114 29.99 23.251 30c.006 0 .012 0 .018 0 .13 0 .24-.101.249-.232.089-1.271 1.151-2.268 2.419-2.268.229 0 .47.042.738.127.022.007.045.01.067.01.055 0 .11-.02.156-.054C26.962 27.537 27 27.455 27 27.375c0-1.034.841-1.875 1.875-1.875.447 0 .885.168 1.231.473.047.041.106.063.165.063.032 0 .063-.006.093-.019.088-.035.148-.117.155-.212C30.623 24.512 31.712 23.5 33 23.5c.208 0 .425.034.682.107.023.007.047.01.07.01.109 0 .207-.073.239-.182.038-.133-.039-.271-.172-.309C33.517 23.04 33.256 23 33 23L33 23zM46.883 24.5c-1.326 0-2.508.897-2.874 2.182-.038.133.039.271.172.309C44.205 26.997 44.228 27 44.25 27c.109 0 .209-.072.24-.182C44.795 25.748 45.779 25 46.883 25c.117 0 .23.014.342.029.012.002.023.003.035.003.121 0 .229-.092.246-.217.019-.137-.077-.263-.214-.281C47.158 24.516 47.022 24.5 46.883 24.5L46.883 24.5z"/><path fill="#fff" d="M33.405 79H23.5c-.276 0-.5-.224-.5-.5s.224-.5.5-.5h9.905c.276 0 .5.224.5.5S33.682 79 33.405 79zM36.5 79h-1c-.276 0-.5-.224-.5-.5s.224-.5.5-.5h1c.276 0 .5.224.5.5S36.777 79 36.5 79zM41.491 81H32.5c-.276 0-.5-.224-.5-.5s.224-.5.5-.5h8.991c.276 0 .5.224.5.5S41.767 81 41.491 81zM30.5 81h-1c-.276 0-.5-.224-.5-.5s.224-.5.5-.5h1c.276 0 .5.224.5.5S30.777 81 30.5 81zM27.5 81h-2c-.276 0-.5-.224-.5-.5s.224-.5.5-.5h2c.276 0 .5.224.5.5S27.777 81 27.5 81zM33.5 83h-2c-.276 0-.5-.224-.5-.5s.224-.5.5-.5h2c.276 0 .5.224.5.5S33.776 83 33.5 83zM36.5 74c-.177 0-.823 0-1 0-.276 0-.5.224-.5.5 0 .276.224.5.5.5.177 0 .823 0 1 0 .276 0 .5-.224.5-.5C37 74.224 36.776 74 36.5 74zM36.5 76c-.177 0-4.823 0-5 0-.276 0-.5.224-.5.5 0 .276.224.5.5.5.177 0 4.823 0 5 0 .276 0 .5-.224.5-.5C37 76.224 36.776 76 36.5 76zM41.5 78c-.177 0-2.823 0-3 0-.276 0-.5.224-.5.5 0 .276.224.5.5.5.177 0 2.823 0 3 0 .276 0 .5-.224.5-.5C42 78.224 41.776 78 41.5 78zM71.5 22h-10c-.276 0-.5-.224-.5-.5s.224-.5.5-.5h10c.276 0 .5.224.5.5S71.776 22 71.5 22zM75.5 22h-2c-.276 0-.5-.224-.5-.5s.224-.5.5-.5h2c.276 0 .5.224.5.5S75.776 22 75.5 22zM80.5 24h-10c-.276 0-.5-.224-.5-.5s.224-.5.5-.5h10c.276 0 .5.224.5.5S80.777 24 80.5 24zM68.5 24h-1c-.276 0-.5-.224-.5-.5s.224-.5.5-.5h1c.276 0 .5.224.5.5S68.776 24 68.5 24zM65.375 24H63.5c-.276 0-.5-.224-.5-.5s.224-.5.5-.5h1.875c.276 0 .5.224.5.5S65.651 24 65.375 24zM74.5 20h-5c-.276 0-.5-.224-.5-.5s.224-.5.5-.5h5c.276 0 .5.224.5.5S74.777 20 74.5 20zM71.5 26h-2c-.276 0-.5-.224-.5-.5s.224-.5.5-.5h2c.276 0 .5.224.5.5S71.776 26 71.5 26z"/><path fill="#fdfcef" d="M76.5,66.5c0,0,1.567,0,3.5,0s3.5-1.567,3.5-3.5c0-1.781-1.335-3.234-3.055-3.455 C80.473,59.366,80.5,59.187,80.5,59c0-1.933-1.567-3.5-3.5-3.5c-1.032,0-1.95,0.455-2.59,1.165 c-0.384-1.808-1.987-3.165-3.91-3.165c-2.209,0-4,1.791-4,4c0,0.191,0.03,0.374,0.056,0.558C66.128,57.714,65.592,57.5,65,57.5 c-1.228,0-2.245,0.887-2.455,2.055C62.366,59.527,62.187,59.5,62,59.5c-1.933,0-3.5,1.567-3.5,3.5s1.567,3.5,3.5,3.5s7.5,0,7.5,0 V67h7V66.5z"/><path fill="#472b29" d="M78.25 62C78.112 62 78 61.888 78 61.75c0-1.223.995-2.218 2.218-2.218.034.009.737-.001 1.244.136.133.036.212.173.176.306-.036.134-.173.213-.306.176-.444-.12-1.1-.12-1.113-.118-.948 0-1.719.771-1.719 1.718C78.5 61.888 78.388 62 78.25 62zM71.5 66A.5.5 0 1 0 71.5 67 .5.5 0 1 0 71.5 66z"/><path fill="#472b29" d="M80,67h-3.5c-0.276,0-0.5-0.224-0.5-0.5s0.224-0.5,0.5-0.5H80c1.654,0,3-1.346,3-3 c0-1.496-1.125-2.768-2.618-2.959c-0.134-0.018-0.255-0.088-0.336-0.196s-0.115-0.244-0.094-0.377C79.975,59.314,80,59.16,80,59 c0-1.654-1.346-3-3-3c-0.85,0-1.638,0.355-2.219,1c-0.125,0.139-0.321,0.198-0.5,0.148c-0.182-0.049-0.321-0.195-0.36-0.379 C73.58,55.165,72.141,54,70.5,54c-1.93,0-3.5,1.57-3.5,3.5c0,0.143,0.021,0.28,0.041,0.418c0.029,0.203-0.063,0.438-0.242,0.54 c-0.179,0.102-0.396,0.118-0.556-0.01C65.878,58.155,65.449,58,65,58c-0.966,0-1.792,0.691-1.963,1.644 c-0.048,0.267-0.296,0.446-0.569,0.405C62.314,60.025,62.16,60,62,60c-1.654,0-3,1.346-3,3s1.346,3,3,3h7.5 c0.276,0,0.5,0.224,0.5,0.5S69.776,67,69.5,67H62c-2.206,0-4-1.794-4-4s1.794-4,4-4c0.059,0,0.116,0.002,0.174,0.006 C62.588,57.82,63.711,57,65,57c0.349,0,0.689,0.061,1.011,0.18C66.176,54.847,68.126,53,70.5,53c1.831,0,3.466,1.127,4.153,2.774 C75.333,55.276,76.155,55,77,55c2.206,0,4,1.794,4,4c0,0.048-0.001,0.095-0.004,0.142C82.739,59.59,84,61.169,84,63 C84,65.206,82.206,67,80,67z"/><path fill="#472b29" d="M74.5,66c-0.159,0-0.841,0-1,0c-0.276,0-0.5,0.224-0.5,0.5c0,0.276,0.224,0.5,0.5,0.5 c0.159,0,0.841,0,1,0c0.276,0,0.5-0.224,0.5-0.5C75,66.224,74.776,66,74.5,66z"/><g><path fill="#472b29" d="M30.1 61.86L28.9 61.14 41.267 40.528 57.347 50.579 69.957 35.059 71.043 35.941 57.653 52.421 41.733 42.472z"/></g><g><path fill="#ef7d99" d="M30 55.7A5.3 5.3 0 1 0 30 66.3A5.3 5.3 0 1 0 30 55.7Z"/><path fill="#472b29" d="M30,56.4c2.536,0,4.6,2.063,4.6,4.6s-2.064,4.6-4.6,4.6s-4.6-2.063-4.6-4.6S27.464,56.4,30,56.4 M30,55c-3.314,0-6,2.687-6,6s2.686,6,6,6s6-2.687,6-6S33.314,55,30,55L30,55z"/></g><g><path fill="#ef7d99" d="M70 30.7A5.3 5.3 0 1 0 70 41.3A5.3 5.3 0 1 0 70 30.7Z"/><path fill="#472b29" d="M70,31.4c2.536,0,4.6,2.063,4.6,4.6s-2.064,4.6-4.6,4.6s-4.6-2.063-4.6-4.6S67.464,31.4,70,31.4 M70,30c-3.314,0-6,2.687-6,6s2.686,6,6,6s6-2.687,6-6S73.314,30,70,30L70,30z"/></g><g><path fill="#ef7d99" d="M42 37.7A5.3 5.3 0 1 0 42 48.3A5.3 5.3 0 1 0 42 37.7Z"/><path fill="#472b29" d="M42,38.4c2.536,0,4.6,2.063,4.6,4.6s-2.064,4.6-4.6,4.6s-4.6-2.063-4.6-4.6S39.464,38.4,42,38.4 M42,37c-3.314,0-6,2.687-6,6s2.686,6,6,6s6-2.687,6-6S45.314,37,42,37L42,37z"/></g><g><path fill="#ef7d99" d="M42,40.5c0.583,0,1.119,0.199,1.544,0.533"/><path fill="#472b29" d="M43.544,41.283c-0.054,0-0.108-0.018-0.154-0.054c-0.4-0.313-0.88-0.479-1.39-0.479 c-0.138,0-0.25-0.112-0.25-0.25s0.112-0.25,0.25-0.25c0.623,0,1.209,0.203,1.698,0.587c0.109,0.085,0.127,0.242,0.042,0.351 C43.691,41.25,43.618,41.283,43.544,41.283z"/></g><g><path fill="#ef7d99" d="M44.306,42.032C44.431,42.33,44.5,42.657,44.5,43c0,1.381-1.119,2.5-2.5,2.5s-2.5-1.119-2.5-2.5 c0-0.985,0.57-1.838,1.399-2.245"/><path fill="#472b29" d="M42,45.75c-1.517,0-2.75-1.233-2.75-2.75c0-1.057,0.589-2.003,1.538-2.47 c0.125-0.063,0.274-0.011,0.334,0.114c0.061,0.124,0.01,0.273-0.114,0.335C40.232,41.361,39.75,42.136,39.75,43 c0,1.24,1.009,2.25,2.25,2.25s2.25-1.01,2.25-2.25c0-0.302-0.059-0.595-0.175-0.871c-0.054-0.127,0.006-0.273,0.134-0.327 c0.128-0.054,0.274,0.008,0.327,0.134c0.142,0.338,0.214,0.696,0.214,1.064C44.75,44.517,43.517,45.75,42,45.75z"/></g><g><path fill="#ef7d99" d="M57 45.7A5.3 5.3 0 1 0 57 56.3A5.3 5.3 0 1 0 57 45.7Z"/><path fill="#472b29" d="M57,46.4c2.536,0,4.6,2.063,4.6,4.6s-2.064,4.6-4.6,4.6c-2.536,0-4.6-2.063-4.6-4.6 S54.464,46.4,57,46.4 M57,45c-3.314,0-6,2.687-6,6s2.686,6,6,6c3.314,0,6-2.687,6-6S60.314,45,57,45L57,45z"/></g><g><path fill="#472b29" d="M33.5,71h-8c-0.276,0-0.5-0.224-0.5-0.5s0.224-0.5,0.5-0.5h8c0.276,0,0.5,0.224,0.5,0.5 S33.776,71,33.5,71z"/></g><g><path fill="#472b29" d="M74.5,71h-31c-0.276,0-0.5-0.224-0.5-0.5s0.224-0.5,0.5-0.5h31c0.276,0,0.5,0.224,0.5,0.5 S74.776,71,74.5,71z"/></g><g><path fill="#472b29" d="M40.5,71h-4c-0.276,0-0.5-0.224-0.5-0.5s0.224-0.5,0.5-0.5h4c0.276,0,0.5,0.224,0.5,0.5 S40.776,71,40.5,71z"/></g><g><path fill="#ef7d99" d="M59.306,50.032C59.431,50.33,59.5,50.657,59.5,51c0,1.381-1.119,2.5-2.5,2.5s-2.5-1.119-2.5-2.5 c0-0.985,0.57-1.838,1.399-2.245"/><path fill="#472b29" d="M57,53.75c-1.517,0-2.75-1.233-2.75-2.75c0-1.057,0.589-2.003,1.538-2.47 c0.124-0.061,0.273-0.01,0.334,0.114s0.01,0.273-0.114,0.335C55.232,49.361,54.75,50.136,54.75,51c0,1.24,1.009,2.25,2.25,2.25 s2.25-1.01,2.25-2.25c0-0.302-0.059-0.595-0.175-0.871c-0.054-0.127,0.006-0.273,0.134-0.327c0.128-0.056,0.274,0.007,0.327,0.134 c0.142,0.338,0.214,0.696,0.214,1.064C59.75,52.517,58.517,53.75,57,53.75z"/></g><g><path fill="#ef7d99" d="M70,33.5c0.583,0,1.119,0.199,1.544,0.533"/><path fill="#472b29" d="M71.544,34.283c-0.054,0-0.108-0.018-0.154-0.054c-0.4-0.313-0.88-0.479-1.39-0.479 c-0.138,0-0.25-0.112-0.25-0.25s0.112-0.25,0.25-0.25c0.623,0,1.209,0.203,1.698,0.587c0.109,0.085,0.127,0.242,0.042,0.351 C71.691,34.25,71.618,34.283,71.544,34.283z"/></g><g><path fill="#ef7d99" d="M72.306,35.032C72.431,35.33,72.5,35.657,72.5,36c0,1.381-1.119,2.5-2.5,2.5s-2.5-1.119-2.5-2.5 c0-0.985,0.57-1.838,1.399-2.245"/><path fill="#472b29" d="M70,38.75c-1.517,0-2.75-1.233-2.75-2.75c0-1.057,0.589-2.003,1.538-2.47 c0.125-0.061,0.273-0.012,0.334,0.114c0.061,0.124,0.01,0.273-0.114,0.335C68.232,34.361,67.75,35.136,67.75,36 c0,1.24,1.009,2.25,2.25,2.25s2.25-1.01,2.25-2.25c0-0.302-0.059-0.595-0.175-0.871c-0.054-0.127,0.006-0.273,0.134-0.327 c0.128-0.056,0.274,0.007,0.327,0.134c0.142,0.338,0.214,0.696,0.214,1.064C72.75,37.517,71.517,38.75,70,38.75z"/></g><g><path fill="#ef7d99" d="M32.306,60.032C32.431,60.33,32.5,60.657,32.5,61c0,1.381-1.119,2.5-2.5,2.5s-2.5-1.119-2.5-2.5 c0-0.985,0.57-1.838,1.399-2.245"/><path fill="#472b29" d="M30,63.75c-1.517,0-2.75-1.233-2.75-2.75c0-1.057,0.589-2.003,1.538-2.47 c0.125-0.06,0.273-0.01,0.334,0.114s0.01,0.273-0.114,0.335C28.232,59.361,27.75,60.136,27.75,61c0,1.24,1.009,2.25,2.25,2.25 s2.25-1.01,2.25-2.25c0-0.302-0.059-0.595-0.175-0.871c-0.054-0.127,0.006-0.273,0.134-0.327c0.128-0.055,0.274,0.007,0.327,0.134 c0.142,0.338,0.214,0.696,0.214,1.064C32.75,62.517,31.517,63.75,30,63.75z"/></g><g><path fill="#472b29" d="M63.366,47.992c-0.056,0-0.111-0.019-0.158-0.056c-0.107-0.087-0.124-0.245-0.036-0.352l3.982-4.901 c0.087-0.107,0.245-0.123,0.352-0.037c0.107,0.087,0.124,0.245,0.036,0.352l-3.982,4.901C63.51,47.961,63.438,47.992,63.366,47.992 z"/></g><g><path fill="#472b29" d="M49.983,49.427c-0.045,0-0.091-0.013-0.132-0.038l-2.545-1.591c-0.117-0.073-0.153-0.228-0.08-0.345 c0.074-0.115,0.229-0.15,0.344-0.079l2.545,1.591c0.117,0.073,0.153,0.228,0.08,0.345C50.148,49.385,50.066,49.427,49.983,49.427z"/></g><g><path fill="#472b29" d="M38.007,51.904c-0.044,0-0.088-0.012-0.128-0.035c-0.119-0.071-0.157-0.225-0.086-0.344l1.136-1.894 c0.072-0.118,0.227-0.153,0.343-0.086c0.119,0.071,0.157,0.225,0.086,0.344l-1.136,1.894 C38.175,51.861,38.092,51.904,38.007,51.904z"/></g><g><path fill="#472b29" d="M35.394,56.261c-0.044,0-0.088-0.012-0.128-0.035c-0.119-0.071-0.157-0.226-0.086-0.344l1.765-2.94 c0.071-0.117,0.226-0.152,0.343-0.086c0.119,0.071,0.157,0.225,0.086,0.344l-1.765,2.94C35.561,56.218,35.478,56.261,35.394,56.261 z"/></g></svg>