<svg xmlns="http://www.w3.org/2000/svg"  viewBox="0 0 100 100" width="500px" height="500px"><path fill="#c7ede6" d="M87.215,56.71C88.35,54.555,89,52.105,89,49.5c0-6.621-4.159-12.257-10.001-14.478 C78.999,35.015,79,35.008,79,35c0-11.598-9.402-21-21-21c-9.784,0-17.981,6.701-20.313,15.757C36.211,29.272,34.638,29,33,29 c-7.692,0-14.023,5.793-14.89,13.252C12.906,43.353,9,47.969,9,53.5C9,59.851,14.149,65,20.5,65c0.177,0,0.352-0.012,0.526-0.022 C21.022,65.153,21,65.324,21,65.5C21,76.822,30.178,86,41.5,86c6.437,0,12.175-2.972,15.934-7.614C59.612,80.611,62.64,82,66,82 c4.65,0,8.674-2.65,10.666-6.518C77.718,75.817,78.837,76,80,76c6.075,0,11-4.925,11-11C91,61.689,89.53,58.727,87.215,56.71z"/><path fill="#fdfcef" d="M25.5,40.5V41h3v-0.5c0,0,4.242,0,5.5,0c2.485,0,4.5-2.015,4.5-4.5 c0-2.333-1.782-4.229-4.055-4.455C34.467,31.364,34.5,31.187,34.5,31c0-2.485-2.015-4.5-4.5-4.5c-1.438,0-2.703,0.686-3.527,1.736 C26.333,25.6,24.171,23.5,21.5,23.5c-2.761,0-5,2.239-5,5c0,0.446,0.077,0.87,0.187,1.282C16.045,29.005,15.086,28.5,14,28.5 c-1.781,0-3.234,1.335-3.455,3.055C10.364,31.533,10.187,31.5,10,31.5c-2.485,0-4.5,2.015-4.5,4.5s2.015,4.5,4.5,4.5s9.5,0,9.5,0 H25.5z"/><path fill="#472b29" d="M21.5,23c-3.033,0-5.5,2.467-5.5,5.5c0,0.016,0,0.031,0,0.047C15.398,28.192,14.71,28,14,28 c-1.831,0-3.411,1.261-3.858,3.005C10.095,31.002,10.048,31,10,31c-2.757,0-5,2.243-5,5s2.243,5,5,5h15.5 c0.276,0,0.5-0.224,0.5-0.5S25.776,40,25.5,40H10c-2.206,0-4-1.794-4-4s1.794-4,4-4c0.117,0,0.23,0.017,0.343,0.032l0.141,0.019 c0.021,0.003,0.041,0.004,0.062,0.004c0.246,0,0.462-0.185,0.495-0.437C11.232,30.125,12.504,29,14,29 c0.885,0,1.723,0.401,2.301,1.1c0.098,0.118,0.241,0.182,0.386,0.182c0.078,0,0.156-0.018,0.228-0.056 c0.209-0.107,0.314-0.346,0.254-0.573C17.054,29.218,17,28.852,17,28.5c0-2.481,2.019-4.5,4.5-4.5 c2.381,0,4.347,1.872,4.474,4.263c0.011,0.208,0.15,0.387,0.349,0.45c0.05,0.016,0.101,0.024,0.152,0.024 c0.15,0,0.296-0.069,0.392-0.192C27.638,27.563,28.779,27,30,27c2.206,0,4,1.794,4,4c0,0.117-0.017,0.23-0.032,0.343l-0.019,0.141 c-0.016,0.134,0.022,0.268,0.106,0.373c0.084,0.105,0.207,0.172,0.34,0.185C36.451,32.247,38,33.949,38,36c0,2.206-1.794,4-4,4 h-5.5c-0.276,0-0.5,0.224-0.5,0.5s0.224,0.5,0.5,0.5H34c2.757,0,5-2.243,5-5c0-2.397-1.689-4.413-4.003-4.877 C34.999,31.082,35,31.041,35,31c0-2.757-2.243-5-5-5c-1.176,0-2.293,0.416-3.183,1.164C26.219,24.76,24.055,23,21.5,23L21.5,23z"/><path fill="#472b29" d="M20,30c-1.403,0-2.609,0.999-2.913,2.341C16.72,32.119,16.301,32,15.875,32 c-1.202,0-2.198,0.897-2.353,2.068C13.319,34.022,13.126,34,12.937,34c-1.529,0-2.811,1.2-2.918,2.732 C10.01,36.87,10.114,36.99,10.251,37c0.006,0,0.012,0,0.018,0c0.13,0,0.24-0.101,0.249-0.232c0.089-1.271,1.151-2.268,2.419-2.268 c0.229,0,0.47,0.042,0.738,0.127c0.022,0.007,0.045,0.01,0.067,0.01c0.055,0,0.11-0.02,0.156-0.054 C13.962,34.537,14,34.455,14,34.375c0-1.034,0.841-1.875,1.875-1.875c0.447,0,0.885,0.168,1.231,0.473 c0.047,0.041,0.106,0.063,0.165,0.063c0.032,0,0.063-0.006,0.093-0.019c0.088-0.035,0.148-0.117,0.155-0.212 C17.623,31.512,18.712,30.5,20,30.5c0.208,0,0.425,0.034,0.682,0.107c0.023,0.007,0.047,0.01,0.07,0.01 c0.109,0,0.207-0.073,0.239-0.182c0.038-0.133-0.039-0.271-0.172-0.309C20.517,30.04,20.256,30,20,30L20,30z"/><path fill="#472b29" d="M33.883,31.5c-1.326,0-2.508,0.897-2.874,2.182c-0.038,0.133,0.039,0.271,0.172,0.309 C31.205,33.997,31.228,34,31.25,34c0.109,0,0.209-0.072,0.24-0.182C31.795,32.748,32.779,32,33.883,32 c0.117,0,0.23,0.014,0.342,0.029c0.012,0.002,0.023,0.003,0.035,0.003c0.121,0,0.229-0.092,0.246-0.217 c0.019-0.137-0.077-0.263-0.214-0.281C34.158,31.516,34.022,31.5,33.883,31.5L33.883,31.5z"/><path fill="#fff" d="M15.5,53h-10C5.224,53,5,52.776,5,52.5S5.224,52,5.5,52h10c0.276,0,0.5,0.224,0.5,0.5 S15.777,53,15.5,53z"/><path fill="#fff" d="M18.5,53h-1c-0.276,0-0.5-0.224-0.5-0.5s0.224-0.5,0.5-0.5h1c0.276,0,0.5,0.224,0.5,0.5 S18.777,53,18.5,53z"/><path fill="#fff" d="M23.491,55H14.5c-0.276,0-0.5-0.224-0.5-0.5s0.224-0.5,0.5-0.5h8.991c0.276,0,0.5,0.224,0.5,0.5 S23.767,55,23.491,55z"/><path fill="#fff" d="M12.5,55h-1c-0.276,0-0.5-0.224-0.5-0.5s0.224-0.5,0.5-0.5h1c0.276,0,0.5,0.224,0.5,0.5 S12.777,55,12.5,55z"/><path fill="#fff" d="M9.5,55h-2C7.224,55,7,54.776,7,54.5S7.224,54,7.5,54h2c0.276,0,0.5,0.224,0.5,0.5S9.777,55,9.5,55 z"/><path fill="#fff" d="M15.5,57h-2c-0.276,0-0.5-0.224-0.5-0.5s0.224-0.5,0.5-0.5h2c0.276,0,0.5,0.224,0.5,0.5 S15.776,57,15.5,57z"/><path fill="#fff" d="M18.5,48c-0.177,0-0.823,0-1,0c-0.276,0-0.5,0.224-0.5,0.5c0,0.276,0.224,0.5,0.5,0.5 c0.177,0,0.823,0,1,0c0.276,0,0.5-0.224,0.5-0.5C19,48.224,18.776,48,18.5,48z"/><path fill="#fff" d="M18.5,50c-0.177,0-4.823,0-5,0c-0.276,0-0.5,0.224-0.5,0.5c0,0.276,0.224,0.5,0.5,0.5 c0.177,0,4.823,0,5,0c0.276,0,0.5-0.224,0.5-0.5C19,50.224,18.776,50,18.5,50z"/><path fill="#fff" d="M23.5,52c-0.177,0-2.823,0-3,0c-0.276,0-0.5,0.224-0.5,0.5c0,0.276,0.224,0.5,0.5,0.5 c0.177,0,2.823,0,3,0c0.276,0,0.5-0.224,0.5-0.5C24,52.224,23.776,52,23.5,52z"/><g><path fill="#fff" d="M72.5,24h-10c-0.276,0-0.5-0.224-0.5-0.5s0.224-0.5,0.5-0.5h10c0.276,0,0.5,0.224,0.5,0.5 S72.776,24,72.5,24z"/><path fill="#fff" d="M76.5,24h-2c-0.276,0-0.5-0.224-0.5-0.5s0.224-0.5,0.5-0.5h2c0.276,0,0.5,0.224,0.5,0.5 S76.776,24,76.5,24z"/><path fill="#fff" d="M81.5,26h-10c-0.276,0-0.5-0.224-0.5-0.5s0.224-0.5,0.5-0.5h10c0.276,0,0.5,0.224,0.5,0.5 S81.777,26,81.5,26z"/><path fill="#fff" d="M69.5,26h-1c-0.276,0-0.5-0.224-0.5-0.5s0.224-0.5,0.5-0.5h1c0.276,0,0.5,0.224,0.5,0.5 S69.776,26,69.5,26z"/><path fill="#fff" d="M66.47,26H64.5c-0.276,0-0.5-0.224-0.5-0.5s0.224-0.5,0.5-0.5h1.97c0.276,0,0.5,0.224,0.5,0.5 S66.746,26,66.47,26z"/><path fill="#fff" d="M75.5,22h-5c-0.276,0-0.5-0.224-0.5-0.5s0.224-0.5,0.5-0.5h5c0.276,0,0.5,0.224,0.5,0.5 S75.777,22,75.5,22z"/><path fill="#fff" d="M72.5,28h-2c-0.276,0-0.5-0.224-0.5-0.5s0.224-0.5,0.5-0.5h2c0.276,0,0.5,0.224,0.5,0.5 S72.776,28,72.5,28z"/></g><g><path fill="#fdfcef" d="M85.5,83.5c0,0,1.567,0,3.5,0s3.5-1.567,3.5-3.5c0-1.781-1.335-3.234-3.055-3.455 C89.473,76.366,89.5,76.187,89.5,76c0-1.933-1.567-3.5-3.5-3.5c-1.032,0-1.95,0.455-2.59,1.165 c-0.384-1.808-1.987-3.165-3.91-3.165c-2.209,0-4,1.791-4,4c0,0.191,0.03,0.374,0.056,0.558C75.128,74.714,74.592,74.5,74,74.5 c-1.228,0-2.245,0.887-2.455,2.055C71.366,76.527,71.187,76.5,71,76.5c-1.933,0-3.5,1.567-3.5,3.5s1.567,3.5,3.5,3.5s7.5,0,7.5,0 V84h7V83.5z"/><path fill="#472b29" d="M87.25,79C87.112,79,87,78.888,87,78.75c0-1.223,0.995-2.218,2.218-2.218 c0.034,0.009,0.737-0.001,1.244,0.136c0.133,0.036,0.212,0.173,0.176,0.306c-0.036,0.134-0.173,0.213-0.306,0.176 c-0.444-0.12-1.1-0.12-1.113-0.118c-0.948,0-1.719,0.771-1.719,1.718C87.5,78.888,87.388,79,87.25,79z"/><circle cx="80.5" cy="83.5" r=".5" fill="#472b29"/><path fill="#472b29" d="M89,84h-3.5c-0.276,0-0.5-0.224-0.5-0.5s0.224-0.5,0.5-0.5H89c1.654,0,3-1.346,3-3 c0-1.496-1.125-2.768-2.618-2.959c-0.134-0.018-0.255-0.088-0.336-0.196s-0.115-0.244-0.094-0.377C88.975,76.314,89,76.16,89,76 c0-1.654-1.346-3-3-3c-0.85,0-1.638,0.355-2.219,1c-0.125,0.139-0.321,0.198-0.5,0.148c-0.182-0.049-0.321-0.195-0.36-0.379 C82.58,72.165,81.141,71,79.5,71c-1.93,0-3.5,1.57-3.5,3.5c0,0.143,0.021,0.28,0.041,0.418c0.029,0.203-0.063,0.438-0.242,0.54 c-0.179,0.102-0.396,0.118-0.556-0.01C74.878,75.155,74.449,75,74,75c-0.966,0-1.792,0.691-1.963,1.644 c-0.048,0.267-0.296,0.446-0.569,0.405C71.314,77.025,71.16,77,71,77c-1.654,0-3,1.346-3,3s1.346,3,3,3h7.5 c0.276,0,0.5,0.224,0.5,0.5S78.776,84,78.5,84H71c-2.206,0-4-1.794-4-4s1.794-4,4-4c0.059,0,0.116,0.002,0.174,0.006 C71.588,74.82,72.711,74,74,74c0.349,0,0.689,0.061,1.011,0.18C75.176,71.847,77.126,70,79.5,70c1.831,0,3.466,1.127,4.153,2.774 C84.333,72.276,85.155,72,86,72c2.206,0,4,1.794,4,4c0,0.048-0.001,0.095-0.004,0.142C91.739,76.59,93,78.169,93,80 C93,82.206,91.206,84,89,84z"/><path fill="#472b29" d="M83.5,83c-0.159,0-0.841,0-1,0c-0.276,0-0.5,0.224-0.5,0.5c0,0.276,0.224,0.5,0.5,0.5 c0.159,0,0.841,0,1,0c0.276,0,0.5-0.224,0.5-0.5C84,83.224,83.776,83,83.5,83z"/></g><g><path fill="#472b29" d="M51,73.537c-0.6,0-1.199-0.155-1.734-0.466L36.72,65.786C35.659,65.17,35,64.026,35,62.799V48.201 c0-1.227,0.659-2.371,1.72-2.987l12.546-7.285c1.07-0.621,2.398-0.621,3.469,0l12.546,7.285C66.341,45.83,67,46.974,67,48.201 v14.598c0,1.227-0.659,2.371-1.72,2.987l-12.546,7.285C52.199,73.382,51.6,73.537,51,73.537z M51,38.463 c-0.426,0-0.853,0.11-1.232,0.331l-12.546,7.285C36.468,46.516,36,47.329,36,48.201v14.598c0,0.871,0.468,1.685,1.222,2.123 l12.546,7.285c0.76,0.441,1.705,0.442,2.465,0l12.546-7.285C65.532,64.484,66,63.671,66,62.799V48.201 c0-0.871-0.468-1.685-1.222-2.122l-12.546-7.285C51.853,38.573,51.426,38.463,51,38.463z"/><polygon fill="#a8dbdb" points="35.5,71 26.5,66 26.5,55 35.5,60"/><polygon fill="#85cfcc" points="35.5,71 44.5,66 44.5,55 35.5,60"/><polygon fill="#edf7f5" points="26.625,55 35.563,60 44.5,55 35.5,50.5"/><polygon fill="#a8dbdb" points="66.5,71 57.5,66 57.5,55 66.5,60"/><polyline fill="#85cfcc" points="66.5,71 75.5,66 75.5,55 66.5,60"/><polygon fill="#edf7f5" points="57.625,55 66.563,60 75.5,55 66.5,50.5"/><path fill="#472b29" d="M66.5,71.5c-0.083,0-0.166-0.02-0.243-0.063l-9-5C57.099,66.349,57,66.182,57,66V55 c0-0.177,0.094-0.341,0.246-0.431c0.152-0.09,0.341-0.092,0.497-0.006l9,5c0.241,0.134,0.328,0.438,0.194,0.68 c-0.136,0.243-0.441,0.327-0.681,0.194L58,55.85v9.856l8.743,4.857c0.241,0.134,0.328,0.438,0.194,0.68 C66.846,71.407,66.675,71.5,66.5,71.5z"/><path fill="#472b29" d="M66.5,71.5c-0.088,0-0.176-0.023-0.254-0.069C66.094,71.341,66,71.177,66,71v-4.875 c0-0.276,0.224-0.5,0.5-0.5s0.5,0.224,0.5,0.5v4.025l8-4.444V55.85l-8,4.444v2.622c0,0.276-0.224,0.5-0.5,0.5s-0.5-0.224-0.5-0.5 V60c0-0.182,0.099-0.349,0.257-0.437l9-5c0.156-0.086,0.345-0.084,0.497,0.006C75.906,54.659,76,54.823,76,55v11 c0,0.182-0.099,0.349-0.257,0.437l-9,5C66.667,71.479,66.584,71.5,66.5,71.5z"/><path fill="#472b29" d="M66.563,60.5c-0.084,0-0.168-0.021-0.244-0.064l-8.938-5c-0.161-0.09-0.26-0.262-0.256-0.447 s0.109-0.352,0.273-0.436l8.875-4.5c0.142-0.072,0.309-0.072,0.45-0.001l9,4.5c0.166,0.083,0.271,0.25,0.276,0.436 c0.004,0.185-0.095,0.358-0.256,0.448l-8.938,5C66.73,60.479,66.646,60.5,66.563,60.5z M58.688,55.022l7.875,4.405l7.869-4.402 l-7.93-3.965L58.688,55.022z"/><polygon fill="#a8dbdb" points="51.5,48 42.5,43 42.5,32 51.5,37"/><polygon fill="#85cfcc" points="51.5,48 60.5,43 60.5,32 51.5,37"/><polygon fill="#edf7f5" points="42.625,32 51.563,37 60.5,32 51.5,27.5"/><path fill="#472b29" d="M35.5,71.5c-0.084,0-0.167-0.021-0.243-0.063l-9-5C26.099,66.349,26,66.182,26,66V55 c0-0.177,0.094-0.341,0.246-0.431c0.152-0.09,0.342-0.092,0.497-0.006l9,5C35.901,59.651,36,59.818,36,60v11 c0,0.177-0.094,0.341-0.246,0.431C35.676,71.477,35.588,71.5,35.5,71.5z M27,65.706l8,4.444v-9.856l-8-4.444V65.706z"/><path fill="#472b29" d="M35.5,71.5c-0.088,0-0.176-0.023-0.254-0.069C35.094,71.341,35,71.177,35,71V60 c0-0.182,0.099-0.349,0.257-0.437l4.399-2.444c0.239-0.133,0.545-0.048,0.681,0.194c0.134,0.241,0.047,0.546-0.194,0.68L36,60.294 v9.856l8-4.444V55.85l-1.438,0.799c-0.238,0.133-0.545,0.048-0.681-0.194c-0.134-0.241-0.047-0.546,0.194-0.68l2.181-1.212 c0.155-0.086,0.345-0.084,0.497,0.006S45,54.823,45,55v11c0,0.182-0.099,0.349-0.257,0.437l-9,5 C35.667,71.479,35.584,71.5,35.5,71.5z"/><path fill="#472b29" d="M35.563,60.5c-0.083,0-0.167-0.021-0.244-0.064l-8.938-5c-0.161-0.09-0.26-0.262-0.256-0.447 s0.109-0.352,0.273-0.436l8.875-4.5c0.142-0.072,0.309-0.072,0.45-0.001l9,4.5c0.247,0.123,0.347,0.424,0.224,0.671 c-0.124,0.247-0.422,0.347-0.671,0.224l-8.774-4.387l-7.814,3.962l8.119,4.542c0.241,0.135,0.327,0.439,0.192,0.68 C35.907,60.408,35.737,60.5,35.563,60.5z"/><path fill="#472b29" d="M51.5,48.5c-0.084,0-0.167-0.021-0.243-0.063l-9-5C42.099,43.349,42,43.182,42,43V32 c0-0.177,0.094-0.341,0.246-0.431c0.152-0.09,0.341-0.092,0.497-0.006l2.743,1.524c0.241,0.134,0.328,0.439,0.194,0.68 c-0.135,0.243-0.44,0.327-0.681,0.194l-2-1.111v9.856l8,4.444v-9.856l-3.58-1.989c-0.241-0.134-0.328-0.438-0.194-0.68 c0.135-0.243,0.439-0.327,0.681-0.194l3.837,2.131C51.901,36.651,52,36.818,52,37v11c0,0.177-0.094,0.341-0.246,0.431 C51.676,48.477,51.588,48.5,51.5,48.5z"/><path fill="#472b29" d="M51.5,48.5c-0.088,0-0.176-0.023-0.254-0.069C51.094,48.341,51,48.177,51,48V37 c0-0.182,0.099-0.349,0.257-0.437l9-5c0.156-0.086,0.345-0.084,0.497,0.006S61,31.823,61,32v11c0,0.182-0.099,0.349-0.257,0.437 l-9,5C51.667,48.479,51.584,48.5,51.5,48.5z M52,37.294v9.856l8-4.444V32.85L52,37.294z"/><path fill="#472b29" d="M51.563,37.5c-0.175,0-0.345-0.092-0.437-0.256c-0.135-0.241-0.049-0.546,0.192-0.68l8.113-4.539 l-7.93-3.965l-8.65,4.386c-0.248,0.124-0.547,0.027-0.673-0.22c-0.125-0.246-0.026-0.547,0.22-0.672l8.875-4.5 c0.142-0.072,0.309-0.072,0.45-0.001l9,4.5c0.166,0.083,0.271,0.25,0.276,0.436c0.004,0.185-0.095,0.358-0.256,0.448l-8.938,5 C51.729,37.48,51.646,37.5,51.563,37.5z"/></g></svg>